<svg width="636" height="415" viewBox="0 0 636 415" fill="none" xmlns="http://www.w3.org/2000/svg">
<g clip-path="url(#clip0_2870_2804)">
<path d="M169.39 184.349C169.634 181.293 169.821 178.23 170.139 175.181C170.512 171.601 171.006 168.034 171.434 164.459C172.141 158.541 172.843 152.622 173.536 146.703C174.037 142.423 174.508 138.139 175.015 133.86C175.578 129.113 176.171 124.369 176.742 119.622C177.087 116.753 177.414 113.881 177.963 110.875C180.602 111.012 183.03 111.274 185.454 111.558C195.215 112.701 204.975 113.857 214.736 114.997C226.507 116.372 238.28 117.732 250.051 119.105C261.646 120.458 273.239 121.822 284.833 123.175C294.831 124.341 304.829 125.5 314.828 126.659C323.406 127.654 331.984 128.643 340.562 129.636C350.146 130.746 359.73 131.855 369.313 132.972C379.193 134.123 389.071 135.284 398.95 136.44C408.652 137.576 418.352 138.718 428.054 139.844C436.632 140.839 445.212 141.817 453.791 142.802C453.42 146.06 453.032 149.317 452.683 152.577C452.328 155.897 452.012 159.22 451.571 162.803C450.924 167.813 450.414 172.565 449.839 177.31C449.173 182.814 448.409 188.307 447.764 193.813C447.099 199.5 446.572 205.204 445.9 210.89C444.888 219.443 443.78 227.985 442.754 236.537C442.003 242.805 441.318 249.081 440.595 255.509C440.306 258.479 440.067 261.3 439.735 264.11C439.215 268.497 438.562 272.868 438.096 277.26C437.618 281.773 436.76 286.113 433.743 289.73C431.297 292.664 428.391 294.884 424.521 295.588C423.083 289.978 419.773 286.366 414.185 285.049C407.785 283.54 400.66 287.269 398.451 294.29C396.242 294.051 394.187 293.803 392.129 293.577C387.542 293.075 382.95 292.617 378.367 292.08C372.73 291.42 367.102 290.677 361.466 290.011C357.119 289.497 352.764 289.054 348.414 288.568C344.064 288.081 339.714 287.59 335.367 287.081C330.551 286.518 325.739 285.924 320.924 285.359C316.516 284.842 312.106 284.354 307.698 283.838C302.942 283.282 298.19 282.693 293.432 282.148C289.847 281.738 286.254 281.402 282.67 280.981C278.09 280.443 273.519 279.826 268.938 279.293C265.294 278.869 261.637 278.559 257.993 278.128C253.532 277.6 249.083 276.977 244.624 276.437C241.042 276.003 237.45 275.647 233.865 275.23C230.283 274.813 226.705 274.355 223.123 273.931C219.307 273.479 215.49 273.026 211.67 272.607C207.907 272.194 204.139 271.822 200.348 271.267C200.199 259.397 200.049 247.692 200.004 235.986C200.001 235.144 200.568 234.086 201.209 233.496C203.304 231.564 205.607 229.859 207.737 227.962C211.372 224.727 214.936 221.412 218.667 218.192C219.081 218.356 219.352 218.517 219.638 218.552C226.524 219.4 233.406 220.289 240.304 221.032C241.926 221.207 242.542 221.753 242.293 223.359C241.94 225.638 241.742 227.944 241.335 230.213C240.577 234.432 243.319 238.538 247.462 239.238C251.684 239.952 255.366 237.059 255.935 232.601C256.331 229.505 256.754 226.413 257.161 223.35C262.014 222.658 264.501 220.757 264.846 217.593C265.349 212.987 262.965 210.348 258.756 209.254C258.877 208.16 258.997 207.049 259.124 205.938C259.64 201.41 260.148 196.88 260.677 192.353C261.226 187.651 261.799 182.951 262.356 178.25C262.914 173.548 263.464 168.845 264.018 164.143C264.399 160.911 265.052 157.683 265.097 154.446C265.161 149.911 261.802 145.871 257.77 145.018C252.899 143.989 248.594 145.922 246.342 150.14C245.586 151.555 244.831 152.971 244.037 154.365C236.191 168.145 228.336 181.92 220.353 195.686C211.245 192.796 202.267 189.917 193.335 186.924C194.092 184.804 195.06 182.811 193.664 180.576C192.905 179.973 192.195 179.113 191.449 179.081C188.808 178.969 186.152 179.086 183.508 179.225C182.229 179.293 180.969 179.716 179.69 179.785C175.659 180 171.884 180.714 169.39 184.349ZM295.21 244.573C298.478 245.405 301.704 246.559 305.024 246.992C309.546 247.581 314.051 247.042 318.188 244.853C324.086 241.73 327.24 236.541 328.507 230.254C329.452 225.569 329.835 220.77 330.426 216.016C331.142 210.264 331.813 204.506 332.505 198.75C333.069 194.052 333.735 189.364 334.176 184.654C334.687 179.188 335.947 173.767 335.037 168.203C334.104 162.503 331.813 157.696 326.811 154.455C321.1 150.754 314.736 149.946 308.155 150.487C304.936 150.751 301.891 151.857 299.204 153.751C294.358 157.168 291.749 162.021 290.687 167.68C289.859 172.092 289.411 176.578 288.844 181.037C288.329 185.086 287.871 189.143 287.406 193.198C286.88 197.782 286.354 202.366 285.864 206.955C285.135 213.781 283.801 220.564 284.167 227.475C284.572 235.137 288.033 240.908 295.21 244.573ZM397.597 228.145C396.389 227.222 395.288 226.069 393.941 225.45C392.847 224.946 392.487 224.42 392.624 223.337C392.986 220.461 393.35 217.586 393.676 214.706C394.429 208.061 395.13 201.41 395.908 194.768C396.804 187.129 397.787 179.499 398.675 171.859C398.954 169.461 398.655 167.135 397.391 164.978C394.031 159.246 384.514 157.988 380.178 165.576C377.231 170.732 374.291 175.893 371.349 181.052C364.994 192.197 358.626 203.335 352.295 214.493C350.666 217.366 348.776 220.154 348.748 223.662C348.741 224.608 348.655 225.562 348.501 226.496C347.896 230.161 350.201 233.685 353.857 234.239C357.958 234.861 362.098 235.229 366.219 235.721C369.498 236.113 372.774 236.526 376.152 236.942C376.092 237.569 376.053 238.033 376.004 238.496C375.695 241.438 375.387 244.38 375.072 247.321C374.637 251.389 378.263 254.839 382.312 254.961C386.179 255.078 389.455 251.812 389.791 247.795C390.046 244.751 390.516 241.725 390.882 238.754C397.693 237.922 400.309 233.818 397.597 228.145Z" fill="#D8F0FA"/>
<path d="M85.8914 414.992C63.0484 414.998 40.2047 415.099 17.363 414.929C12.7354 414.895 8.78244 412.672 5.56039 409.118C1.83175 405.004 0.74534 400.193 0.675382 394.863C0.554601 385.66 0.00466712 376.457 0.0912275 367.258C0.15632 360.34 0.925402 353.428 1.40006 346.514C1.98936 337.93 3.47738 329.479 5.40698 321.112C7.24751 313.131 9.76366 305.355 13.0538 297.835C15.9925 291.119 19.5069 284.733 24.0058 278.932C32.6016 267.85 43.3616 259.808 56.9043 255.613C62.8306 253.778 68.8371 252.674 75.0139 252.066C88.5646 250.733 101.741 247.774 114.056 241.742C121.07 238.306 127.581 234.08 133.587 229.056C144.436 219.981 152.942 208.9 161.07 197.479C162.853 194.975 164.675 192.498 166.62 190.129C165.425 194.596 165.07 198.901 167.188 203.182C166.616 206.931 166.164 210.593 165.585 214.297C163.859 214.977 162.217 215.527 160.669 216.271C155.55 218.733 152.128 223.048 148.941 227.49C143.752 234.721 138.773 242.103 133.704 249.42C133.026 250.399 133.007 251.215 133.759 252.305C138.885 259.729 143.893 267.234 148.992 274.677C150.592 277.013 152.353 279.239 154.078 281.64C155.11 283.232 156.104 284.699 157.125 286.277C157.177 286.462 157.204 286.534 157.221 286.752C156.724 293.168 155.982 299.431 155.811 305.71C155.583 314.077 155.887 322.456 155.806 330.829C155.627 349.365 155.36 367.9 155.11 386.435C155.02 393.088 154.867 399.74 154.777 406.392C154.771 406.797 155.062 407.206 155.246 407.771C155.304 410.279 155.331 412.63 155.359 414.98C141.579 414.983 127.8 414.985 113.948 414.885C116.455 413.877 117.366 411.845 117.755 409.334C119.015 401.194 120.355 393.066 121.65 384.932C122.129 381.92 122.565 378.901 123.054 375.667C120.874 375.667 118.92 375.667 117.042 375.569C117.306 375.328 117.482 375.162 117.685 375.045C126.388 370.044 132.112 362.699 134.981 353.122C135.418 351.663 135.72 350.163 136.084 348.682C135.978 348.66 135.872 348.639 135.766 348.618C134.414 350.627 133.062 352.636 131.588 354.658C131.203 355.028 130.94 355.386 130.666 355.73C130.656 355.717 130.666 355.749 130.551 355.785C129.878 356.351 129.313 356.873 128.764 357.411C124.801 361.293 120.49 364.367 114.926 365.906C110.257 367.197 107.489 371.07 105.767 375.674C104.412 375.685 103.219 375.674 102.04 375.529C102.63 370.821 105.461 367.783 109.09 365.391C112.16 363.368 115.263 361.359 118.518 359.662C125.103 356.229 129.468 351.189 131.356 343.922C133.257 336.604 133.621 329.188 133.419 321.702C133.375 320.047 133.185 318.394 133.016 316.745C133.003 316.619 132.625 316.53 132.344 316.469C132.176 316.598 132.142 316.702 132.148 316.955C132.003 317.581 131.877 318.079 131.634 318.62C130.566 320.162 129.739 321.758 128.644 323.144C124.237 328.724 119.776 334.262 115.278 339.77C111.678 344.177 107.833 348.394 104.388 352.917C99.2538 359.656 97.8979 367.394 98.9674 375.686C97.4955 375.693 96.1862 375.679 94.8763 375.509C95.0529 373.407 95.02 371.415 95.4465 369.526C96.7645 363.69 98.25 357.891 99.6849 352.081C101.457 344.906 102.59 337.559 100.019 330.503C97.7771 324.353 94.6941 318.462 91.5342 312.702C86.9959 304.429 82.0502 296.379 77.2769 288.112C77.068 287.753 76.8605 287.514 76.653 287.276C76.5493 287.493 76.4456 287.71 76.3244 288.047C76.3041 288.407 76.3015 288.648 76.2275 289.018C75.591 295.324 74.7169 301.492 74.5581 307.678C74.4296 312.681 74.8874 317.746 75.6015 322.71C76.1599 326.593 76.9033 330.668 78.6471 334.111C81.4158 339.579 85.162 344.546 88.3548 349.809C91.096 354.328 93.0084 359.118 92.7468 364.59C92.571 368.271 92.7103 371.966 92.5606 375.68C92.0142 375.688 91.6157 375.672 91.2281 375.507C91.3679 373.23 91.4881 371.101 91.6272 368.973C92.0816 362.021 88.7538 356.793 83.9529 352.252C80.324 348.819 76.5817 345.501 73.0604 341.963C71.8946 340.792 70.8057 339.191 70.4676 337.618C69.4374 332.827 68.4694 327.978 68.0902 323.104C67.7528 318.768 68.2328 314.368 68.4279 309.96C68.4949 309.8 68.4861 309.677 68.4772 309.554C68.4414 309.706 68.4057 309.858 68.2464 310.015C66.397 312.738 64.671 315.458 62.8201 318.199C62.5053 318.357 62.2235 318.451 62.1394 318.635C60.5161 322.184 58.6442 325.65 57.3794 329.324C55.7686 334.002 54.9928 338.811 57.0894 343.689C59.0926 348.349 62.645 351.638 66.5306 354.563C71.0184 357.94 75.6761 361.106 80.3815 364.178C84.5971 366.931 86.9777 370.645 87.1696 375.678C83.5838 375.702 80.1647 375.702 76.4464 375.702C76.7968 377.768 77.1077 379.601 77.4157 381.575C78.7046 389.911 79.9749 398.108 81.2985 406.297C81.8472 409.691 81.7739 413.456 85.8914 414.992Z" fill="#B5E0E9"/>
<path d="M440.603 255.355C441.318 249.082 442.003 242.806 442.754 236.537C443.78 227.986 444.888 219.444 445.9 210.891C446.572 205.205 447.099 199.501 447.764 193.814C448.409 188.307 449.173 182.815 449.839 177.311C450.414 172.566 450.924 167.814 451.567 162.967C451.671 162.869 451.677 162.86 451.708 162.945C451.839 163.09 451.939 163.15 452.039 163.21C459.463 171.939 465.419 181.645 471.085 191.555C477.775 203.256 484.329 215.043 491.363 226.537C496.261 234.541 502.678 241.303 510.581 246.595C517.493 251.224 525.211 253.59 533.217 255.337C542.071 257.268 550.655 260.089 558.933 263.749C567.225 267.415 575.047 271.939 582.128 277.632C588.832 283.022 594.632 289.26 599.492 296.375C607.745 308.46 612.673 321.873 615.165 336.169C616.404 343.27 617.345 350.475 617.683 357.668C618.242 369.578 618.337 381.516 618.347 393.443C618.35 397.539 618.327 401.777 616.057 405.541C612.56 411.343 607.631 414.929 600.71 414.989C587.414 415.104 574.116 415.017 560.651 414.836C560.601 408.962 560.79 403.267 560.812 397.57C560.827 393.809 560.665 390.044 560.468 386.286C560.168 380.558 559.82 374.832 559.401 369.112C558.853 361.622 557.501 354.247 555.546 347.012C554.047 341.468 552.484 335.909 549.801 330.77C547.404 326.181 545.191 321.475 542.479 317.077C538.72 310.979 533.82 305.772 528.613 300.851C523.841 296.34 518.462 292.661 512.851 289.331C509.575 287.387 506.085 285.784 502.628 284.163C500.243 283.045 497.786 282.052 495.297 281.189C489.836 279.298 484.412 277.226 478.83 275.772C470.148 273.511 461.331 271.717 453.647 266.762C448.75 263.603 444.339 259.855 440.603 255.355Z" fill="#A2D6E4"/>
<path d="M440.595 255.508C444.339 259.853 448.75 263.601 453.647 266.76C461.331 271.715 470.148 273.509 478.83 275.77C484.412 277.224 489.836 279.296 495.297 281.188C497.786 282.05 500.243 283.043 502.628 284.161C506.085 285.782 509.575 287.385 512.851 289.329C518.462 292.659 523.841 296.339 528.613 300.849C533.82 305.77 538.72 310.977 542.479 317.075C545.191 321.473 547.404 326.179 549.801 330.768C552.484 335.907 554.047 341.467 555.546 347.011C557.501 354.245 558.853 361.62 559.401 369.11C559.82 374.83 560.168 380.556 560.468 386.284C560.665 390.042 560.827 393.807 560.812 397.569C560.79 403.265 560.601 408.96 560.484 414.823C549.728 414.992 538.971 414.995 528.063 414.818C527.92 411.573 527.886 408.507 527.959 405.444C527.987 404.279 527.588 403.887 526.434 403.926C524.606 403.988 522.774 403.915 520.922 403.782C520.362 402.565 519.823 401.463 519.24 400.284C519.126 400.108 519.056 400.01 519.007 399.845C519.028 399.778 518.986 399.644 518.99 399.505C517.079 394.777 515.163 390.188 513.225 385.474C513.085 385.021 512.987 384.683 512.845 384.364C511.526 381.416 510.2 378.471 508.898 375.398C507.861 372.676 506.803 370.081 505.743 367.351C504.321 363.924 502.902 360.632 501.479 357.207C500.863 355.477 500.281 353.866 499.632 352.283C497.676 347.514 495.694 342.756 493.722 337.993C493.027 336.312 491.739 335.509 489.949 335.582C488.187 335.654 486.914 336.496 486.298 338.2C485.916 339.256 485.547 340.318 485.082 341.454C483.802 344.36 482.584 347.179 481.43 350.023C480.436 352.47 479.515 354.945 478.461 357.494C477.016 360.879 475.673 364.177 474.276 367.596C473.151 370.333 472.079 372.948 470.922 375.666C469.534 379.049 468.232 382.33 466.845 385.702C464.863 390.414 462.966 395.033 460.995 399.759C460.4 401.224 459.879 402.582 459.203 403.941C456.978 403.939 454.906 403.986 452.839 403.915C451.701 403.876 451.263 404.229 451.29 405.414C451.363 408.598 451.331 411.786 451.341 414.972C440.587 414.988 429.833 415.004 418.967 414.883C418.837 413.755 418.8 412.763 418.804 411.772C418.874 393.424 418.95 375.077 419.171 356.694C420.558 356.6 421.799 356.542 423.172 356.545C429.495 356.634 435.686 356.607 441.874 356.727C443.573 356.759 444.125 356.301 444.11 354.551C444.031 345.043 444.076 335.533 444.065 326.025C444.064 325.438 443.954 324.852 443.95 324.108C443.964 321.206 443.923 318.462 443.944 315.642C443.944 315.316 443.883 315.067 443.814 314.683C443.363 314.368 442.92 314.036 442.475 314.033C436.545 313.984 430.614 313.981 424.506 313.933C422.566 313.875 420.803 313.851 419.046 313.668C419.046 312.003 419.04 310.497 419.097 308.882C419.705 308.322 420.296 307.916 420.786 307.411C423.963 304.137 425.101 300.193 424.573 295.717C428.391 294.883 431.297 292.663 433.743 289.729C436.76 286.112 437.618 281.772 438.096 277.259C438.562 272.867 439.215 268.495 439.735 264.109C440.067 261.299 440.306 258.478 440.595 255.508Z" fill="#B5E0E9"/>
<path d="M200.374 271.432C204.139 271.821 207.907 272.193 211.67 272.606C215.49 273.025 219.307 273.478 223.123 273.93C226.705 274.354 230.283 274.812 233.866 275.229C237.45 275.646 241.042 276.002 244.624 276.436C249.083 276.976 253.532 277.599 257.993 278.127C261.637 278.558 265.294 278.868 268.939 279.292C273.519 279.825 278.09 280.442 282.67 280.98C286.254 281.401 289.847 281.737 293.432 282.147C298.19 282.692 302.942 283.281 307.698 283.837C312.106 284.353 316.516 284.841 320.924 285.358C325.739 285.923 330.551 286.517 335.367 287.08C339.714 287.589 344.064 288.08 348.414 288.567C352.764 289.053 357.119 289.496 361.466 290.01C367.102 290.676 372.73 291.419 378.367 292.079C382.95 292.616 387.542 293.074 392.129 293.576C394.187 293.802 396.242 294.05 398.435 294.422C397.042 300.153 398.939 305.185 404.086 309.375C404.09 310.657 404.101 311.771 404.096 312.984C403.994 313.338 403.908 313.592 403.653 313.853C402.583 313.882 401.682 313.904 400.62 313.908C394.139 313.913 387.819 313.935 381.313 313.931C373.259 313.908 365.391 313.912 357.358 313.903C350.862 313.917 344.531 313.944 338.036 313.944C330.007 313.916 322.143 313.915 314.109 313.897C307.602 313.915 301.265 313.951 294.763 313.945C288.006 313.882 281.413 313.859 274.822 313.677C274.804 311.952 274.784 310.388 274.829 308.723C277.711 306.3 279.372 303.411 279.996 299.739C280.963 294.044 277.116 287.815 272.034 285.761C265.646 283.179 259.083 285.792 255.883 290.482C252.025 296.137 252.769 304.8 259.857 309.504C259.857 310.734 259.863 311.808 259.828 312.979C259.669 313.333 259.552 313.589 259.299 313.854C258.799 313.861 258.434 313.86 258.03 313.81C257.885 313.794 257.78 313.827 257.509 313.864C255.495 313.896 253.647 313.924 251.617 313.92C251.071 313.844 250.708 313.799 250.353 313.748C250.362 313.742 250.358 313.751 250.181 313.782C244.611 313.813 239.217 313.813 233.73 313.813C233.73 317.53 233.73 320.906 233.707 324.448C233.709 333.091 233.735 341.569 233.747 350.21C233.733 352.421 233.733 354.468 233.733 356.571C234.222 356.62 234.51 356.675 234.797 356.673C239.906 356.639 245.014 356.599 250.289 356.609C253.557 356.675 256.659 356.692 259.78 356.88C259.816 359.34 259.834 361.629 259.843 364.086C259.841 381.165 259.846 398.075 259.851 414.986C246.077 414.977 232.302 414.969 218.395 414.8C218.137 413.983 218.244 412.991 217.853 412.723C214.594 410.488 211.18 408.527 207.172 407.681C207.072 406.642 206.961 405.755 206.932 404.865C206.444 389.771 206.068 374.673 205.453 359.584C205.034 349.314 204.513 339.037 203.624 328.799C202.406 314.767 200.796 300.769 199.476 286.684C199.875 286.064 200.388 285.519 200.394 284.968C200.441 280.456 200.393 275.944 200.374 271.432Z" fill="#B5E0E9"/>
<path d="M453.808 142.655C445.212 141.816 436.632 140.839 428.054 139.843C418.352 138.717 408.652 137.575 398.951 136.44C389.071 135.283 379.193 134.123 369.313 132.971C359.73 131.854 350.146 130.746 340.563 129.635C331.985 128.642 323.406 127.653 314.828 126.659C304.829 125.5 294.831 124.341 284.833 123.174C273.239 121.821 261.646 120.457 250.052 119.104C238.28 117.731 226.507 116.372 214.736 114.997C204.975 113.857 195.215 112.7 185.455 111.557C183.03 111.273 180.602 111.011 178.024 110.745C178.581 104.765 178.835 98.681 180.103 92.8156C182.009 84.0002 190.825 78.2144 199.821 79.1643C201.712 79.364 203.605 79.5439 205.657 79.7039C206.771 79.8014 207.725 79.9279 208.83 80.0436C212.505 80.499 216.025 81.0038 219.556 81.424C230.373 82.7116 241.193 83.9753 252.015 85.2316C260.708 86.2407 269.405 87.2144 278.098 88.2238C288.742 89.4598 299.384 90.7217 310.028 91.9627C318.779 92.9832 327.533 93.9844 336.285 95.0035C346.928 96.2429 357.569 97.4945 368.212 98.7367C378.974 99.9928 389.737 101.239 400.498 102.498C410.253 103.639 420.006 104.797 429.761 105.934C431.831 106.175 433.906 106.361 436.143 106.555C437.244 106.647 438.181 106.758 439.267 106.86C441.991 107.845 444.819 108.448 447.094 109.908C453.778 114.197 456.374 120.581 455.518 128.391C455.002 133.102 454.393 137.803 453.808 142.655ZM245.76 108.461C247.329 110.83 251.076 110.991 253.062 109.295C255.076 107.574 255.442 104.617 253.841 102.397C252.24 100.178 249.268 99.7154 246.857 101.31C244.662 102.762 244.135 105.676 245.76 108.461ZM203.75 103.946C205.978 102.029 206.608 99.7167 205.505 97.505C204.473 95.4353 202.217 94.2766 200.04 94.7559C198.023 95.1998 196.626 96.37 196.101 98.415C195.58 100.439 196.112 102.206 197.697 103.549C199.473 105.054 201.463 105.097 203.75 103.946ZM227.202 107.023C230.658 104.839 230.958 100.463 227.797 98.3459C225.774 96.9903 223.175 97.2164 221.417 98.9011C219.753 100.496 219.428 103.231 220.661 105.259C221.864 107.237 224.315 107.972 227.202 107.023Z" fill="#0782C2"/>
<path d="M404.085 414.99C370.763 414.997 337.442 415.007 304.12 415.011C294.464 415.012 284.807 414.995 274.986 414.799C274.823 406.115 274.82 397.617 274.826 389.119C274.835 378.304 274.85 367.49 275.031 356.672C278.102 356.669 281.004 356.704 283.906 356.661C286.977 356.616 290.048 356.497 293.208 356.418C293.357 356.428 293.417 356.43 293.6 356.514C301.56 356.606 309.398 356.617 317.392 356.644C319.988 356.664 322.427 356.69 324.866 356.668C328.787 356.633 332.707 356.567 336.797 356.568C344.796 356.625 352.626 356.628 360.619 356.645C366.606 356.664 372.43 356.673 378.253 356.66C378.772 356.659 379.292 356.51 379.961 356.5C380.701 356.611 381.292 356.685 381.882 356.686C389.157 356.697 396.432 356.696 403.793 356.727C403.937 356.777 403.994 356.798 404.049 356.984C404.06 359.408 404.074 361.667 404.081 364.093C404.079 381.17 404.082 398.08 404.085 414.99Z" fill="#B5E0E9"/>
<path d="M16.6342 144.456C20.4825 140.223 25.0043 137.684 30.6941 137.064C34.4848 136.651 37.9833 137.336 41.4523 138.615C42.6548 139.058 43.3457 139.087 43.3232 137.459C43.1853 127.45 51.0748 118.723 60.7682 117.149C70.5271 115.565 79.3407 120.233 83.6741 128.99C84.523 130.705 84.9915 132.641 85.4051 134.526C85.6619 135.696 86.1233 136.059 87.2921 136.104C91.4068 136.259 95.1639 137.529 98.5782 139.871C105.221 144.428 108.524 153.36 106.245 161.001C105.239 164.373 101.089 167.526 96.5987 167.516C78.3527 167.478 60.1065 167.501 41.8604 167.501C35.3013 167.501 28.7422 167.505 22.1832 167.5C16.2389 167.495 11.8037 163.124 11.8101 157.271C11.8153 152.45 13.6111 148.286 16.6342 144.456Z" fill="#D8F0FA"/>
<path d="M567.282 183.213C544.506 183.213 521.907 183.031 499.314 183.32C492.187 183.411 484.955 178.574 485.63 169.665C485.806 167.341 486.372 165.293 487.71 163.397C489.781 160.463 492.825 159.209 496.151 158.616C499.733 157.977 503.358 157.953 506.913 158.938C507.992 159.237 509.059 159.612 510.09 160.051C511.105 160.485 511.576 160.331 511.818 159.155C513.639 150.3 518.509 143.809 526.741 139.816C530.8 137.848 535.027 136.994 539.473 137.159C547.367 137.451 553.825 140.737 559.008 146.65C561.956 150.012 563.966 153.815 564.842 158.208C564.933 158.661 565.155 159.087 565.25 159.344C568.322 159.079 571.25 158.749 574.187 158.588C581.254 158.2 585.998 164.398 585.933 170.381C585.891 174.133 584.831 177.337 582.144 180.009C579.848 182.294 576.959 183.004 573.899 183.187C571.76 183.315 569.607 183.213 567.282 183.213Z" fill="#D8F0FA"/>
<path d="M111.722 103.904C102.028 97.6056 96.4104 88.7077 94.8153 77.3039C93.5125 67.9896 95.3979 59.292 100.642 51.4966C107.311 41.5817 116.629 35.8117 128.646 34.6168C129.473 34.5346 130.302 34.4696 131.303 34.4571C131.475 34.5176 131.565 34.5238 131.565 34.5238L131.644 34.4769C131.941 34.4445 132.238 34.4121 132.747 34.5008C133.412 35.0023 133.893 35.3542 134.313 35.7679C137.213 38.6274 140.538 41.1862 142.887 44.4444C146.091 48.8885 148.193 53.9536 149.087 59.5202C150.247 66.7364 149.604 73.6866 146.871 80.4079C144.265 86.8185 139.976 91.9678 134.496 96.2066C129.656 99.9504 124.212 102.194 118.23 103.199C116.082 103.559 113.893 103.676 111.722 103.904Z" fill="#FEBF4E"/>
<path d="M207.199 407.833C211.18 408.528 214.594 410.49 217.853 412.724C218.244 412.992 218.137 413.985 218.223 414.758C213.099 414.922 208.012 414.975 202.925 415.014C201.15 415.028 199.374 415.004 197.429 414.812C197.041 411.822 197.009 409.103 196.291 406.238C191.197 385.9 186.53 365.456 181.697 345.053C181.265 343.231 180.613 341.462 180.059 339.543C180.042 338.957 180.12 338.474 180.007 338.04C177.325 327.69 174.573 317.357 171.941 306.994C170.402 300.934 169.037 294.829 167.633 288.735C167.542 288.341 167.783 287.869 168.035 287.398C175.139 287.514 182.079 287.666 189.121 287.822C189.552 287.802 189.881 287.777 190.364 287.698C190.736 287.653 190.953 287.662 191.27 287.746C191.672 289.406 192.059 290.98 192.26 292.577C192.988 298.377 193.674 304.183 194.337 309.991C194.866 314.629 195.333 319.274 195.839 323.914C196.531 330.255 197.229 336.594 197.935 342.933C198.367 346.806 198.839 350.674 199.257 354.548C199.669 358.367 200.085 362.187 200.412 366.013C200.836 370.964 201.174 375.921 201.547 380.876C202.129 388.6 202.76 396.32 203.27 404.049C203.508 407.657 202.369 407.925 207.199 407.833Z" fill="#0782C2"/>
<path d="M111.771 104.013C113.893 103.675 116.082 103.559 118.23 103.198C124.212 102.194 129.656 99.9499 134.496 96.206C139.976 91.9672 144.264 86.818 146.871 80.4074C149.604 73.6861 150.247 66.7359 149.087 59.5197C148.193 53.9531 146.091 48.888 142.887 44.4438C140.538 41.1856 137.213 38.6269 134.312 35.7674C133.893 35.3537 133.412 35.0018 132.894 34.5359C140.766 34.4125 147.989 36.7667 154.346 41.4071C164.657 48.9335 170.122 59.1943 170.271 71.9553C170.491 90.771 156.952 106.644 138.325 109.602C128.844 111.107 119.98 109.201 111.771 104.013Z" fill="#FFA051"/>
<path d="M180.064 339.668C180.613 341.462 181.265 343.232 181.696 345.053C186.53 365.456 191.197 385.9 196.291 406.238C197.009 409.103 197.041 411.822 197.267 414.79C190.306 414.97 183.339 414.986 176.272 414.86C176.949 413.582 176.463 412.83 175.391 412.315C172.047 410.71 168.692 409.126 165.387 407.398C165.524 406.92 165.631 406.58 165.707 406.234C168.576 393.211 171.478 380.195 174.298 367.161C176.278 358.009 178.146 348.833 180.064 339.668Z" fill="#B5E0E9"/>
<path d="M86.0599 414.994C81.7739 413.455 81.8472 409.69 81.2985 406.295C79.9749 398.106 78.7046 389.909 77.5747 381.572C87.9839 381.43 98.2313 381.429 108.479 381.43C110.638 381.43 110.889 381.702 110.555 383.758C110.082 386.668 109.576 389.573 109.104 392.483C108.275 397.603 107.484 402.729 106.633 407.845C106.131 410.866 105.484 413.834 102.016 414.957C96.7536 414.97 91.491 414.984 86.0599 414.994Z" fill="#FEBF4E"/>
<path d="M451.506 414.984C451.331 411.786 451.363 408.598 451.29 405.414C451.263 404.229 451.701 403.876 452.839 403.915C454.906 403.987 456.978 403.939 459.384 403.961C468.105 403.98 476.489 403.986 484.873 403.976C493.613 403.965 502.353 403.938 511.179 403.958C511.322 404.027 511.378 404.056 511.438 404.243C511.451 407.911 511.461 411.422 511.471 414.933C509.866 414.956 508.26 414.998 506.655 414.999C488.327 415.002 470 414.998 451.506 414.984Z" fill="#7ACAE8"/>
<path d="M102.182 414.979C105.484 413.834 106.131 410.866 106.634 407.846C107.484 402.729 108.276 397.603 109.105 392.483C109.576 389.573 110.082 386.669 110.555 383.759C110.889 381.702 110.638 381.43 108.479 381.43C98.2316 381.429 87.9843 381.43 77.5779 381.431C77.1081 379.599 76.7972 377.767 76.4468 375.701C80.165 375.701 83.5842 375.701 87.3257 375.699C88.3814 375.682 89.1147 375.667 89.9839 375.675C90.4858 375.684 90.8516 375.669 91.2175 375.654C91.616 375.671 92.0145 375.687 92.6798 375.699C93.106 375.682 93.2654 375.67 93.5683 375.68C94.1002 375.69 94.4887 375.677 94.8772 375.664C96.1865 375.678 97.4958 375.692 99.1037 375.703C99.6745 375.685 99.9468 375.67 100.367 375.678C101.019 375.689 101.522 375.676 102.025 375.662C103.219 375.673 104.413 375.684 105.928 375.697C107.112 375.685 107.974 375.669 109 375.676C111.766 375.688 114.366 375.677 116.967 375.666C118.921 375.666 120.874 375.666 123.055 375.666C122.566 378.9 122.129 381.919 121.65 384.931C120.356 393.065 119.015 401.193 117.755 409.333C117.367 411.844 116.455 413.876 113.773 414.861C109.895 414.961 106.121 414.981 102.182 414.979Z" fill="#FFA051"/>
<path d="M260.017 414.997C259.846 398.076 259.841 381.165 260.01 364.09C263.101 363.927 266.017 363.925 268.934 363.929C271.28 363.932 271.297 363.935 271.282 366.324C271.178 382.526 271.067 398.728 270.958 414.93C267.367 414.956 263.775 414.982 260.017 414.997Z" fill="#7ACAE8"/>
<path d="M404.252 415.002C404.082 398.079 404.079 381.17 404.248 364.094C407.044 363.928 409.674 364.03 412.291 363.891C413.991 363.801 414.502 364.292 414.496 366.041C414.433 382.348 414.464 398.655 414.468 414.963C411.118 414.98 407.768 414.997 404.252 415.002Z" fill="#7ACAE8"/>
<path d="M414.631 414.983C414.464 398.655 414.433 382.348 414.496 366.041C414.502 364.292 413.991 363.801 412.291 363.891C409.674 364.03 407.044 363.927 404.253 363.926C404.073 361.666 404.06 359.408 404.218 356.961C409.267 356.759 414.145 356.745 419.024 356.73C418.95 375.078 418.875 393.425 418.804 411.772C418.8 412.763 418.837 413.755 418.799 414.87C417.427 414.996 416.11 415 414.631 414.983Z" fill="#4BB4D6"/>
<path d="M271.118 414.958C271.067 398.728 271.178 382.527 271.282 366.325C271.297 363.936 271.28 363.932 268.934 363.929C266.017 363.925 263.101 363.927 260.017 363.923C259.833 361.631 259.816 359.342 259.925 356.832C260.7 356.572 261.348 356.501 261.997 356.495C266.027 356.461 270.057 356.442 274.138 356.473C274.414 356.578 274.638 356.627 274.862 356.676C274.85 367.49 274.834 378.305 274.826 389.119C274.82 397.617 274.823 406.115 274.816 414.775C273.633 414.953 272.455 414.97 271.118 414.958Z" fill="#4BB4D6"/>
<path d="M167.308 203.095C165.07 198.9 165.425 194.595 166.739 190.109C167.457 188.423 168.196 186.876 169.05 185.145C169.239 184.756 169.314 184.549 169.389 184.343C169.389 184.343 169.38 184.332 169.385 184.34C171.884 180.713 175.658 179.999 179.69 179.784C180.969 179.715 182.229 179.292 183.508 179.224C186.152 179.085 188.808 178.968 191.449 179.08C192.195 179.112 192.904 179.972 193.51 180.564C191.044 180.678 188.676 180.483 186.359 180.738C184.185 180.977 182.35 182.079 181.32 184.303C180.445 184.667 179.705 185.006 178.846 185.296C176.994 184.446 174.631 184.991 173.338 186.595C170.234 190.446 171.366 194.764 172.206 198.952C172.916 202.494 175.286 204.96 178.227 206.973C176.916 207.63 175.653 208.172 174.263 208.662C171.288 207.476 168.986 205.67 167.308 203.095Z" fill="#08576F"/>
<path d="M511.635 414.957C511.461 411.422 511.451 407.911 511.605 404.212C514.827 403.982 517.885 403.94 520.944 403.898C522.774 403.915 524.607 403.988 526.435 403.926C527.589 403.887 527.987 404.279 527.959 405.444C527.886 408.507 527.92 411.572 527.894 414.801C522.518 414.97 517.159 414.976 511.635 414.957Z" fill="#4BB4D6"/>
<path d="M165.342 407.531C168.692 409.124 172.047 410.708 175.392 412.314C176.464 412.828 176.949 413.58 176.102 414.833C169.251 414.971 162.47 414.991 155.524 414.995C155.331 412.628 155.304 410.277 155.419 407.732C158.822 407.535 162.082 407.533 165.342 407.531Z" fill="#0782C2"/>
<path d="M169.275 184.383C169.314 184.55 169.239 184.757 169.07 185.024C169.037 184.864 169.099 184.643 169.275 184.383Z" fill="#D8F0FA"/>
<path d="M451.999 163.131C451.939 163.148 451.839 163.088 451.706 162.946C451.791 162.893 451.886 162.957 451.999 163.131Z" fill="#D8F0FA"/>
<path d="M131.588 34.4499C131.643 34.4757 131.564 34.5223 131.564 34.5223C131.564 34.5223 131.475 34.5162 131.45 34.4989C131.426 34.4816 131.533 34.4241 131.588 34.4499Z" fill="#FFA051"/>
<path d="M563.825 27.0556C567.804 19.1121 573.972 13.9393 582.53 12.0927C589.198 10.6539 595.703 11.5234 601.784 14.9611C608.8 18.9281 613.077 24.854 614.893 32.6104C615.204 33.938 616.08 33.7128 616.951 33.6454C619.644 33.437 622.336 33.0094 625.028 33.0137C632.283 33.0253 636.923 39.8296 635.907 46.7308C635.332 50.6359 633.557 53.8418 630.07 55.7984C628.674 56.5821 626.958 57.2045 625.385 57.2096C599.096 57.2963 572.806 57.3143 546.517 57.2327C542.364 57.2198 539.337 54.9865 537.274 51.3462C534.715 46.8333 534.816 42.4042 537.58 38.1156C539.156 35.6702 541.421 33.9942 544.375 33.3144C549.852 32.0539 555.199 32.2042 560.388 34.5237C561.545 35.0407 561.687 34.2297 561.912 33.4603C562.523 31.3639 563.144 29.2702 563.825 27.0556Z" fill="#D8F0FA"/>
<path d="M191.17 287.671C190.953 287.662 190.736 287.653 190.273 287.649C189.692 287.708 189.355 287.763 189.019 287.817C182.079 287.666 175.139 287.515 167.907 287.335C164.153 287.074 160.691 286.84 157.23 286.607C157.204 286.534 157.178 286.462 157.131 286.103C157.352 281.046 157.593 276.276 157.904 271.371C158.031 270.886 158.117 270.539 158.143 270.188C158.599 264.105 159.064 258.022 159.49 251.937C159.739 248.38 159.924 244.819 160.138 241.26C159.284 241.61 158.78 242.17 158.283 242.738C156.212 245.105 154.151 247.481 152.072 249.841C149.133 253.177 149.179 253.148 151.059 257.145C152.697 260.625 154.202 264.167 155.747 267.849C155.471 271.306 155.271 274.601 154.93 277.882C154.803 279.11 154.347 280.305 154.041 281.515C152.353 279.239 150.592 277.013 148.992 274.677C143.893 267.234 138.885 259.729 133.759 252.304C133.007 251.215 133.026 250.399 133.704 249.42C138.773 242.103 143.752 234.721 148.941 227.49C152.128 223.048 155.55 218.733 160.669 216.271C162.217 215.527 163.859 214.977 165.733 214.299C168.793 214.038 171.577 213.817 174.494 213.652C178.625 213.752 182.624 213.796 186.766 213.839C188.459 213.487 190.118 213.378 191.54 212.742C196.963 210.317 202.317 207.738 207.679 205.179C208.871 204.61 209.991 203.891 211.364 203.117C210.515 202.498 209.991 201.998 209.372 201.684C206.618 200.285 203.874 198.859 201.056 197.598C198.359 196.39 195.575 195.374 192.726 194.211C191.335 193.602 190.048 193.054 188.644 192.44C186.976 191.682 185.425 190.99 183.904 190.172C184.657 188.61 185.382 187.175 186.257 185.715C188.702 186.14 190.996 186.589 193.289 187.039C202.267 189.918 211.245 192.796 220.435 195.781C223.954 197.717 227.261 199.547 230.454 201.435C226.391 205.312 222.486 209.182 218.48 212.943C211.435 219.558 203.949 225.645 196.129 231.328C194.853 232.255 193.699 233.332 193.611 235.164C193.448 238.586 193.107 241.999 192.927 245.42C192.536 252.804 192.136 260.188 191.863 267.577C191.642 273.562 191.591 279.554 191.5 285.543C191.49 286.171 191.72 286.802 191.733 287.488C191.475 287.586 191.323 287.628 191.17 287.671Z" fill="#FEBF4E"/>
<path d="M295.089 244.514C288.033 240.907 284.572 235.136 284.167 227.474C283.801 220.564 285.135 213.781 285.864 206.954C286.354 202.366 286.88 197.781 287.406 193.197C287.871 189.142 288.328 185.085 288.843 181.036C289.41 176.577 289.858 172.092 290.687 167.679C291.749 162.02 294.358 157.168 299.204 153.75C301.891 151.857 304.936 150.75 308.155 150.486C314.736 149.945 321.099 150.753 326.811 154.454C331.812 157.695 334.104 162.502 335.037 168.202C335.947 173.767 334.687 179.187 334.176 184.653C333.735 189.363 333.069 194.051 332.505 198.75C331.813 204.505 331.142 210.263 330.426 216.015C329.835 220.769 329.452 225.568 328.507 230.254C327.24 236.54 324.086 241.729 318.188 244.852C314.051 247.042 309.546 247.58 305.024 246.991C301.704 246.558 298.478 245.405 295.089 244.514ZM313.457 228.932C313.984 225.366 314.572 221.808 315.024 218.232C315.879 211.482 316.653 204.721 317.464 197.966C318.021 193.325 318.631 188.691 319.13 184.045C319.592 179.75 320.037 175.449 320.296 171.139C320.452 168.531 319.337 166.353 316.942 165.099C314.211 163.669 311.361 163.38 308.633 165.075C305.792 166.841 305.335 169.863 304.964 172.819C304.374 177.518 303.933 182.234 303.368 186.936C302.741 192.163 302.018 197.378 301.388 202.605C300.545 209.595 299.659 216.581 298.997 223.589C298.819 225.477 299.058 227.547 299.679 229.336C300.791 232.542 303.757 233.368 306.746 233.463C309.785 233.559 312.053 232.001 313.457 228.932Z" fill="#7ACAE8"/>
<path d="M397.66 228.262C400.309 233.816 397.693 237.921 390.883 238.752C390.516 241.723 390.046 244.749 389.791 247.794C389.455 251.811 386.179 255.076 382.312 254.96C378.263 254.838 374.638 251.388 375.073 247.32C375.387 244.378 375.695 241.436 376.004 238.495C376.053 238.031 376.093 237.567 376.152 236.94C372.774 236.524 369.498 236.111 366.219 235.72C362.098 235.227 357.958 234.86 353.857 234.238C350.202 233.683 347.896 230.159 348.501 226.494C348.655 225.561 348.741 224.606 348.748 223.661C348.776 220.153 350.666 217.365 352.296 214.492C358.626 203.333 364.994 192.196 371.349 181.051C374.291 175.891 377.231 170.731 380.178 165.574C384.514 157.987 394.031 159.244 397.391 164.977C398.655 167.133 398.955 169.46 398.676 171.858C397.787 179.498 396.804 187.127 395.908 194.766C395.13 201.408 394.429 208.059 393.676 214.705C393.35 217.584 392.986 220.46 392.624 223.335C392.487 224.418 392.847 224.944 393.941 225.448C395.289 226.068 396.39 227.221 397.66 228.262ZM365.636 216.824C365.05 217.858 364.417 218.868 363.896 219.933C363.567 220.607 363.147 221.576 364.367 221.742C368.419 222.293 372.484 222.759 376.554 223.151C376.977 223.192 377.752 222.6 377.873 222.166C378.171 221.097 378.179 219.947 378.311 218.831C378.87 214.135 379.443 209.44 379.988 204.742C380.578 199.662 381.142 194.58 381.717 189.499C381.583 189.442 381.45 189.386 381.316 189.329C376.14 198.422 370.963 207.516 365.636 216.824Z" fill="#7ACAE8"/>
<path d="M230.567 201.377C227.26 199.547 223.954 197.716 220.566 195.791C228.336 181.92 236.191 168.145 244.037 154.365C244.831 152.971 245.586 151.555 246.342 150.14C248.594 145.922 252.899 143.988 257.77 145.018C261.802 145.871 265.161 149.91 265.097 154.446C265.052 157.682 264.399 160.91 264.018 164.143C263.464 168.845 262.914 173.548 262.356 178.25C261.799 182.951 261.226 187.651 260.677 192.353C260.148 196.88 259.64 201.409 259.124 205.938C258.997 207.048 258.877 208.159 258.756 209.254C262.964 210.347 265.348 212.987 264.846 217.592C264.501 220.757 262.014 222.658 257.161 223.35C256.754 226.413 256.331 229.505 255.935 232.601C255.366 237.059 251.683 239.952 247.461 239.238C243.319 238.537 240.577 234.432 241.335 230.213C241.742 227.944 241.94 225.638 242.293 223.359C242.542 221.753 241.926 221.207 240.304 221.032C233.406 220.288 226.524 219.4 219.637 218.552C219.351 218.517 219.081 218.356 218.737 218.094C222.363 213.938 226.056 209.942 229.893 205.994C233.973 206.532 237.931 206.897 241.836 207.567C243.651 207.878 244.218 207.221 244.386 205.665C244.76 202.194 245.123 198.721 245.528 195.253C246.077 190.552 246.671 185.857 247.227 181.157C247.514 178.734 247.759 176.305 248.023 173.879C247.375 174.252 247.008 174.694 246.727 175.185C243.774 180.338 240.815 185.488 237.898 190.662C235.711 194.54 233.583 198.451 231.354 202.262C231.041 201.91 230.804 201.644 230.567 201.377Z" fill="#7ACAE8"/>
<path d="M229.75 205.945C226.057 209.941 222.364 213.937 218.601 218.032C214.937 221.411 211.372 224.726 207.737 227.961C205.607 229.858 203.304 231.563 201.209 233.495C200.568 234.085 200.001 235.143 200.004 235.985C200.049 247.691 200.199 259.396 200.349 271.266C200.393 275.944 200.441 280.456 200.394 284.968C200.388 285.519 199.875 286.064 199.317 286.672C196.637 286.966 194.237 287.198 191.838 287.431C191.72 286.801 191.49 286.17 191.5 285.542C191.591 279.553 191.642 273.561 191.863 267.576C192.136 260.187 192.536 252.803 192.927 245.419C193.108 241.998 193.448 238.585 193.611 235.163C193.699 233.331 194.853 232.253 196.129 231.327C203.949 225.644 211.435 219.557 218.48 212.942C222.486 209.18 226.391 205.311 230.454 201.434C230.804 201.643 231.041 201.909 231.346 202.376C230.86 203.7 230.305 204.822 229.75 205.945Z" fill="#FCA63C"/>
<path d="M404.092 309.207C398.939 305.186 397.042 300.153 398.587 294.424C400.66 287.269 407.785 283.54 414.185 285.048C419.773 286.365 423.084 289.978 424.521 295.587C425.101 300.193 423.963 304.138 420.786 307.412C420.296 307.917 419.705 308.322 418.99 308.923C417.353 309.715 415.887 310.358 414.257 310.999C410.549 311.566 407.224 310.925 404.092 309.207ZM406.555 301.599C409.086 304.461 413.064 304.806 415.507 302.375C418.14 299.755 418.033 295.811 415.263 293.393C413.233 291.62 409.834 291.552 407.655 293.239C405.198 295.142 404.714 298.245 406.555 301.599Z" fill="#FBBF50"/>
<path d="M193.335 186.923C190.996 186.588 188.702 186.139 186.154 185.634C184.418 185.145 182.938 184.712 181.457 184.279C182.35 182.079 184.185 180.977 186.359 180.738C188.677 180.483 191.044 180.678 193.544 180.687C195.06 182.81 194.093 184.803 193.335 186.923Z" fill="#01668F"/>
<path d="M157.221 286.752C160.692 286.84 164.153 287.074 167.742 287.371C167.783 287.869 167.542 288.341 167.633 288.735C169.037 294.829 170.402 300.934 171.941 306.994C174.573 317.357 177.325 327.69 180.007 338.04C180.12 338.474 180.042 338.957 180.059 339.543C178.146 348.833 176.278 358.009 174.298 367.161C171.478 380.195 168.576 393.211 165.707 406.234C165.631 406.58 165.524 406.92 165.387 407.398C162.082 407.535 158.822 407.537 155.389 407.576C155.062 407.206 154.771 406.797 154.777 406.392C154.867 399.739 155.02 393.088 155.11 386.435C155.36 367.9 155.627 349.365 155.806 330.828C155.887 322.456 155.583 314.076 155.811 305.71C155.982 299.431 156.724 293.168 157.221 286.752Z" fill="#01668F"/>
<path d="M93.4246 375.658C93.2652 375.67 93.1058 375.682 92.8275 375.674C92.7104 371.966 92.5711 368.27 92.747 364.589C93.0085 359.117 91.0961 354.327 88.3549 349.808C85.1621 344.545 81.416 339.578 78.6472 334.11C76.9034 330.667 76.16 326.592 75.6016 322.709C74.8876 317.746 74.4297 312.68 74.5582 307.677C74.717 301.491 75.5911 295.323 76.3547 289.061C76.6684 289.103 76.8545 289.217 76.8884 289.365C78.4825 296.334 79.7821 303.385 81.7382 310.25C83.2061 315.401 85.3549 320.383 87.5012 325.31C89.288 329.412 91.6188 333.275 93.5171 337.333C96.2465 343.168 96.6723 349.401 95.3447 355.565C93.9106 362.223 93.1738 368.875 93.4246 375.658Z" fill="#7ACAE8"/>
<path d="M93.5682 375.679C93.1739 368.874 93.9108 362.222 95.3448 355.564C96.6724 349.4 96.2467 343.167 93.5173 337.332C91.619 333.274 89.2882 329.411 87.5014 325.309C85.3551 320.382 83.2063 315.4 81.7384 310.249C79.7823 303.384 78.4827 296.333 76.8886 289.364C76.8546 289.216 76.6686 289.103 76.4263 288.93C76.3018 288.646 76.3044 288.405 76.4232 288.039C76.7857 288.02 77.0322 288.125 77.2787 288.231C82.0505 296.377 86.9962 304.427 91.5345 312.7C94.6944 318.461 97.7774 324.351 100.019 330.501C102.59 337.557 101.457 344.904 99.6852 352.079C98.2503 357.889 96.7648 363.688 95.4468 369.524C95.0203 371.413 95.0532 373.405 94.8766 375.507C94.4887 375.676 94.1002 375.689 93.5682 375.679Z" fill="#4BB4D6"/>
<path d="M102.041 375.529C101.522 375.677 101.019 375.69 100.366 375.518C100.612 372.656 100.645 369.86 101.473 367.324C103.859 360.016 108.875 354.602 114.988 350.18C118.91 347.344 121.967 343.788 124.493 339.74C127.659 334.666 129.681 329.108 131.097 323.331C131.477 321.786 131.542 320.164 131.752 318.577C131.877 318.079 132.003 317.581 132.21 316.902C132.366 316.636 132.408 316.537 132.417 316.424C132.625 316.53 133.003 316.619 133.016 316.745C133.185 318.394 133.375 320.047 133.419 321.702C133.621 329.188 133.258 336.604 131.356 343.921C129.468 351.189 125.103 356.229 118.518 359.662C115.263 361.359 112.16 363.368 109.09 365.391C105.461 367.783 102.63 370.821 102.041 375.529Z" fill="#4BB4D6"/>
<path d="M89.8479 375.652C89.1146 375.667 88.3814 375.682 87.4923 375.675C86.978 370.645 84.5974 366.93 80.3818 364.178C75.6764 361.105 71.0187 357.939 66.5309 354.562C62.6453 351.638 59.0929 348.348 57.0897 343.688C54.993 338.81 55.7689 334.002 57.3797 329.323C58.6445 325.649 60.5164 322.183 62.1397 318.634C62.2238 318.45 62.5056 318.357 62.8371 318.35C62.6288 320.927 61.9846 323.377 61.9892 325.825C61.9993 331.153 63.2331 336.231 65.7918 340.984C69.1549 347.231 73.8912 352.085 79.9071 355.839C83.9438 358.357 87.2549 361.59 88.7312 366.359C89.6755 369.41 89.9879 372.493 89.8479 375.652Z" fill="#7ACAE8"/>
<path d="M89.9839 375.675C89.988 372.492 89.6756 369.409 88.7312 366.358C87.2549 361.589 83.9439 358.357 79.9072 355.838C73.8912 352.085 69.155 347.23 65.7918 340.983C63.2331 336.23 61.9994 331.152 61.9893 325.824C61.9847 323.376 62.6289 320.927 62.9621 318.327C64.6714 315.456 66.3973 312.737 68.2426 310.009C68.3618 310.001 68.3524 309.994 68.3524 309.994C68.2332 314.366 67.7531 318.766 68.0905 323.103C68.4698 327.977 69.4378 332.825 70.4679 337.617C70.806 339.19 71.895 340.79 73.0608 341.962C76.582 345.5 80.3243 348.818 83.9532 352.251C88.7542 356.792 92.0819 362.02 91.6275 368.971C91.4885 371.099 91.3683 373.228 91.2285 375.505C90.8517 375.669 90.4858 375.684 89.9839 375.675Z" fill="#4BB4D6"/>
<path d="M131.634 318.619C131.542 320.163 131.476 321.785 131.097 323.33C129.68 329.107 127.659 334.665 124.493 339.739C121.967 343.787 118.91 347.343 114.988 350.18C108.875 354.601 103.859 360.015 101.473 367.323C100.644 369.86 100.612 372.655 100.217 375.493C99.9463 375.67 99.6741 375.685 99.2658 375.682C97.8978 367.393 99.2536 359.655 104.388 352.916C107.833 348.393 111.678 344.176 115.278 339.769C119.776 334.261 124.236 328.723 128.644 323.143C129.738 321.757 130.566 320.161 131.634 318.619Z" fill="#7ACAE8"/>
<path d="M117.042 375.569C114.366 375.678 111.765 375.689 109.052 375.575C110.519 373.957 111.86 371.987 113.721 371.061C119.251 368.312 123.855 364.491 127.921 359.967C129.029 358.734 129.761 357.164 130.665 355.748C130.665 355.748 130.656 355.716 130.784 355.713C131.178 355.354 131.444 355 131.71 354.645C133.062 352.636 134.414 350.626 135.766 348.617C135.872 348.639 135.978 348.66 136.084 348.681C135.72 350.163 135.418 351.662 134.981 353.122C132.112 362.699 126.388 370.044 117.685 375.045C117.482 375.162 117.306 375.328 117.042 375.569Z" fill="#4BB4D6"/>
<path d="M130.551 355.783C129.761 357.162 129.029 358.732 127.921 359.965C123.855 364.49 119.251 368.311 113.722 371.06C111.86 371.986 110.519 373.955 108.888 375.55C107.974 375.668 107.112 375.684 106.089 375.675C107.489 371.068 110.257 367.196 114.927 365.904C120.49 364.365 124.801 361.291 128.764 357.409C129.313 356.871 129.879 356.349 130.551 355.783Z" fill="#7ACAE8"/>
<path d="M174.301 213.624C171.37 213.845 168.439 214.067 165.353 214.286C165.673 210.623 166.148 206.962 166.75 203.215C168.643 205.703 171.066 207.508 174.183 208.849C174.302 210.578 174.301 212.101 174.301 213.624Z" fill="#D8F0FA"/>
<path d="M157.836 271.506C157.594 276.276 157.352 281.046 157.104 285.99C156.105 284.698 155.111 283.232 154.079 281.64C154.347 280.304 154.803 279.11 154.93 277.881C155.272 274.601 155.472 271.305 155.838 267.943C156.577 269.083 157.206 270.295 157.836 271.506Z" fill="#FCA63C"/>
<path d="M131.589 354.658C131.445 355 131.179 355.355 130.794 355.727C130.94 355.386 131.203 355.028 131.589 354.658Z" fill="#7ACAE8"/>
<path d="M77.2769 288.112C77.0319 288.127 76.7854 288.022 76.4404 287.921C76.4456 287.71 76.5493 287.493 76.653 287.275C76.8605 287.514 77.068 287.753 77.2769 288.112Z" fill="#7ACAE8"/>
<path d="M68.3656 310.005C68.4055 309.857 68.4413 309.705 68.4771 309.553C68.4859 309.676 68.4948 309.799 68.4278 309.959C68.3519 309.994 68.3614 310.001 68.3656 310.005Z" fill="#4BB4D6"/>
<path d="M132.344 316.469C132.408 316.537 132.366 316.636 132.23 316.774C132.142 316.702 132.176 316.598 132.344 316.469Z" fill="#7ACAE8"/>
<path d="M461.068 399.653C462.966 395.034 464.864 390.414 467.028 385.722C473.676 385.652 480.056 385.667 486.437 385.654C492.04 385.642 497.643 385.599 503.359 385.604C503.627 385.67 503.781 385.702 503.949 385.864C505.857 390.541 507.753 395.088 509.481 399.637C493.232 399.643 477.15 399.648 461.068 399.653Z" fill="#FEBF4E"/>
<path d="M443.895 324.268C443.954 324.854 444.064 325.44 444.065 326.026C444.076 335.535 444.031 345.044 444.11 354.552C444.125 356.303 443.573 356.761 441.874 356.728C435.686 356.609 429.495 356.636 423.2 356.42C423.427 355.463 423.759 354.694 424.171 353.827C425.397 351.412 426.544 349.095 427.778 346.688C428.413 345.482 428.958 344.366 429.507 343.251C432.617 336.939 435.727 330.627 438.903 324.304C438.969 324.294 439.1 324.266 439.269 324.274C440.923 324.277 442.409 324.272 443.895 324.268Z" fill="#FCC253"/>
<path d="M503.246 385.569C497.643 385.598 492.04 385.642 486.437 385.653C480.056 385.667 473.676 385.651 467.112 385.629C468.232 382.33 469.535 379.049 471.091 375.678C478.402 375.58 485.46 375.584 492.518 375.561C494.884 375.553 497.25 375.478 499.701 375.492C499.846 375.586 499.906 375.621 499.971 375.801C500.179 376.614 500.359 377.29 500.587 377.95C501.465 380.493 502.358 383.03 503.246 385.569Z" fill="#0782C2"/>
<path d="M400.781 313.925C401.682 313.903 402.583 313.882 403.809 313.878C409.103 313.872 414.071 313.849 419.039 313.826C420.802 313.851 422.566 313.875 424.468 314.063C423 317.574 421.392 320.92 419.716 324.279C419.647 324.291 419.512 324.322 419.341 324.311C411.388 324.293 403.605 324.285 395.834 324.148C397.491 320.655 399.136 317.29 400.781 313.925Z" fill="#FCA63C"/>
<path d="M460.995 399.76C477.15 399.649 493.232 399.644 509.486 399.641C509.658 399.642 509.666 399.65 509.667 399.785C510.142 401.253 510.617 402.586 511.092 403.919C502.353 403.939 493.613 403.966 484.873 403.977C476.489 403.987 468.105 403.981 459.54 403.962C459.88 402.583 460.4 401.225 460.995 399.76Z" fill="#FCA63C"/>
<path d="M499.616 375.434C497.25 375.479 494.884 375.554 492.518 375.562C485.46 375.585 478.403 375.581 471.176 375.576C472.079 372.949 473.151 370.334 474.434 367.6C481.786 367.469 488.927 367.454 496.157 367.47C496.305 367.519 496.364 367.539 496.438 367.687C497.508 370.355 498.562 372.895 499.616 375.434Z" fill="#FBBF50"/>
<path d="M419.784 324.268C421.392 320.921 423 317.575 424.646 314.098C430.614 313.982 436.545 313.985 442.475 314.034C442.92 314.037 443.363 314.369 443.705 314.752C443.528 315.192 443.454 315.428 443.283 315.742C441.824 318.635 440.462 321.45 439.1 324.266C439.1 324.266 438.969 324.293 438.733 324.294C432.259 324.286 426.022 324.277 419.784 324.268Z" fill="#01668F"/>
<path d="M485.173 341.378C485.548 340.318 485.916 339.257 486.298 338.2C486.914 336.497 488.187 335.655 489.949 335.583C491.739 335.51 493.027 336.313 493.723 337.994C495.694 342.757 497.676 347.515 499.632 352.284C500.281 353.867 500.863 355.477 501.307 357.236C498.245 357.438 495.352 357.478 492.347 357.486C492.083 357.423 491.93 357.393 491.771 357.231C491.58 356.417 491.466 355.706 491.203 355.056C489.57 351.016 487.918 346.983 486.232 342.965C485.99 342.389 485.531 341.904 485.173 341.378Z" fill="#FCA63C"/>
<path d="M491.778 357.363C491.93 357.393 492.082 357.423 492.353 357.624C492.706 358.515 492.911 359.247 493.18 359.954C494.131 362.454 495.103 364.946 496.068 367.441C488.927 367.455 481.786 367.469 474.487 367.48C475.673 364.179 477.016 360.881 478.625 357.509C483.187 357.412 487.482 357.388 491.778 357.363Z" fill="#0782C2"/>
<path d="M509.653 399.639C507.753 395.088 505.857 390.542 504.114 385.833C507.26 385.648 510.253 385.624 513.247 385.6C515.163 390.189 517.079 394.779 518.821 399.507C515.653 399.647 512.66 399.649 509.666 399.651C509.666 399.651 509.658 399.643 509.653 399.639Z" fill="#FCA63C"/>
<path d="M491.771 357.232C487.482 357.388 483.187 357.412 478.726 357.423C479.515 354.947 480.436 352.471 481.43 350.025C482.584 347.181 483.802 344.362 485.082 341.455C485.531 341.905 485.99 342.39 486.231 342.965C487.917 346.984 489.57 351.016 491.203 355.056C491.466 355.707 491.58 356.417 491.771 357.232Z" fill="#FBBF50"/>
<path d="M513.225 385.475C510.253 385.623 507.259 385.647 504.101 385.703C503.781 385.702 503.627 385.671 503.359 385.604C502.358 383.03 501.465 380.493 500.587 377.951C500.359 377.291 500.179 376.615 500.139 375.763C503.159 375.562 506.018 375.544 508.876 375.525C510.2 378.471 511.526 381.417 512.845 384.365C512.987 384.683 513.085 385.022 513.225 385.475Z" fill="#01668F"/>
<path d="M496.157 367.47C495.103 364.945 494.131 362.454 493.18 359.954C492.911 359.246 492.706 358.514 492.465 357.656C495.352 357.478 498.245 357.438 501.311 357.369C502.902 360.633 504.321 363.925 505.573 367.36C502.412 367.521 499.417 367.54 496.423 367.559C496.364 367.539 496.305 367.519 496.157 367.47Z" fill="#01668F"/>
<path d="M496.438 367.686C499.417 367.539 502.411 367.521 505.575 367.494C506.803 370.081 507.861 372.676 508.897 375.398C506.017 375.543 503.159 375.561 500.133 375.618C499.906 375.621 499.846 375.586 499.701 375.492C498.561 372.894 497.507 370.354 496.438 367.686Z" fill="#FCA63C"/>
<path d="M424.092 353.924C423.759 354.693 423.427 355.462 423.067 356.358C421.799 356.542 420.558 356.601 419.171 356.695C414.145 356.745 409.267 356.759 404.219 356.796C403.994 356.798 403.937 356.777 403.813 356.606C404.235 355.496 404.723 354.537 405.355 353.598C406.018 353.721 406.537 353.911 407.056 353.913C411.754 353.936 416.453 353.927 421.151 353.927C422.131 353.927 423.111 353.925 424.092 353.924Z" fill="#0784C2"/>
<path d="M509.667 399.785C512.66 399.648 515.653 399.646 518.816 399.645C518.986 399.644 519.029 399.778 519.027 399.939C519.111 400.187 519.198 400.275 519.285 400.363C519.823 401.464 520.362 402.565 520.922 403.783C517.885 403.941 514.827 403.983 511.601 404.055C511.378 404.057 511.322 404.028 511.179 403.958C510.617 402.586 510.142 401.253 509.667 399.785Z" fill="#F68D3D"/>
<path d="M419.046 313.668C414.071 313.85 409.103 313.872 403.979 313.871C403.908 313.592 403.994 313.338 404.26 312.979C407.734 312.874 411.027 312.874 414.422 312.874C414.422 312.05 414.422 311.525 414.422 310.999C415.888 310.357 417.353 309.715 418.927 309.031C419.04 310.497 419.046 312.003 419.046 313.668Z" fill="#4BB4D6"/>
<path d="M439.269 324.273C440.462 321.45 441.824 318.635 443.409 315.758C443.715 315.705 443.799 315.713 443.883 315.72C443.924 318.464 443.965 321.207 443.95 324.109C442.409 324.272 440.923 324.276 439.269 324.273Z" fill="#FCA63C"/>
<path d="M443.944 315.642C443.798 315.712 443.714 315.704 443.505 315.68C443.454 315.427 443.528 315.191 443.712 314.887C443.883 315.067 443.944 315.316 443.944 315.642Z" fill="#FCC253"/>
<path d="M519.24 400.284C519.198 400.275 519.112 400.187 519.006 400.006C519.057 400.01 519.126 400.108 519.24 400.284Z" fill="#FCA63C"/>
<path d="M191.733 287.488C194.238 287.2 196.637 286.967 199.195 286.746C200.797 300.77 202.407 314.769 203.625 328.801C204.513 339.039 205.034 349.315 205.453 359.585C206.068 374.674 206.445 389.773 206.932 404.867C206.961 405.757 207.072 406.644 207.172 407.683C202.369 407.926 203.508 407.657 203.27 404.049C202.76 396.32 202.129 388.6 201.547 380.876C201.174 375.921 200.836 370.964 200.412 366.013C200.085 362.187 199.669 358.367 199.257 354.548C198.839 350.674 198.367 346.806 197.935 342.933C197.229 336.594 196.531 330.255 195.839 323.915C195.333 319.274 194.867 314.629 194.337 309.991C193.674 304.183 192.988 298.377 192.26 292.577C192.059 290.98 191.672 289.406 191.271 287.746C191.323 287.628 191.475 287.586 191.733 287.488Z" fill="#01668F"/>
<path d="M250.123 356.561C245.014 356.6 239.906 356.64 234.797 356.674C234.51 356.676 234.222 356.621 233.733 356.572C233.733 354.469 233.733 352.422 233.848 350.141C235.522 346.788 237.099 343.678 238.638 340.549C241.218 335.305 243.774 330.049 246.339 324.784C246.338 324.771 246.326 324.747 246.412 324.705C246.527 324.541 246.557 324.419 246.649 324.281C246.712 324.264 246.84 324.24 247.015 324.254C253.432 324.278 259.675 324.286 265.901 324.422C264.863 326.609 263.821 328.66 262.822 330.731C260.989 334.529 259.182 338.338 257.335 342.266C256.759 343.211 256.212 344.033 255.587 344.725C254.281 344.46 253.055 344.247 251.823 344.204C248.215 344.079 244.604 344.001 240.994 343.949C239.94 343.933 239.375 344.459 239.427 345.615C239.49 347.034 239.441 348.459 239.44 349.881C239.438 353.927 239.438 353.967 243.568 353.913C246.152 353.878 248.734 353.701 251.302 353.717C250.898 354.751 250.511 355.656 250.123 356.561ZM240.059 342.823C239.881 342.842 239.703 342.862 239.524 342.882C239.565 343.041 239.606 343.201 239.647 343.361C239.799 343.253 239.952 343.145 240.059 342.823Z" fill="#0784C2"/>
<path d="M259.864 309.347C252.769 304.8 252.025 296.137 255.883 290.482C259.083 285.792 265.646 283.179 272.034 285.761C277.116 287.814 280.963 294.044 279.996 299.739C279.372 303.411 277.711 306.3 274.713 308.759C273.435 309.465 272.338 310.035 271.093 310.628C267.082 311.644 263.371 311.363 259.864 309.347ZM270.219 292.984C269.906 292.812 269.606 292.609 269.279 292.471C266.042 291.106 262.137 292.803 261.073 296.028C260.004 299.27 261.921 302.877 265.202 303.797C267.742 304.509 270.81 303.316 272.042 301.137C273.567 298.441 272.945 295.375 270.219 292.984Z" fill="#FBBF50"/>
<path d="M250.289 356.609C250.511 355.655 250.898 354.75 251.397 353.64C252.894 350.574 254.279 347.714 255.664 344.853C256.212 344.031 256.759 343.209 257.501 342.265C262.885 342.142 268.075 342.136 273.264 342.145C275.484 342.149 277.929 341.569 279.077 344.367C279.141 344.691 279.296 344.932 279.386 345.288C278.052 348.116 276.783 350.83 275.418 353.618C274.91 354.6 274.498 355.508 274.087 356.416C270.057 356.44 266.027 356.46 261.997 356.494C261.348 356.499 260.7 356.57 259.906 356.66C256.659 356.692 253.557 356.675 250.289 356.609Z" fill="#FCC658"/>
<path d="M314.279 313.914C322.143 313.916 330.007 313.917 338.01 314.065C336.521 317.57 334.893 320.928 333.21 324.311C333.156 324.334 333.043 324.372 332.91 324.323C325.832 324.278 318.887 324.296 311.943 324.27C311.134 324.267 310.327 324.027 309.556 323.773C311.154 320.405 312.717 317.159 314.279 313.914Z" fill="#FCA63C"/>
<path d="M274.82 313.838C281.413 313.86 288.006 313.883 294.745 314.07C293.207 317.587 291.522 320.939 289.673 324.29C281.745 324.275 273.98 324.259 266.234 324.115C267.861 320.642 269.47 317.298 271.231 313.948C272.529 313.908 273.675 313.873 274.82 313.838Z" fill="#FCA63C"/>
<path d="M357.523 313.917C365.391 313.913 373.259 313.91 381.259 314.063C379.771 317.569 378.15 320.918 376.466 324.29C376.403 324.314 376.27 324.336 376.142 324.291C368.203 324.261 360.392 324.276 352.592 324.167C354.244 320.667 355.884 317.292 357.523 313.917Z" fill="#FCA63C"/>
<path d="M357.357 313.904C355.883 317.292 354.243 320.667 352.515 324.192C352.427 324.342 352.269 324.378 352.1 324.344C345.708 324.303 339.487 324.295 333.265 324.288C334.893 320.929 336.521 317.57 338.174 314.092C344.531 313.945 350.861 313.918 357.357 313.904Z" fill="#01668F"/>
<path d="M376.529 324.266C378.15 320.916 379.771 317.567 381.446 314.088C387.819 313.935 394.138 313.913 400.619 313.908C399.136 317.29 397.491 320.655 395.772 324.165C395.697 324.311 395.568 324.329 395.396 324.314C388.992 324.288 382.76 324.277 376.529 324.266Z" fill="#01668F"/>
<path d="M271.079 313.954C269.47 317.298 267.861 320.642 266.159 324.126C266.066 324.266 265.917 324.295 265.917 324.295C259.674 324.286 253.432 324.277 247.036 324.125C248.522 320.638 250.16 317.295 251.799 313.952C253.647 313.924 255.495 313.897 257.608 313.889C257.938 313.893 258.004 313.876 258.07 313.859C258.434 313.861 258.798 313.862 259.468 313.882C263.542 313.918 267.31 313.936 271.079 313.954Z" fill="#01668F"/>
<path d="M289.837 324.29C291.522 320.938 293.207 317.586 294.91 314.11C301.265 313.951 307.602 313.915 314.109 313.896C312.716 317.158 311.154 320.404 309.467 323.809C309.277 324.077 309.211 324.185 308.984 324.291C302.558 324.281 296.295 324.272 289.983 324.276C289.935 324.288 289.837 324.29 289.837 324.29Z" fill="#01668F"/>
<path d="M246.34 324.798C243.774 330.049 241.218 335.305 238.638 340.55C237.099 343.678 235.522 346.788 233.862 349.977C233.735 341.57 233.709 333.093 233.873 324.45C237.43 324.286 240.797 324.258 244.162 324.312C244.89 324.323 245.614 324.628 246.34 324.798Z" fill="#FBBF50"/>
<path d="M246.339 324.784C245.614 324.628 244.89 324.323 244.162 324.311C240.796 324.258 237.43 324.286 233.897 324.284C233.73 320.907 233.73 317.531 233.73 313.814C239.217 313.814 244.611 313.814 250.177 313.796C250.349 313.778 250.344 313.756 250.344 313.756C250.708 313.8 251.071 313.845 251.617 313.921C250.16 317.295 248.522 320.638 246.862 324.111C246.84 324.24 246.712 324.264 246.567 324.329C246.39 324.511 246.358 324.629 246.326 324.747C246.326 324.747 246.338 324.771 246.339 324.784Z" fill="#FCA63C"/>
<path d="M271.232 313.947C267.311 313.935 263.542 313.917 259.605 313.872C259.553 313.589 259.669 313.333 259.993 312.974C263.172 312.87 266.144 312.869 269.117 312.867C271.327 312.866 271.327 312.865 271.241 310.605C272.338 310.035 273.436 309.465 274.648 308.859C274.784 310.388 274.804 311.952 274.822 313.677C273.675 313.872 272.53 313.907 271.232 313.947Z" fill="#4BB4D6"/>
<path d="M271.093 310.628C271.327 312.865 271.327 312.866 269.117 312.867C266.144 312.869 263.171 312.87 260.034 312.877C259.863 311.808 259.857 310.734 259.857 309.504C263.37 311.363 267.082 311.644 271.093 310.628Z" fill="#7ACAE8"/>
<path d="M414.257 310.998C414.422 311.525 414.422 312.05 414.422 312.873C411.027 312.873 407.734 312.873 404.276 312.878C404.101 311.77 404.09 310.657 404.086 309.375C407.224 310.924 410.549 311.565 414.257 310.998Z" fill="#7ACAE8"/>
<path d="M250.353 313.748C250.344 313.754 250.349 313.775 250.353 313.763C250.357 313.75 250.361 313.742 250.353 313.748Z" fill="#4BB4D6"/>
<path d="M258.03 313.811C258.004 313.876 257.938 313.893 257.773 313.885C257.78 313.828 257.885 313.795 258.03 313.811Z" fill="#4BB4D6"/>
<path d="M245.682 108.35C244.135 105.677 244.662 102.762 246.857 101.311C249.268 99.716 252.24 100.178 253.841 102.397C255.442 104.617 255.076 107.574 253.062 109.295C251.075 110.992 247.329 110.831 245.682 108.35Z" fill="#FBBF50"/>
<path d="M203.632 104.019C201.463 105.097 199.473 105.055 197.697 103.549C196.112 102.206 195.58 100.439 196.101 98.4151C196.626 96.3701 198.023 95.1999 200.04 94.756C202.217 94.2767 204.473 95.4354 205.505 97.5051C206.608 99.7168 205.978 102.029 203.632 104.019Z" fill="#DD0000"/>
<path d="M227.073 107.082C224.316 107.972 221.864 107.238 220.661 105.259C219.428 103.232 219.753 100.496 221.417 98.9013C223.175 97.2167 225.774 96.9905 227.798 98.3461C230.958 100.463 230.658 104.839 227.073 107.082Z" fill="#7AE881"/>
<path d="M352.269 324.378C352.269 324.378 352.427 324.342 352.504 324.317C360.392 324.276 368.203 324.26 376.118 324.418C376.049 324.965 375.884 325.344 375.702 325.714C372.604 332.016 369.505 338.317 366.318 344.702C364.875 347.581 363.519 350.378 362.07 353.255C361.469 354.434 360.962 355.533 360.455 356.631C352.626 356.628 344.796 356.626 336.827 356.461C337.073 355.392 337.457 354.484 337.933 353.491C339.433 350.499 340.843 347.592 342.345 344.604C343.626 342.129 344.834 339.744 346.004 337.341C348.104 333.026 350.182 328.699 352.269 324.378Z" fill="#FCC253"/>
<path d="M395.568 324.33C395.568 324.33 395.697 324.312 395.76 324.296C403.606 324.287 411.389 324.294 419.326 324.439C419.089 325.377 418.699 326.178 418.307 326.977C415.357 332.992 412.406 339.006 409.36 345.097C407.914 347.975 406.563 350.776 405.211 353.577C404.723 354.537 404.235 355.497 403.726 356.578C396.432 356.697 389.157 356.697 381.882 356.687C381.292 356.686 380.701 356.611 380.002 356.363C380.211 355.414 380.529 354.674 380.941 353.855C382.167 351.467 383.299 349.157 384.52 346.759C385.349 345.186 386.099 343.704 386.829 342.213C389.746 336.254 392.656 330.291 395.568 324.33Z" fill="#FCC253"/>
<path d="M317.235 356.629C309.397 356.618 301.56 356.607 293.591 356.42C293.432 356.188 293.404 356.131 293.45 355.968C293.819 355.236 294.113 354.61 294.482 353.896C295.931 351.018 297.305 348.226 298.751 345.344C299.373 344.198 299.923 343.143 300.65 342.104C306.889 342.127 312.95 342.109 319.01 342.164C320.337 342.176 321.867 342.09 322.228 343.828C322.696 343.636 323.21 343.425 323.706 343.303C323.615 343.561 323.543 343.729 323.363 343.964C323.02 344.563 322.796 345.1 322.546 345.626C321.292 348.263 320.031 350.898 318.681 353.609C318.138 354.666 317.686 355.648 317.235 356.629ZM320.741 344.27C320.832 344.216 320.97 344.179 321 344.102C321.023 344.04 320.914 343.928 320.863 343.839C320.813 343.928 320.762 344.018 320.741 344.27Z" fill="#FCC658"/>
<path d="M317.392 356.644C317.686 355.647 318.138 354.666 318.838 353.633C319.485 353.693 319.885 353.904 320.281 353.898C326.135 353.808 331.989 353.689 337.842 353.576C337.457 354.484 337.073 355.392 336.657 356.407C332.707 356.567 328.786 356.633 324.866 356.668C322.427 356.69 319.988 356.664 317.392 356.644Z" fill="#0784C2"/>
<path d="M380.848 353.932C380.529 354.673 380.211 355.413 379.852 356.291C379.292 356.509 378.773 356.658 378.253 356.659C372.43 356.673 366.606 356.663 360.619 356.645C360.962 355.531 361.47 354.433 362.16 353.361C363.265 353.568 364.185 353.893 365.107 353.902C370.354 353.954 375.601 353.93 380.848 353.932Z" fill="#0784C2"/>
<path d="M294.408 353.983C294.113 354.609 293.819 355.235 293.38 355.997C293.15 356.207 293.112 356.299 293.119 356.411C290.048 356.497 286.977 356.616 283.906 356.661C281.004 356.704 278.102 356.669 275.031 356.672C274.639 356.626 274.415 356.577 274.139 356.472C274.499 355.509 274.91 354.601 275.572 353.643C276.633 353.704 277.444 353.906 278.256 353.913C283.64 353.96 289.024 353.965 294.408 353.983Z" fill="#0782C2"/>
<path d="M293.208 356.418C293.111 356.299 293.15 356.206 293.305 356.104C293.404 356.131 293.432 356.187 293.468 356.338C293.417 356.43 293.357 356.428 293.208 356.418Z" fill="#4BB4D6"/>
<path d="M189.121 287.821C189.355 287.761 189.691 287.707 190.118 287.701C189.881 287.776 189.552 287.801 189.121 287.821Z" fill="#01668F"/>
<path d="M174.494 213.651C174.362 212.071 174.362 210.548 174.376 208.87C175.653 208.173 176.916 207.63 178.326 206.898C179.115 205.36 179.756 204.011 180.373 202.712C177.762 201.053 176.873 198.562 177.796 196.236C178.432 194.635 179.461 194.217 181.045 194.832C181.622 195.056 182.375 195.393 182.857 195.201C184.865 194.402 186.799 193.42 188.761 192.506C190.048 193.054 191.335 193.601 192.734 194.365C192.943 195.102 193.038 195.624 193.137 196.146C194.368 202.634 193.126 206.199 188.318 208.939C186.772 209.82 186.249 210.815 186.495 212.43C186.566 212.896 186.582 213.369 186.622 213.839C182.624 213.795 178.625 213.752 174.494 213.651Z" fill="#F68D3D"/>
<path d="M188.644 192.44C186.8 193.421 184.865 194.402 182.857 195.201C182.375 195.393 181.622 195.057 181.045 194.832C179.461 194.217 178.432 194.635 177.796 196.237C176.873 198.562 177.762 201.053 180.374 202.712C179.756 204.011 179.115 205.361 178.375 206.785C175.286 204.961 172.916 202.495 172.206 198.953C171.367 194.765 170.234 190.447 173.339 186.596C174.631 184.992 176.994 184.447 178.866 185.426C179.59 186.52 180.175 187.437 180.774 188.377C180.538 188.529 180.158 188.775 179.333 189.307C181.165 189.707 182.52 190.003 183.875 190.298C185.425 190.99 186.976 191.682 188.644 192.44Z" fill="#01668F"/>
<path d="M183.904 190.172C182.52 190.003 181.165 189.707 179.333 189.307C180.158 188.775 180.538 188.53 180.774 188.377C180.175 187.437 179.59 186.52 178.986 185.474C179.706 185.007 180.445 184.668 181.321 184.305C182.938 184.713 184.419 185.146 186.003 185.659C185.382 187.175 184.658 188.61 183.904 190.172Z" fill="#F68D3D"/>
<path d="M186.766 213.838C186.582 213.369 186.566 212.895 186.496 212.43C186.249 210.814 186.772 209.82 188.319 208.939C193.126 206.198 194.368 202.634 193.137 196.145C193.038 195.624 192.943 195.102 192.838 194.426C195.576 195.372 198.359 196.389 201.056 197.597C203.874 198.858 206.618 200.284 209.372 201.683C209.991 201.997 210.515 202.496 211.364 203.116C209.991 203.89 208.871 204.609 207.68 205.178C202.317 207.736 196.963 210.316 191.54 212.741C190.118 213.377 188.459 213.486 186.766 213.838Z" fill="#D8F0FA"/>
<path d="M157.904 271.371C157.206 270.294 156.577 269.083 155.856 267.776C154.202 264.166 152.696 260.625 151.059 257.145C149.178 253.148 149.133 253.177 152.072 249.84C154.151 247.48 156.212 245.104 158.283 242.737C158.779 242.17 159.284 241.609 160.138 241.26C159.924 244.819 159.739 248.38 159.49 251.936C159.064 258.022 158.598 264.104 158.143 270.187C158.117 270.539 158.031 270.886 157.904 271.371Z" fill="#B5E0E9"/>
<path d="M313.407 229.06C312.053 232.001 309.785 233.559 306.746 233.463C303.756 233.368 300.791 232.542 299.679 229.336C299.058 227.547 298.819 225.477 298.997 223.589C299.659 216.581 300.545 209.594 301.388 202.605C302.018 197.378 302.741 192.163 303.368 186.936C303.933 182.234 304.374 177.518 304.964 172.819C305.335 169.863 305.792 166.841 308.633 165.075C311.361 163.38 314.211 163.669 316.942 165.099C319.337 166.353 320.452 168.531 320.296 171.139C320.037 175.449 319.592 179.75 319.13 184.045C318.631 188.691 318.021 193.325 317.464 197.966C316.653 204.721 315.879 211.482 315.024 218.232C314.572 221.807 313.984 225.366 313.407 229.06Z" fill="#D8F0FA"/>
<path d="M365.711 216.718C370.963 207.517 376.14 198.423 381.316 189.33C381.45 189.387 381.583 189.443 381.717 189.5C381.142 194.581 380.578 199.663 379.988 204.743C379.443 209.441 378.87 214.136 378.311 218.832C378.179 219.949 378.171 221.098 377.873 222.167C377.752 222.601 376.977 223.193 376.554 223.152C372.484 222.76 368.419 222.294 364.367 221.743C363.147 221.577 363.567 220.608 363.896 219.934C364.417 218.869 365.05 217.859 365.711 216.718Z" fill="#D8F0FA"/>
<path d="M229.893 205.994C230.304 204.823 230.859 203.701 231.422 202.463C233.583 198.451 235.711 194.54 237.898 190.662C240.815 185.488 243.774 180.338 246.727 175.185C247.008 174.694 247.375 174.252 248.023 173.879C247.759 176.305 247.514 178.734 247.227 181.157C246.671 185.857 246.077 190.552 245.528 195.253C245.123 198.721 244.76 202.194 244.386 205.665C244.218 207.221 243.651 207.878 241.837 207.567C237.931 206.897 233.973 206.532 229.893 205.994Z" fill="#D8F0FA"/>
<path d="M406.469 301.499C404.714 298.245 405.198 295.143 407.655 293.239C409.834 291.552 413.233 291.621 415.262 293.393C418.032 295.812 418.14 299.756 415.507 302.376C413.064 304.806 409.086 304.461 406.469 301.499Z" fill="#0782C2"/>
<path d="M409.455 345.02C412.406 339.006 415.356 332.992 418.307 326.977C418.699 326.177 419.089 325.377 419.496 324.45C419.512 324.323 419.647 324.292 419.715 324.28C426.021 324.277 432.259 324.286 438.666 324.305C435.727 330.627 432.617 336.939 429.507 343.251C428.958 344.365 428.413 345.482 427.689 346.616C427.716 344.899 426.406 345.031 425.378 345.019C421.467 344.973 417.556 345.028 413.646 344.98C412.755 344.969 411.867 344.695 411.244 344.588C410.526 344.762 409.991 344.891 409.455 345.02Z" fill="#0784C2"/>
<path d="M409.36 345.096C409.991 344.891 410.527 344.761 411.244 344.588C411.868 344.695 412.755 344.968 413.646 344.979C417.557 345.028 421.468 344.973 425.378 345.019C426.407 345.031 427.716 344.899 427.602 346.706C426.544 349.095 425.397 351.412 424.171 353.826C423.112 353.925 422.131 353.927 421.151 353.927C416.453 353.927 411.754 353.936 407.056 353.913C406.537 353.911 406.018 353.721 405.355 353.598C406.563 350.776 407.914 347.974 409.36 345.096Z" fill="#0795CA"/>
<path d="M265.901 324.423C265.917 324.296 266.066 324.267 266.14 324.256C273.98 324.26 281.745 324.275 289.673 324.291C289.837 324.291 289.935 324.29 289.902 324.379C289.304 325.574 288.721 326.67 288.178 327.785C285.594 333.091 283.02 338.402 280.441 343.732C280.439 343.753 280.463 343.788 280.369 343.829C280.228 343.998 280.182 344.126 280.075 344.259C280.014 344.264 279.894 344.291 279.774 344.29C279.491 344.288 279.33 344.288 279.168 344.288C279.167 344.287 279.166 344.286 279.166 344.286C277.928 341.571 275.484 342.151 273.264 342.147C268.074 342.138 262.885 342.144 257.529 342.144C259.181 338.339 260.989 334.529 262.822 330.732C263.821 328.661 264.863 326.61 265.901 324.423Z" fill="#FEBF4E"/>
<path d="M255.587 344.724C254.279 347.714 252.894 350.574 251.413 353.511C248.734 353.7 246.152 353.877 243.568 353.911C239.438 353.966 239.438 353.926 239.44 349.88C239.441 348.458 239.49 347.033 239.427 345.614C239.375 344.458 239.94 343.932 240.994 343.948C244.604 344 248.215 344.078 251.823 344.203C253.055 344.246 254.281 344.459 255.587 344.724Z" fill="#0795CA"/>
<path d="M240.082 342.928C239.952 343.143 239.8 343.251 239.647 343.36C239.606 343.2 239.565 343.04 239.524 342.88C239.703 342.86 239.881 342.841 240.082 342.928Z" fill="#0795CA"/>
<path d="M246.412 324.705C246.358 324.629 246.39 324.511 246.504 324.346C246.557 324.419 246.527 324.541 246.412 324.705Z" fill="#FBBF50"/>
<path d="M270.32 293.068C272.945 295.375 273.567 298.441 272.042 301.137C270.81 303.316 267.742 304.509 265.202 303.797C261.921 302.877 260.004 299.27 261.073 296.028C262.137 292.803 266.041 291.106 269.279 292.471C269.606 292.609 269.906 292.812 270.32 293.068Z" fill="#0782C2"/>
<path d="M279.895 344.291C279.895 344.291 280.014 344.264 280.177 344.221C280.381 344.048 280.422 343.918 280.463 343.788C280.463 343.788 280.439 343.753 280.536 343.808C281.023 343.721 281.414 343.578 281.773 343.447C282.336 344.838 283.663 344.582 284.686 344.605C288.73 344.696 292.778 344.609 296.822 344.678C297.446 344.688 298.061 345.171 298.679 345.435C297.305 348.226 295.931 351.018 294.482 353.896C289.023 353.965 283.639 353.96 278.256 353.913C277.443 353.906 276.633 353.704 275.668 353.569C276.783 350.831 278.052 348.118 279.381 345.282C279.442 345.159 279.453 345.146 279.527 345.081C279.7 344.774 279.797 344.533 279.895 344.291Z" fill="#0795CA"/>
<path d="M279.446 345.166C279.296 344.933 279.141 344.692 279.077 344.368C279.166 344.285 279.167 344.285 279.182 344.439C279.282 344.777 279.368 344.961 279.453 345.145C279.453 345.145 279.442 345.158 279.446 345.166Z" fill="#FEBF4E"/>
<path d="M277.902 344.445C277.921 344.433 277.883 344.456 277.902 344.445Z" fill="#FEBF4E"/>
<path d="M323.724 343.214C323.21 343.425 322.696 343.636 322.228 343.829C321.867 342.09 320.337 342.177 319.01 342.165C312.949 342.109 306.889 342.128 300.688 341.979C303.415 335.991 306.28 330.143 309.146 324.296C309.211 324.187 309.277 324.078 309.43 323.934C310.327 324.028 311.134 324.268 311.942 324.271C318.887 324.296 325.832 324.279 332.873 324.451C329.888 330.822 326.806 337.018 323.724 343.214Z" fill="#FEBF4E"/>
<path d="M323.706 343.303C326.806 337.017 329.888 330.822 333.006 324.499C333.043 324.372 333.156 324.334 333.21 324.311C339.487 324.294 345.709 324.302 352.1 324.343C350.182 328.699 348.105 333.025 346.004 337.341C344.834 339.744 343.627 342.129 342.227 344.56C337.574 344.494 333.129 344.414 328.685 344.274C326.945 344.219 325.209 344.027 323.471 343.897C323.543 343.729 323.615 343.56 323.706 343.303Z" fill="#0784C2"/>
<path d="M395.396 324.315C392.656 330.291 389.746 336.254 386.829 342.213C386.099 343.705 385.349 345.186 384.46 346.63C384.145 345.978 383.978 345.369 383.877 345.001C380.847 345.001 377.96 345.05 375.075 344.987C372.184 344.923 369.295 344.746 366.405 344.619C369.505 338.317 372.604 332.017 375.702 325.715C375.884 325.344 376.049 324.966 376.246 324.463C376.27 324.336 376.403 324.313 376.466 324.29C382.76 324.278 388.992 324.289 395.396 324.315Z" fill="#0784C2"/>
<path d="M308.984 324.292C306.28 330.142 303.415 335.989 300.511 341.962C299.923 343.142 299.373 344.197 298.751 345.343C298.06 345.17 297.445 344.687 296.822 344.676C292.778 344.608 288.73 344.695 284.686 344.604C283.663 344.581 282.335 344.837 281.773 343.446C281.414 343.577 281.023 343.72 280.538 343.786C283.02 338.4 285.594 333.089 288.178 327.783C288.721 326.668 289.304 325.572 289.95 324.366C296.295 324.273 302.558 324.281 308.984 324.292Z" fill="#0784C2"/>
<path d="M323.363 343.963C325.209 344.026 326.945 344.218 328.685 344.273C333.129 344.414 337.574 344.493 342.136 344.64C340.844 347.591 339.434 350.498 337.933 353.49C331.989 353.688 326.135 353.807 320.281 353.897C319.885 353.903 319.485 353.692 318.93 353.557C320.031 350.897 321.292 348.262 322.546 345.625C322.796 345.099 323.02 344.562 323.363 343.963Z" fill="#0795CA"/>
<path d="M366.318 344.701C369.295 344.745 372.184 344.922 375.075 344.986C377.96 345.05 380.847 345 383.877 345C383.978 345.369 384.145 345.978 384.371 346.717C383.299 349.157 382.167 351.467 380.941 353.855C375.601 353.93 370.354 353.954 365.107 353.903C364.185 353.894 363.265 353.568 362.253 353.281C363.519 350.377 364.875 347.581 366.318 344.701Z" fill="#0795CA"/>
<path d="M320.727 344.188C320.763 344.017 320.813 343.927 320.863 343.838C320.914 343.927 321.023 344.039 321 344.101C320.97 344.178 320.832 344.215 320.727 344.188Z" fill="#FEBF4E"/>
<path d="M279.527 345.081C279.368 344.962 279.282 344.778 279.183 344.441C279.33 344.288 279.492 344.288 279.774 344.289C279.797 344.533 279.7 344.774 279.527 345.081Z" fill="#FCC658"/>
<path d="M280.369 343.828C280.422 343.917 280.381 344.047 280.239 344.215C280.183 344.124 280.229 343.997 280.369 343.828Z" fill="#0784C2"/>
<path d="M282.227 342.309C282.236 342.325 282.217 342.293 282.227 342.309Z" fill="#0795CA"/>
</g>
<defs>
<clipPath id="clip0_2870_2804">
<rect width="636" height="415" fill="white"/>
</clipPath>
</defs>
</svg>
