<svg xmlns="http://www.w3.org/2000/svg" xmlns:xlink="http://www.w3.org/1999/xlink" fill="none" viewBox="0 0 348 199"><defs><path id="reuse-0" fill="#fff" fill-rule="evenodd" d="M305 73v57l4 1a36 36 0 0 0 7 8c6 6 14 9 23 9-3-1-7-2-10-5s-5-7-5-12l-1-1V91c0-10-8-18-18-18" clip-rule="evenodd"/><path id="reuse-1" fill="#fff" fill-rule="evenodd" d="M239 129v1a17 17 0 0 1 7-13 17 17 0 0 1 16-4c4 1 8 4 8 5l4 1a9 9 0 0 0 7-16 36 36 0 0 0-16-8 36 36 0 0 0-26 33v1Z" clip-rule="evenodd"/><path id="reuse-2" fill="#fff" fill-rule="evenodd" d="M259 117c-9 5-12 17-6 25l37-23 1-4a36 36 0 0 0-10-12l-22 14Z" clip-rule="evenodd"/><path id="reuse-3" fill="#fff" fill-rule="evenodd" d="M257 94h-1a36 36 0 0 0-34 28 36 36 0 0 0 10 16c7 7 16 10 26 10a18 18 0 0 1-18-17 36 36 0 0 1 25-36l-8-1Z" clip-rule="evenodd"/><path id="reuse-4" fill="#fff" fill-rule="evenodd" d="M168 94h-1c-10 0-19 5-26 12-4 5-8 10-10 17l5 8h14a18 18 0 0 1 17-18 36 36 0 0 1 33 18l5 8v-10a37 37 0 0 0-37-35Z" clip-rule="evenodd"/><path id="reuse-5" fill="#fff" fill-rule="evenodd" d="M205 166v-27l-5-8-5-8-1-1c-7-6-16-9-25-9h-2a18 18 0 0 1 19 17v18c0 10 8 18 19 18Z" clip-rule="evenodd"/><path id="reuse-6" fill="#fff" fill-rule="evenodd" d="M80 94h-1a36 36 0 0 0-34 28 36 36 0 0 0 10 16c7 7 16 10 26 10a18 18 0 0 1-19-17v-1a36 36 0 0 1 26-35l-8-1Z" clip-rule="evenodd"/><path id="reuse-7" fill="#fff" fill-rule="evenodd" d="M0 115c0 12 3 24 13 33a36 36 0 0 0 30 9 9 9 0 0 0-9-9 36 36 0 0 1-30-18l-4-15" clip-rule="evenodd"/><path id="reuse-8" fill="#fff" fill-rule="evenodd" d="M0 73s9 6 9 17v47l2 1c6 6 14 10 23 10a18 18 0 0 1-15-17V91c0-10-9-18-19-18Z" clip-rule="evenodd"/><path id="reuse-9" fill="#fff" fill-rule="evenodd" d="M0 73v57h4l6 7a37 37 0 0 1-1-7V90c0-11-9-17-9-17Z" clip-rule="evenodd"/><path id="reuse-10" fill="#fff" fill-rule="evenodd" d="M221 132c0 8 3 15 8 21 10 7 18 6 24 4 5-2 9-6 9-6l6-7-3 2-7 2a36 36 0 0 1-36-26l-1 10" clip-rule="evenodd"/><path id="reuse-11" fill="#fff" fill-rule="evenodd" d="M188 127v1-1" clip-rule="evenodd"/><path id="reuse-12" fill="#fff" d="M188 127v1-1Z"/><path id="reuse-13" fill="#fff" fill-rule="evenodd" d="M324 130h-1l1 1v-1Z" clip-rule="evenodd"/><path id="reuse-14" fill="#fff" d="M324 130h-1v1h1v-1Z"/><path id="reuse-15" fill="#fff" d="M340 109h-1 1ZM340 109Z"/><path id="reuse-16" fill="#fff" fill-rule="evenodd" d="m268 144-7 7s-3 4-8 6c-6 2-14 3-24-4a37 37 0 0 0 21 13 36 36 0 0 0 30-8h1c2-2 3-4 3-7a9 9 0 0 0-16-7" clip-rule="evenodd"/><path id="reuse-17" fill="#fff" fill-rule="evenodd" d="M46 125v1a36 36 0 0 0 38 35c9-1 18-5 25-12l7-11-3-5H99a17 17 0 0 1-17 18 36 36 0 0 1-36-26Z" clip-rule="evenodd"/><path id="reuse-18" fill="#fff" fill-rule="evenodd" d="M102 126v1-1" clip-rule="evenodd"/><path id="reuse-19" fill="#fff" d="M102 126v1-1Z"/><path id="reuse-20" fill="#fff" d="M105 173ZM105 173l1 1-1-1Z"/><path id="reuse-21" fill="#fff" fill-rule="evenodd" d="M19 130v1-1Z" clip-rule="evenodd"/><path id="reuse-22" fill="#fff" fill-rule="evenodd" d="M44 132v1a36 36 0 0 0 38 35c9-1 18-5 25-12 4-5 8-10 9-17l-4-7H98a17 17 0 0 1-17 17 36 36 0 0 1-36-25l-1 8" clip-rule="evenodd"/><path id="reuse-23" fill="#fff" fill-rule="evenodd" d="M44 130v2a36 36 0 0 0 38 34 38 38 0 0 0 35-28l-5-8H98a17 17 0 0 1-17 18 36 36 0 0 1-36-26l-1 8" clip-rule="evenodd"/><path id="reuse-24" fill="#fff" fill-rule="evenodd" d="M33 166c5 0 10-4 10-9a37 37 0 0 1-8 0h-3a11 11 0 0 1-2-1h-3l-1-1h-2l-12-7C2 138 1 128 0 115v17a36 36 0 0 0 28 34h5" clip-rule="evenodd"/><path id="reuse-25" fill="#fff" fill-rule="evenodd" d="M79 113a18 18 0 0 1 19 17v32a36 36 0 0 1-26 36 37 37 0 0 0 35-11 36 36 0 0 0 9-25v-24l-4-8-5-7-1-1c-7-6-16-9-25-9h-2Z" clip-rule="evenodd"/><path id="reuse-26" fill="#fff" fill-rule="evenodd" d="m73 104-1 1c-7 7-10 16-10 25a18 18 0 0 1 17-17 36 36 0 0 1 33 17l4 9v-10a36 36 0 0 0-28-34c-6 2-11 5-15 9" clip-rule="evenodd"/><path id="reuse-27" fill="#fff" fill-rule="evenodd" d="M131 166c11 0 19-8 19-18v-35c0-11-8-19-19-19v72Z" clip-rule="evenodd"/><path id="reuse-28" fill="#fff" fill-rule="evenodd" d="M212 50v10l-6 34c-1 5 5 8 9 5l61-48c5-4 6-11 2-17a92 92 0 0 1-66 16Z" clip-rule="evenodd"/><path id="reuse-29" fill="#fff" fill-rule="evenodd" d="M212 48v12l-2 12 1 3c3 3 7 5 11 5 14 0 40-21 40-21l12-10c6-5 7-12 3-17l-8 5c-10 5-14 6-24 9-9 3-21 3-33 2Z" clip-rule="evenodd"/><path id="reuse-30" fill="#fff" fill-rule="evenodd" d="m204 17 5 15c2 5 3 11 3 16v1c1 2 4 18 35 9 19-6 36-16 30-25l-3-3-51-28-6-2c-9 0-16 8-13 17Z" clip-rule="evenodd"/><path id="reuse-31" fill="#fff" fill-rule="evenodd" d="M204 17c26 41 79 25 70 13L223 2l-6-2c-9 0-16 8-13 17Z" clip-rule="evenodd"/></defs><use xlink:href="#reuse-0" fill-rule="evenodd" clip-rule="evenodd"/><mask id="a" width="36" height="77" x="304" y="72" maskUnits="userSpaceOnUse" style="mask-type:luminance"><use xlink:href="#reuse-0"/></mask><g mask="url(#a)"><path fill="#fff" d="M339 73h-34v75h34V73Z"/></g><path fill="#fff" fill-rule="evenodd" d="M305 113h24l6-1c7-3 12-10 12-18h-42v19ZM306 129Zm41 28a9 9 0 0 0-8-9 36 36 0 0 1-30-18c-3-4-4-15-4-15v17a36 36 0 0 0 28 34h5c5 0 9-4 9-9Z" clip-rule="evenodd"/><mask id="b" width="43" height="53" x="305" y="114" maskUnits="userSpaceOnUse" style="mask-type:luminance"><path fill="#fff" d="M306 129Zm41 28a9 9 0 0 0-8-9 36 36 0 0 1-30-18c-3-4-4-15-4-15v17a36 36 0 0 0 28 34h5c5 0 9-4 9-9Z"/></mask><g mask="url(#b)"><path fill="#fff" d="M347 115h-42v51h42v-51Z"/></g><use xlink:href="#reuse-1" fill-rule="evenodd" clip-rule="evenodd"/><mask id="c" width="45" height="37" x="239" y="94" maskUnits="userSpaceOnUse" style="mask-type:luminance"><use xlink:href="#reuse-1"/></mask><g mask="url(#c)"><path fill="#fff" d="M239 130h44l1-35h-44l-1 35Z"/></g><use xlink:href="#reuse-2" fill-rule="evenodd" clip-rule="evenodd"/><mask id="d" width="42" height="41" x="249" y="102" maskUnits="userSpaceOnUse" style="mask-type:luminance"><use xlink:href="#reuse-2"/></mask><g mask="url(#d)"><path fill="#fff" d="M291 103h-44v39h44v-39Z"/></g><use xlink:href="#reuse-3" fill-rule="evenodd" clip-rule="evenodd"/><mask id="e" width="45" height="55" x="221" y="93" maskUnits="userSpaceOnUse" style="mask-type:luminance"><use xlink:href="#reuse-3"/></mask><g mask="url(#e)"><path fill="#fff" d="M265 94h-43v54h43V94Z"/></g><use xlink:href="#reuse-4" fill-rule="evenodd" clip-rule="evenodd"/><mask id="f" width="74" height="46" x="131" y="93" maskUnits="userSpaceOnUse" style="mask-type:luminance"><use xlink:href="#reuse-4"/></mask><g mask="url(#f)"><path fill="#fff" d="M205 94h-74v45h74V94Z"/></g><use xlink:href="#reuse-5" fill-rule="evenodd" clip-rule="evenodd"/><mask id="g" width="38" height="55" x="167" y="112" maskUnits="userSpaceOnUse" style="mask-type:luminance"><use xlink:href="#reuse-5"/></mask><g mask="url(#g)"><path fill="#fff" d="M205 113h-38v53h38v-53Z"/></g><path fill="#fff" fill-rule="evenodd" d="M102 159v2-2ZM92 175a17 17 0 0 1-17 4l-8-4-4-1a9 9 0 0 0-7 15 36 36 0 0 0 17 9 36 36 0 0 0 25-34c-1 4-3 8-6 11" clip-rule="evenodd"/><mask id="h" width="45" height="35" x="53" y="163" maskUnits="userSpaceOnUse" style="mask-type:luminance"><path fill="#fff" d="M92 175a17 17 0 0 1-17 4l-8-4-4-1a9 9 0 0 0-7 15 36 36 0 0 0 17 9 36 36 0 0 0 25-34c-1 4-3 8-6 11"/></mask><g mask="url(#h)"><path fill="#fff" d="M98 164H54v34h44v-34Z"/></g><use xlink:href="#reuse-6" fill-rule="evenodd" clip-rule="evenodd"/><mask id="i" width="44" height="54" x="44" y="94" maskUnits="userSpaceOnUse" style="mask-type:luminance"><use xlink:href="#reuse-6"/></mask><g mask="url(#i)"><path fill="#fff" d="M88 94H45v54h43V94Z"/></g><use xlink:href="#reuse-7" fill-rule="evenodd" clip-rule="evenodd"/><mask id="j" width="43" height="44" x="0" y="114" maskUnits="userSpaceOnUse" style="mask-type:luminance"><use xlink:href="#reuse-7"/></mask><g mask="url(#j)"><path fill="#fff" d="M43 115H0v42h43v-42Z"/></g><use xlink:href="#reuse-8" fill-rule="evenodd" clip-rule="evenodd"/><mask id="k" width="35" height="76" x="0" y="72" maskUnits="userSpaceOnUse" style="mask-type:luminance"><use xlink:href="#reuse-8"/></mask><g mask="url(#k)"><path fill="#fff" d="M34 73H0v75h34V73Z"/></g><use xlink:href="#reuse-9" fill-rule="evenodd" clip-rule="evenodd"/><mask id="l" width="10" height="66" x="0" y="72" maskUnits="userSpaceOnUse" style="mask-type:luminance"><use xlink:href="#reuse-9"/></mask><g mask="url(#l)"><path fill="#fff" d="M10 73H0v64h10V73Z"/></g><use xlink:href="#reuse-10" fill-rule="evenodd" clip-rule="evenodd"/><mask id="m" width="47" height="37" x="221" y="122" maskUnits="userSpaceOnUse" style="mask-type:luminance"><use xlink:href="#reuse-10"/></mask><g mask="url(#m)"><path fill="#fff" d="M267 122h-46v38h46v-38Z"/></g><use xlink:href="#reuse-11" fill-rule="evenodd" clip-rule="evenodd"/><mask id="n" width="1" height="2" x="188" y="126" maskUnits="userSpaceOnUse" style="mask-type:luminance"><use xlink:href="#reuse-11"/></mask><g mask="url(#n)"><use xlink:href="#reuse-12"/></g><use xlink:href="#reuse-13" fill-rule="evenodd" clip-rule="evenodd"/><mask id="o" width="1" height="1" x="323" y="130" maskUnits="userSpaceOnUse" style="mask-type:luminance"><use xlink:href="#reuse-13"/></mask><g mask="url(#o)"><use xlink:href="#reuse-14"/></g><use xlink:href="#reuse-15"/><use xlink:href="#reuse-16" fill-rule="evenodd" clip-rule="evenodd"/><mask id="p" width="55" height="26" x="229" y="141" maskUnits="userSpaceOnUse" style="mask-type:luminance"><use xlink:href="#reuse-16"/></mask><g mask="url(#p)"><path fill="#fff" d="M284 141h-55v26h55v-26Z"/></g><use xlink:href="#reuse-17" fill-rule="evenodd" clip-rule="evenodd"/><mask id="q" width="72" height="36" x="45" y="125" maskUnits="userSpaceOnUse" style="mask-type:luminance"><use xlink:href="#reuse-17"/></mask><g mask="url(#q)"><path fill="#fff" d="M116 125H46v36h70v-36Z"/></g><use xlink:href="#reuse-18" fill-rule="evenodd" clip-rule="evenodd"/><mask id="r" width="1" height="2" x="102" y="126" maskUnits="userSpaceOnUse" style="mask-type:luminance"><use xlink:href="#reuse-18"/></mask><g mask="url(#r)"><use xlink:href="#reuse-19"/></g><use xlink:href="#reuse-20"/><use xlink:href="#reuse-21" fill-rule="evenodd" clip-rule="evenodd"/><mask id="s" width="1" height="1" x="18" y="130" maskUnits="userSpaceOnUse" style="mask-type:luminance"><use xlink:href="#reuse-21"/></mask><g mask="url(#s)"><use xlink:href="#reuse-21"/></g><use xlink:href="#reuse-11" fill-rule="evenodd" clip-rule="evenodd"/><mask id="t" width="1" height="2" x="188" y="126" maskUnits="userSpaceOnUse" style="mask-type:luminance"><use xlink:href="#reuse-11"/></mask><g mask="url(#t)"><use xlink:href="#reuse-12"/></g><use xlink:href="#reuse-13" fill-rule="evenodd" clip-rule="evenodd"/><mask id="u" width="1" height="1" x="323" y="130" maskUnits="userSpaceOnUse" style="mask-type:luminance"><use xlink:href="#reuse-13"/></mask><g mask="url(#u)"><use xlink:href="#reuse-14"/></g><use xlink:href="#reuse-15"/><use xlink:href="#reuse-22" fill-rule="evenodd" clip-rule="evenodd"/><mask id="v" width="74" height="45" x="43" y="123" maskUnits="userSpaceOnUse" style="mask-type:luminance"><use xlink:href="#reuse-22"/></mask><g mask="url(#v)"><path fill="#fff" d="M116 124H44v44h72v-44Z"/></g><use xlink:href="#reuse-23" fill-rule="evenodd" clip-rule="evenodd"/><mask id="w" width="74" height="45" x="43" y="122" maskUnits="userSpaceOnUse" style="mask-type:luminance"><use xlink:href="#reuse-23"/></mask><g mask="url(#w)"><path fill="#fff" d="M116 122H44v45h72v-45Z"/></g><use xlink:href="#reuse-18" fill-rule="evenodd" clip-rule="evenodd"/><mask id="x" width="1" height="2" x="102" y="126" maskUnits="userSpaceOnUse" style="mask-type:luminance"><use xlink:href="#reuse-18"/></mask><g mask="url(#x)"><use xlink:href="#reuse-19"/></g><use xlink:href="#reuse-20"/><use xlink:href="#reuse-21" fill-rule="evenodd" clip-rule="evenodd"/><mask id="y" width="1" height="1" x="18" y="130" maskUnits="userSpaceOnUse" style="mask-type:luminance"><use xlink:href="#reuse-21"/></mask><g mask="url(#y)"><use xlink:href="#reuse-21"/></g><use xlink:href="#reuse-24" fill-rule="evenodd" clip-rule="evenodd"/><mask id="z" width="43" height="52" x="0" y="115" maskUnits="userSpaceOnUse" style="mask-type:luminance"><use xlink:href="#reuse-24"/></mask><g mask="url(#z)"><path fill="#fff" d="M43 115H0v51h43v-51Z"/></g><use xlink:href="#reuse-25" fill-rule="evenodd" clip-rule="evenodd"/><mask id="A" width="45" height="87" x="72" y="112" maskUnits="userSpaceOnUse" style="mask-type:luminance"><use xlink:href="#reuse-25"/></mask><g mask="url(#A)"><path fill="#fff" d="M116 112H72v87h44v-87Z"/></g><use xlink:href="#reuse-26" fill-rule="evenodd" clip-rule="evenodd"/><mask id="B" width="55" height="46" x="62" y="94" maskUnits="userSpaceOnUse" style="mask-type:luminance"><use xlink:href="#reuse-26"/></mask><g mask="url(#B)"><path fill="#fff" d="M116 95H62v44h54V95Z"/></g><use xlink:href="#reuse-27" fill-rule="evenodd" clip-rule="evenodd"/><mask id="C" width="20" height="73" x="131" y="94" maskUnits="userSpaceOnUse" style="mask-type:luminance"><use xlink:href="#reuse-27"/></mask><g mask="url(#C)"><path fill="#fff" d="M150 94h-19v72h19V94Z"/></g><use xlink:href="#reuse-28" fill-rule="evenodd" clip-rule="evenodd"/><mask id="D" width="76" height="67" x="205" y="34" maskUnits="userSpaceOnUse" style="mask-type:luminance"><use xlink:href="#reuse-28"/></mask><g mask="url(#D)"><path fill="#fff" d="M282 34h-77v68h77V34Z"/></g><use xlink:href="#reuse-29" fill-rule="evenodd" clip-rule="evenodd"/><mask id="E" width="71" height="48" x="209" y="32" maskUnits="userSpaceOnUse" style="mask-type:luminance"><use xlink:href="#reuse-29"/></mask><g mask="url(#E)"><path fill="#fff" d="M281 32h-71v48h71V32Z"/></g><use xlink:href="#reuse-30" fill-rule="evenodd" clip-rule="evenodd"/><mask id="F" width="76" height="61" x="203" y="0" maskUnits="userSpaceOnUse" style="mask-type:luminance"><use xlink:href="#reuse-30"/></mask><g mask="url(#F)"><path fill="#fff" d="M283 0h-82v67h82V0Z"/></g><use xlink:href="#reuse-31" fill-rule="evenodd" clip-rule="evenodd"/><mask id="G" width="72" height="44" x="203" y="0" maskUnits="userSpaceOnUse" style="mask-type:luminance"><use xlink:href="#reuse-31"/></mask><g mask="url(#G)"><path fill="#fff" d="M283 0h-82v58h82V0Z"/></g></svg>