<svg width="34" height="45" viewBox="0 0 34 45" fill="none" xmlns="http://www.w3.org/2000/svg">
<circle cx="17" cy="17" r="14" fill="white"/>
<path fill-rule="evenodd" clip-rule="evenodd" d="M25.5122 14.751L25.5253 18.5249L25.7963 18.5924C25.8965 18.7593 26.0176 18.9151 26.159 19.0552C26.1812 19.0775 26.2035 19.0997 26.2271 19.1213C26.6454 19.5062 27.1763 19.6719 27.7386 19.6935L27.7589 19.6784C27.5219 19.649 27.2804 19.539 27.101 19.374C26.8745 19.1652 26.7423 18.8811 26.7298 18.5734C26.7292 18.557 26.7285 18.5413 26.7285 18.5256V15.9679C26.7285 15.2963 26.1845 14.7516 25.5129 14.7516" fill="#0B94CF"/>
<mask id="mask0_2784_4241" style="mask-type:luminance" maskUnits="userSpaceOnUse" x="25" y="14" width="3" height="6">
<path d="M25.5122 14.751L25.5253 18.5249L25.7963 18.5924C25.8965 18.7593 26.0176 18.9151 26.159 19.0552C26.1812 19.0775 26.2035 19.0997 26.2271 19.1213C26.6454 19.5062 27.1763 19.6719 27.7386 19.6935L27.7589 19.6784C27.5219 19.649 27.2804 19.539 27.101 19.374C26.8745 19.1652 26.7423 18.8811 26.7298 18.5734C26.7292 18.557 26.7285 18.5413 26.7285 18.5256V15.9679C26.7285 15.2963 26.1845 14.7516 25.5129 14.7516" fill="white"/>
</mask>
<g mask="url(#mask0_2784_4241)">
<path d="M27.7589 14.751H25.5122V19.6928H27.7589V14.751Z" fill="#0B94CF"/>
</g>
<path fill-rule="evenodd" clip-rule="evenodd" d="M25.5324 17.3651L27.0832 17.3677H27.0852C27.0911 17.3677 27.0963 17.3677 27.1022 17.3677C27.1546 17.3657 27.2947 17.3559 27.4511 17.3107C27.9415 17.1536 28.2969 16.6947 28.2969 16.1527L25.5278 16.1494L25.5331 17.3657L25.5324 17.3651Z" fill="#0B94CF"/>
<path fill-rule="evenodd" clip-rule="evenodd" d="M25.612 18.4089C25.6225 18.4481 25.6336 18.4848 25.6454 18.5188C25.6336 18.4907 25.6225 18.4534 25.612 18.4089ZM28.2966 20.2733V20.2719C28.2966 20.2641 28.2966 20.2569 28.296 20.249C28.2862 19.9931 28.1166 19.777 27.8836 19.6998C27.8325 19.6828 27.7788 19.6723 27.7232 19.6697C27.1674 19.6448 26.6424 19.4275 26.228 19.0458C26.0584 18.8894 25.9144 18.712 25.7985 18.5195H25.7972C25.6153 18.2655 25.5229 17.5186 25.5229 17.5186C25.5275 17.8223 25.5256 17.7837 25.5262 18.5195C25.5262 18.5516 25.5249 18.5836 25.5262 18.6157C25.5524 19.2481 25.813 19.8327 26.2791 20.2615C26.5913 20.5495 26.9671 20.7433 27.371 20.8323C27.4364 20.8467 27.549 20.8729 27.6315 20.8736C27.6518 20.8736 27.6721 20.8768 27.6931 20.8768C28.0263 20.8768 28.2966 20.6065 28.2966 20.2733Z" fill="#0B94CF"/>
<mask id="mask1_2784_4241" style="mask-type:luminance" maskUnits="userSpaceOnUse" x="25" y="17" width="4" height="4">
<path d="M25.612 18.4089C25.6225 18.4481 25.6336 18.4848 25.6454 18.5188C25.6336 18.4907 25.6225 18.4534 25.612 18.4089ZM28.2966 20.2733V20.2719C28.2966 20.2641 28.2966 20.2569 28.296 20.249C28.2862 19.9931 28.1166 19.777 27.8836 19.6998C27.8325 19.6828 27.7788 19.6723 27.7232 19.6697C27.1674 19.6448 26.6424 19.4275 26.228 19.0458C26.0584 18.8894 25.9144 18.712 25.7985 18.5195H25.7972C25.6153 18.2655 25.5229 17.5186 25.5229 17.5186C25.5275 17.8223 25.5256 17.7837 25.5262 18.5195C25.5262 18.5516 25.5249 18.5836 25.5262 18.6157C25.5524 19.2481 25.813 19.8327 26.2791 20.2615C26.5913 20.5495 26.9671 20.7433 27.371 20.8323C27.4364 20.8467 27.549 20.8729 27.6315 20.8736C27.6518 20.8736 27.6721 20.8768 27.6931 20.8768C28.0263 20.8768 28.2966 20.6065 28.2966 20.2733Z" fill="white"/>
</mask>
<g mask="url(#mask1_2784_4241)">
<path d="M28.2966 17.5186H25.5229V20.8768H28.2966V17.5186Z" fill="#0B94CF"/>
</g>
<path fill-rule="evenodd" clip-rule="evenodd" d="M21.2223 18.438V18.4465C21.2223 18.474 21.225 18.4943 21.2289 18.5218H21.2308C21.2308 18.4956 21.2328 18.4675 21.2348 18.4407C21.2551 18.1441 21.403 17.8718 21.6302 17.6669C21.8037 17.5098 22.0236 17.4096 22.256 17.3815C22.419 17.3612 22.5794 17.3756 22.73 17.4194C22.9787 17.4921 23.2026 17.6649 23.2615 17.7238C23.3198 17.7821 23.4206 17.7749 23.5083 17.7749C23.8494 17.7749 24.1256 17.498 24.1256 17.1569C24.1256 17.0535 24.1001 16.9559 24.0556 16.8702C24.051 16.8617 24.0464 16.8532 24.0412 16.8447C24.0235 16.8139 24.0026 16.7851 23.9797 16.7576C23.922 16.7059 23.8618 16.6574 23.8003 16.6123C23.5424 16.4224 23.2275 16.2843 22.9178 16.2116C22.9074 16.209 22.8962 16.207 22.8858 16.2051C22.5198 16.3183 22.1853 16.5258 21.9097 16.8028C21.8874 16.825 21.8658 16.8479 21.8442 16.8708C21.4632 17.2852 21.2511 17.803 21.2263 18.3588C21.225 18.385 21.2223 18.4112 21.2217 18.4374L21.2223 18.438Z" fill="#0B94CF"/>
<mask id="mask2_2784_4241" style="mask-type:luminance" maskUnits="userSpaceOnUse" x="21" y="16" width="4" height="3">
<path d="M21.2223 18.438V18.4465C21.2223 18.474 21.225 18.4943 21.2289 18.5218H21.2308C21.2308 18.4956 21.2328 18.4675 21.2348 18.4407C21.2551 18.1441 21.403 17.8718 21.6302 17.6669C21.8037 17.5098 22.0236 17.4096 22.256 17.3815C22.419 17.3612 22.5794 17.3756 22.73 17.4194C22.9787 17.4921 23.2026 17.6649 23.2615 17.7238C23.3198 17.7821 23.4206 17.7749 23.5083 17.7749C23.8494 17.7749 24.1256 17.498 24.1256 17.1569C24.1256 17.0535 24.1001 16.9559 24.0556 16.8702C24.051 16.8617 24.0464 16.8532 24.0412 16.8447C24.0235 16.8139 24.0026 16.7851 23.9797 16.7576C23.922 16.7059 23.8618 16.6574 23.8003 16.6123C23.5424 16.4224 23.2275 16.2843 22.9178 16.2116C22.9074 16.209 22.8962 16.207 22.8858 16.2051C22.5198 16.3183 22.1853 16.5258 21.9097 16.8028C21.8874 16.825 21.8658 16.8479 21.8442 16.8708C21.4632 17.2852 21.2511 17.803 21.2263 18.3588C21.225 18.385 21.2223 18.4112 21.2217 18.4374L21.2223 18.438Z" fill="white"/>
</mask>
<g mask="url(#mask2_2784_4241)">
<path d="M21.2217 18.5212H24.1099L24.1256 16.2051H21.2374L21.2217 18.5212Z" fill="#0B94CF"/>
</g>
<path fill-rule="evenodd" clip-rule="evenodd" d="M22.4918 17.6414C21.9216 17.9956 21.7462 18.7458 22.101 19.316L24.5074 17.8214H24.5081C24.5873 17.7573 24.6135 17.6473 24.5722 17.555C24.5146 17.426 24.4465 17.3036 24.368 17.1884C24.2521 17.0182 24.1028 16.8643 23.9484 16.7295L22.4924 17.6414H22.4918Z" fill="#0B94CF"/>
<mask id="mask3_2784_4241" style="mask-type:luminance" maskUnits="userSpaceOnUse" x="21" y="16" width="4" height="4">
<path d="M22.4918 17.6414C21.9216 17.9956 21.7462 18.7458 22.101 19.316L24.5074 17.8214H24.5081C24.5873 17.7573 24.6135 17.6473 24.5722 17.555C24.5146 17.426 24.4465 17.3036 24.368 17.1884C24.2521 17.0182 24.1028 16.8643 23.9484 16.7295L22.4924 17.6414H22.4918Z" fill="white"/>
</mask>
<g mask="url(#mask3_2784_4241)">
<path d="M24.6118 16.7295H21.7451V19.316H24.6118V16.7295Z" fill="#0B94CF"/>
</g>
<path fill-rule="evenodd" clip-rule="evenodd" d="M22.3906 16.1494H22.3841C22.3527 16.1494 22.3213 16.1501 22.2898 16.1514C21.6575 16.1776 21.0729 16.4486 20.6441 16.9147C20.3567 17.2269 20.1623 17.6027 20.0732 18.0066V18.0079C20.1865 18.3739 20.3875 18.7077 20.6644 18.9827C20.6866 19.0049 20.7095 19.0272 20.7325 19.0488C21.1973 19.4763 21.7995 19.6975 22.4299 19.6733C22.1242 19.6844 21.8322 19.5764 21.6071 19.3696C21.3805 19.1607 21.2483 18.8766 21.2352 18.5683C21.209 17.9359 21.4434 17.3323 21.8722 16.8669C22.1596 16.5546 22.5078 16.3294 22.9026 16.2077H22.9045C22.7389 16.1717 22.5628 16.1507 22.3906 16.1507V16.1494Z" fill="#0B94CF"/>
<mask id="mask4_2784_4241" style="mask-type:luminance" maskUnits="userSpaceOnUse" x="20" y="16" width="3" height="4">
<path d="M22.3906 16.1494H22.3841C22.3527 16.1494 22.3213 16.1501 22.2898 16.1514C21.6575 16.1776 21.0729 16.4486 20.6441 16.9147C20.3567 17.2269 20.1623 17.6027 20.0732 18.0066V18.0079C20.1865 18.3739 20.3875 18.7077 20.6644 18.9827C20.6866 19.0049 20.7095 19.0272 20.7325 19.0488C21.1973 19.4763 21.7995 19.6975 22.4299 19.6733C22.1242 19.6844 21.8322 19.5764 21.6071 19.3696C21.3805 19.1607 21.2483 18.8766 21.2352 18.5683C21.209 17.9359 21.4434 17.3323 21.8722 16.8669C22.1596 16.5546 22.5078 16.3294 22.9026 16.2077H22.9045C22.7389 16.1717 22.5628 16.1507 22.3906 16.1507V16.1494Z" fill="white"/>
</mask>
<g mask="url(#mask4_2784_4241)">
<path d="M22.9163 16.1523H20.085V19.6998H22.9163V16.1523Z" fill="#0B94CF"/>
</g>
<path fill-rule="evenodd" clip-rule="evenodd" d="M16.5606 16.1494H16.5527C16.5219 16.1494 16.4905 16.1501 16.4597 16.1514C15.8182 16.1782 15.2258 16.4532 14.7911 16.9252C14.4991 17.242 14.2464 17.623 14.1567 18.0328C14.213 18.2148 14.3466 18.3896 14.4441 18.5526H15.3875L15.3894 18.5559C15.3894 18.2613 15.4981 17.9785 15.6991 17.7605C15.9105 17.5307 16.1992 17.3971 16.5115 17.3834C17.153 17.3566 17.7664 17.5818 18.2384 18.0164C18.4112 18.1755 18.5578 18.3562 18.675 18.5526C18.7726 18.7162 18.9624 19.0724 18.9624 19.0724C18.9624 19.0724 18.9624 18.7293 18.9624 18.5526C18.9624 18.5192 18.9624 18.4865 18.9604 18.4531C18.9336 17.8115 18.6587 17.2191 18.1867 16.7844C17.8698 16.4931 17.4888 16.2954 17.079 16.2057C16.9128 16.1691 16.7419 16.1501 16.5684 16.1494H16.5606Z" fill="#0B94CF"/>
<mask id="mask5_2784_4241" style="mask-type:luminance" maskUnits="userSpaceOnUse" x="14" y="16" width="5" height="4">
<path d="M16.5606 16.1494H16.5527C16.5219 16.1494 16.4905 16.1501 16.4597 16.1514C15.8182 16.1782 15.2258 16.4532 14.7911 16.9252C14.4991 17.242 14.2464 17.623 14.1567 18.0328C14.213 18.2148 14.3466 18.3896 14.4441 18.5526H15.3875L15.3894 18.5559C15.3894 18.2613 15.4981 17.9785 15.6991 17.7605C15.9105 17.5307 16.1992 17.3971 16.5115 17.3834C17.153 17.3566 17.7664 17.5818 18.2384 18.0164C18.4112 18.1755 18.5578 18.3562 18.675 18.5526C18.7726 18.7162 18.9624 19.0724 18.9624 19.0724C18.9624 19.0724 18.9624 18.7293 18.9624 18.5526C18.9624 18.5192 18.9624 18.4865 18.9604 18.4531C18.9336 17.8115 18.6587 17.2191 18.1867 16.7844C17.8698 16.4931 17.4888 16.2954 17.079 16.2057C16.9128 16.1691 16.7419 16.1501 16.5684 16.1494H16.5606Z" fill="white"/>
</mask>
<g mask="url(#mask5_2784_4241)">
<path d="M18.9626 16.1494H14.1562V19.0724H18.9626V16.1494Z" fill="#0B94CF"/>
</g>
<path fill-rule="evenodd" clip-rule="evenodd" d="M18.9628 20.8982V19.0718L18.6755 18.552C18.574 18.3825 18.4509 18.2247 18.3075 18.0826C18.2846 18.0604 18.2617 18.0381 18.2382 18.0159C17.791 17.6041 17.2176 17.3809 16.6134 17.3809C16.5813 17.3809 16.5492 17.3809 16.5171 17.3828C16.8268 17.3717 17.1233 17.481 17.3511 17.6912C17.5809 17.9026 17.7151 18.1913 17.7282 18.5036C17.7289 18.5199 17.7295 18.5356 17.7295 18.552V19.6655C17.7295 20.3464 18.2814 20.8982 18.9622 20.8982H18.9628Z" fill="#0B94CF"/>
<mask id="mask6_2784_4241" style="mask-type:luminance" maskUnits="userSpaceOnUse" x="16" y="17" width="3" height="4">
<path d="M18.9628 20.8982V19.0718L18.6755 18.552C18.574 18.3825 18.4509 18.2247 18.3075 18.0826C18.2846 18.0604 18.2617 18.0381 18.2382 18.0159C17.791 17.6041 17.2176 17.3809 16.6134 17.3809C16.5813 17.3809 16.5492 17.3809 16.5171 17.3828C16.8268 17.3717 17.1233 17.481 17.3511 17.6912C17.5809 17.9026 17.7151 18.1913 17.7282 18.5036C17.7289 18.5199 17.7295 18.5356 17.7295 18.552V19.6655C17.7295 20.3464 18.2814 20.8982 18.9622 20.8982H18.9628Z" fill="white"/>
</mask>
<g mask="url(#mask6_2784_4241)">
<path d="M18.9628 17.3721H16.5112V20.8986H18.9628V17.3721Z" fill="#0B94CF"/>
</g>
<path fill-rule="evenodd" clip-rule="evenodd" d="M12.2375 20.4291V20.4199C12.2368 20.4474 12.2349 20.4834 12.2329 20.5103H12.2349L12.2381 20.5122C12.2381 20.4847 12.2381 20.4566 12.2375 20.4291Z" fill="#0B94CF"/>
<path fill-rule="evenodd" clip-rule="evenodd" d="M11.5668 21.487C11.3933 21.6441 11.1733 21.7443 10.9416 21.7731C10.7786 21.7934 10.6182 21.779 10.4676 21.7351C10.2189 21.6625 10.0015 21.4726 9.95832 21.4464C9.885 21.4026 9.77699 21.379 9.68926 21.379C9.3482 21.379 9.07129 21.6553 9.07129 21.997C9.07129 22.1004 9.09682 22.1979 9.14199 22.2837C9.14657 22.2922 9.15115 22.3007 9.15639 22.3092C9.17407 22.34 9.19502 22.3688 9.21793 22.3963C9.27554 22.448 9.33576 22.4965 9.3973 22.5416C9.66373 22.7374 9.98712 22.8801 10.3066 22.9501C11.2578 22.6568 11.9091 21.7849 11.9543 20.7911C11.9556 20.765 11.9569 20.7381 11.9569 20.7113L11.9471 20.71C11.9268 21.0065 11.7939 21.2828 11.5668 21.4877" fill="#0B94CF"/>
<mask id="mask7_2784_4241" style="mask-type:luminance" maskUnits="userSpaceOnUse" x="9" y="20" width="3" height="3">
<path d="M11.5668 21.487C11.3933 21.6441 11.1733 21.7443 10.9416 21.7731C10.7786 21.7934 10.6182 21.779 10.4676 21.7351C10.2189 21.6625 10.0015 21.4726 9.95832 21.4464C9.885 21.4026 9.77699 21.379 9.68926 21.379C9.3482 21.379 9.07129 21.6553 9.07129 21.997C9.07129 22.1004 9.09682 22.1979 9.14199 22.2837C9.14657 22.2922 9.15115 22.3007 9.15639 22.3092C9.17407 22.34 9.19502 22.3688 9.21793 22.3963C9.27554 22.448 9.33576 22.4965 9.3973 22.5416C9.66373 22.7374 9.98712 22.8801 10.3066 22.9501C11.2578 22.6568 11.9091 21.7849 11.9543 20.7911C11.9556 20.765 11.9569 20.7381 11.9569 20.7113L11.9471 20.71C11.9268 21.0065 11.7939 21.2828 11.5668 21.4877" fill="white"/>
</mask>
<g mask="url(#mask7_2784_4241)">
<path d="M11.9569 20.71H9.07129V22.9501H11.9569V20.71Z" fill="#0B94CF"/>
</g>
<path fill-rule="evenodd" clip-rule="evenodd" d="M10.7997 16.1569H10.7918C10.761 16.1569 10.7309 16.1576 10.6995 16.1589C10.0671 16.1851 9.48254 16.4561 9.05375 16.9222C8.76637 17.2351 8.57194 17.6102 8.48291 18.0148C8.5379 18.1941 8.61515 18.3663 8.71138 18.5273C8.81154 18.6943 8.93264 18.8501 9.07405 18.9908C9.0963 19.0131 9.11922 19.0347 9.14213 19.0563C9.60823 19.4851 10.2131 19.7063 10.8455 19.6801C10.5378 19.6926 10.2432 19.5852 10.0161 19.3764C9.78956 19.1676 9.65733 18.8835 9.64423 18.5751C9.64423 18.5594 9.64292 18.543 9.64292 18.5273C9.62918 17.912 9.85044 17.3261 10.2681 16.8718C10.5561 16.5589 10.9136 16.3343 11.3096 16.2119H11.309C11.1453 16.1759 10.9771 16.1569 10.8062 16.1562H10.7984L10.7997 16.1569Z" fill="#0B94CF"/>
<mask id="mask8_2784_4241" style="mask-type:luminance" maskUnits="userSpaceOnUse" x="8" y="16" width="4" height="4">
<path d="M10.7997 16.1569H10.7918C10.761 16.1569 10.7309 16.1576 10.6995 16.1589C10.0671 16.1851 9.48254 16.4561 9.05375 16.9222C8.76637 17.2351 8.57194 17.6102 8.48291 18.0148C8.5379 18.1941 8.61515 18.3663 8.71138 18.5273C8.81154 18.6943 8.93264 18.8501 9.07405 18.9908C9.0963 19.0131 9.11922 19.0347 9.14213 19.0563C9.60823 19.4851 10.2131 19.7063 10.8455 19.6801C10.5378 19.6926 10.2432 19.5852 10.0161 19.3764C9.78956 19.1676 9.65733 18.8835 9.64423 18.5751C9.64423 18.5594 9.64292 18.543 9.64292 18.5273C9.62918 17.912 9.85044 17.3261 10.2681 16.8718C10.5561 16.5589 10.9136 16.3343 11.3096 16.2119H11.309C11.1453 16.1759 10.9771 16.1569 10.8062 16.1562H10.7984L10.7997 16.1569Z" fill="white"/>
</mask>
<g mask="url(#mask8_2784_4241)">
<path d="M11.3103 16.1562H8.48291V19.7057H11.3103V16.1562Z" fill="#0B94CF"/>
</g>
<path fill-rule="evenodd" clip-rule="evenodd" d="M5.56201 17.5283C5.56987 18.3486 5.7368 19.0772 6.37114 19.6611C6.60026 19.8719 6.86408 20.0323 7.14754 20.1383C7.39368 20.23 7.65488 20.2811 7.92328 20.287C7.97369 20.2883 8.02409 20.2876 8.0745 20.2856C8.16288 20.2817 8.24994 20.2732 8.3357 20.2601C8.32522 20.0041 8.15567 19.7881 7.92328 19.7109C7.87222 19.6939 7.81854 19.6834 7.76289 19.6808C7.20711 19.6559 6.68209 19.4385 6.26771 19.0569C6.0975 18.9004 5.95414 18.723 5.83827 18.5306H5.83696C5.65366 18.2739 5.56267 17.529 5.56267 17.529" fill="#0B94CF"/>
<mask id="mask9_2784_4241" style="mask-type:luminance" maskUnits="userSpaceOnUse" x="5" y="17" width="4" height="4">
<path d="M5.56201 17.5283C5.56987 18.3486 5.7368 19.0772 6.37114 19.6611C6.60026 19.8719 6.86408 20.0323 7.14754 20.1383C7.39368 20.23 7.65488 20.2811 7.92328 20.287C7.97369 20.2883 8.02409 20.2876 8.0745 20.2856C8.16288 20.2817 8.24994 20.2732 8.3357 20.2601C8.32522 20.0041 8.15567 19.7881 7.92328 19.7109C7.87222 19.6939 7.81854 19.6834 7.76289 19.6808C7.20711 19.6559 6.68209 19.4385 6.26771 19.0569C6.0975 18.9004 5.95414 18.723 5.83827 18.5306H5.83696C5.65366 18.2739 5.56267 17.529 5.56267 17.529" fill="white"/>
</mask>
<g mask="url(#mask9_2784_4241)">
<path d="M8.3357 17.5283H5.56201V20.2876H8.3357V17.5283Z" fill="#0B94CF"/>
</g>
<path fill-rule="evenodd" clip-rule="evenodd" d="M5.55469 14.751C5.55469 14.751 6.13469 15.2014 6.13469 15.9077V18.5249C6.13208 18.6814 6.14255 18.8333 6.16939 18.9878C6.19165 19.01 6.24598 19.0323 6.26955 19.0539C6.6859 19.4369 7.2155 19.6568 7.7811 19.6778L7.78568 19.6764C7.54936 19.647 7.32286 19.5383 7.14414 19.374C6.91764 19.1652 6.7854 18.8811 6.77231 18.5734C6.77231 18.557 6.771 18.5413 6.771 18.5256V15.9673C6.771 15.2956 6.22634 14.751 5.55534 14.751H5.55469Z" fill="#0B94CF"/>
<mask id="mask10_2784_4241" style="mask-type:luminance" maskUnits="userSpaceOnUse" x="5" y="14" width="3" height="6">
<path d="M5.55469 14.751C5.55469 14.751 6.13469 15.2014 6.13469 15.9077V18.5249C6.13208 18.6814 6.14255 18.8333 6.16939 18.9878C6.19165 19.01 6.24598 19.0323 6.26955 19.0539C6.6859 19.4369 7.2155 19.6568 7.7811 19.6778L7.78568 19.6764C7.54936 19.647 7.32286 19.5383 7.14414 19.374C6.91764 19.1652 6.7854 18.8811 6.77231 18.5734C6.77231 18.557 6.771 18.5413 6.771 18.5256V15.9673C6.771 15.2956 6.22634 14.751 5.55534 14.751H5.55469Z" fill="white"/>
</mask>
<g mask="url(#mask10_2784_4241)">
<path d="M7.78503 14.751H5.55469V19.6778H7.78503V14.751Z" fill="#0B94CF"/>
</g>
<path fill-rule="evenodd" clip-rule="evenodd" d="M5.55469 14.751L5.56778 18.5249H5.83814C5.9383 18.6919 6.05941 18.8477 6.20081 18.9878C6.18314 18.8857 6.17201 18.7816 6.16743 18.6768C6.16546 18.6258 6.16481 18.5754 6.16612 18.5249V15.9077C6.16612 15.202 5.55469 14.751 5.55469 14.751Z" fill="#0B94CF"/>
<mask id="mask11_2784_4241" style="mask-type:luminance" maskUnits="userSpaceOnUse" x="5" y="14" width="2" height="5">
<path d="M5.55469 14.751L5.56778 18.5249H5.83814C5.9383 18.6919 6.05941 18.8477 6.20081 18.9878C6.18314 18.8857 6.17201 18.7816 6.16743 18.6768C6.16546 18.6258 6.16481 18.5754 6.16612 18.5249V15.9077C6.16612 15.202 5.55469 14.751 5.55469 14.751Z" fill="white"/>
</mask>
<g mask="url(#mask11_2784_4241)">
<path d="M6.20081 14.751H5.55469V18.9878H6.20081V14.751Z" fill="#0B94CF"/>
</g>
<path fill-rule="evenodd" clip-rule="evenodd" d="M20.0263 18.6231C20.0479 19.1469 20.2371 19.6372 20.5658 20.0332C21.1831 20.4679 21.7395 20.4273 22.1172 20.2748C22.4629 20.1347 22.7097 19.9167 22.7097 19.9167L23.0678 19.4382C22.9879 19.5049 22.9454 19.5318 22.8949 19.556C22.7542 19.6241 22.5971 19.6706 22.4432 19.6771C21.8109 19.7033 21.2053 19.4814 20.7399 19.0532C20.427 18.7652 20.2024 18.4078 20.0807 18.0117C20.0375 18.2101 20.0185 18.415 20.0276 18.6225" fill="#0B94CF"/>
<mask id="mask12_2784_4241" style="mask-type:luminance" maskUnits="userSpaceOnUse" x="20" y="18" width="4" height="3">
<path d="M20.0263 18.6231C20.0479 19.1469 20.2371 19.6372 20.5658 20.0332C21.1831 20.4679 21.7395 20.4273 22.1172 20.2748C22.4629 20.1347 22.7097 19.9167 22.7097 19.9167L23.0678 19.4382C22.9879 19.5049 22.9454 19.5318 22.8949 19.556C22.7542 19.6241 22.5971 19.6706 22.4432 19.6771C21.8109 19.7033 21.2053 19.4814 20.7399 19.0532C20.427 18.7652 20.2024 18.4078 20.0807 18.0117C20.0375 18.2101 20.0185 18.415 20.0276 18.6225" fill="white"/>
</mask>
<g mask="url(#mask12_2784_4241)">
<path d="M23.058 18.0117H20.0146V20.4679H23.058V18.0117Z" fill="#0B94CF"/>
</g>
<path fill-rule="evenodd" clip-rule="evenodd" d="M17.8737 18.3076C17.8744 18.3249 17.8744 18.3416 17.8744 18.3589C17.8744 18.3416 17.8737 18.3249 17.873 18.3076" fill="#0B94CF"/>
<mask id="mask13_2784_4241" style="mask-type:luminance" maskUnits="userSpaceOnUse" x="17" y="18" width="1" height="1">
<path d="M17.8737 18.3076C17.8744 18.3249 17.8744 18.3416 17.8744 18.3589C17.8744 18.3416 17.8737 18.3249 17.873 18.3076" fill="white"/>
</mask>
<g mask="url(#mask13_2784_4241)">
<path d="M17.8744 18.3076H17.873V18.3589H17.8744V18.3076Z" fill="#0B94CF"/>
</g>
<path fill-rule="evenodd" clip-rule="evenodd" d="M26.7292 18.5215H26.7285C26.7285 18.5381 26.7292 18.5554 26.7299 18.5721C26.7292 18.5548 26.7292 18.5381 26.7292 18.5215Z" fill="#0B94CF"/>
<mask id="mask14_2784_4241" style="mask-type:luminance" maskUnits="userSpaceOnUse" x="26" y="18" width="1" height="1">
<path d="M26.7292 18.5215H26.7285C26.7285 18.5381 26.7292 18.5554 26.7299 18.5721C26.7292 18.5548 26.7292 18.5381 26.7292 18.5215Z" fill="white"/>
</mask>
<g mask="url(#mask14_2784_4241)">
<path d="M26.7299 18.5215H26.7285V18.5721H26.7299V18.5215Z" fill="#0B94CF"/>
</g>
<path d="M27.7856 17.1484C27.7764 17.1555 27.7672 17.1626 27.7573 17.1697C27.7679 17.1619 27.7779 17.1548 27.7856 17.1484Z" fill="#0B94CF"/>
<path d="M27.7866 17.1471C27.805 17.1323 27.8149 17.123 27.8149 17.123C27.8057 17.1315 27.7958 17.1393 27.7866 17.1471Z" fill="#0B94CF"/>
<path fill-rule="evenodd" clip-rule="evenodd" d="M23.0648 19.4359C23.0151 19.487 22.6589 19.8948 22.6589 19.8948C22.6589 19.8948 22.4514 20.1161 22.1058 20.2562C21.7287 20.4087 21.1867 20.465 20.5693 20.0303C20.6381 20.1128 20.7127 20.192 20.7932 20.266C21.1061 20.554 21.4812 20.7478 21.8858 20.8368C22.0835 20.8807 22.2884 20.8984 22.4959 20.8899C23.0177 20.8683 23.5067 20.6791 23.9027 20.3524L23.9158 20.3393C24.054 20.2261 24.1227 20.0611 24.1227 19.868C24.1227 19.6238 23.9813 19.4137 23.7764 19.3128C23.6946 19.2729 23.6023 19.25 23.5054 19.25C23.3325 19.25 23.1761 19.3207 23.0642 19.4353" fill="#0B94CF"/>
<mask id="mask15_2784_4241" style="mask-type:luminance" maskUnits="userSpaceOnUse" x="20" y="19" width="5" height="2">
<path d="M23.0648 19.4359C23.0151 19.487 22.6589 19.8948 22.6589 19.8948C22.6589 19.8948 22.4514 20.1161 22.1058 20.2562C21.7287 20.4087 21.1867 20.465 20.5693 20.0303C20.6381 20.1128 20.7127 20.192 20.7932 20.266C21.1061 20.554 21.4812 20.7478 21.8858 20.8368C22.0835 20.8807 22.2884 20.8984 22.4959 20.8899C23.0177 20.8683 23.5067 20.6791 23.9027 20.3524L23.9158 20.3393C24.054 20.2261 24.1227 20.0611 24.1227 19.868C24.1227 19.6238 23.9813 19.4137 23.7764 19.3128C23.6946 19.2729 23.6023 19.25 23.5054 19.25C23.3325 19.25 23.1761 19.3207 23.0642 19.4353" fill="white"/>
</mask>
<g mask="url(#mask15_2784_4241)">
<path d="M24.1258 19.25H20.5718V20.8984H24.1258V19.25Z" fill="#0B94CF"/>
</g>
<path fill-rule="evenodd" clip-rule="evenodd" d="M8.56055 18.1963C8.56055 18.214 8.56055 18.231 8.56186 18.2487C8.58804 18.881 8.85906 19.4656 9.32516 19.8944C9.63808 20.1825 10.0132 20.3762 10.4177 20.4653C10.6161 20.5085 10.821 20.5268 11.0285 20.5183C11.6609 20.4921 12.2455 20.2211 12.6743 19.755C12.8694 19.5422 13.0461 19.3007 13.1679 19.0408C13.105 18.9242 13.0252 18.811 12.9603 18.703H12.0275C12.0275 18.9936 11.9208 19.2692 11.7231 19.484C11.5143 19.7105 11.2301 19.8427 10.9218 19.8558C10.2894 19.882 9.68455 19.6607 9.21845 19.2319C9.0476 19.0748 8.90358 18.8967 8.7877 18.703C8.69213 18.5439 8.61619 18.3737 8.56055 18.1963Z" fill="#0B94CF"/>
<mask id="mask16_2784_4241" style="mask-type:luminance" maskUnits="userSpaceOnUse" x="8" y="18" width="6" height="3">
<path d="M8.56055 18.1963C8.56055 18.214 8.56055 18.231 8.56186 18.2487C8.58804 18.881 8.85906 19.4656 9.32516 19.8944C9.63808 20.1825 10.0132 20.3762 10.4177 20.4653C10.6161 20.5085 10.821 20.5268 11.0285 20.5183C11.6609 20.4921 12.2455 20.2211 12.6743 19.755C12.8694 19.5422 13.0461 19.3007 13.1679 19.0408C13.105 18.9242 13.0252 18.811 12.9603 18.703H12.0275C12.0275 18.9936 11.9208 19.2692 11.7231 19.484C11.5143 19.7105 11.2301 19.8427 10.9218 19.8558C10.2894 19.882 9.68455 19.6607 9.21845 19.2319C9.0476 19.0748 8.90358 18.8967 8.7877 18.703C8.69213 18.5439 8.61619 18.3737 8.56055 18.1963Z" fill="white"/>
</mask>
<g mask="url(#mask16_2784_4241)">
<path d="M13.1672 18.1963H8.56055V20.5268H13.1672V18.1963Z" fill="#0B94CF"/>
</g>
<path fill-rule="evenodd" clip-rule="evenodd" d="M12.2341 18.2764C12.2341 18.293 12.2348 18.3103 12.2348 18.327C12.2348 18.3103 12.2341 18.293 12.2334 18.2764" fill="#0B94CF"/>
<mask id="mask17_2784_4241" style="mask-type:luminance" maskUnits="userSpaceOnUse" x="12" y="18" width="1" height="1">
<path d="M12.2341 18.2764C12.2341 18.293 12.2348 18.3103 12.2348 18.327C12.2348 18.3103 12.2341 18.293 12.2334 18.2764" fill="white"/>
</mask>
<g mask="url(#mask17_2784_4241)">
<path d="M12.2353 18.2764H12.2339V18.327H12.2353V18.2764Z" fill="#0B94CF"/>
</g>
<path d="M12.4385 21.3203C12.4463 21.3316 12.4533 21.3408 12.4597 21.3486C12.4526 21.3394 12.4456 21.3302 12.4385 21.3203Z" fill="#0B94CF"/>
<path d="M12.4565 21.3467C12.4714 21.3651 12.4806 21.375 12.4806 21.375C12.4721 21.3658 12.4643 21.3559 12.4565 21.3467Z" fill="#0B94CF"/>
<path fill-rule="evenodd" clip-rule="evenodd" d="M6.76876 18.5293H6.76807C6.76807 18.5459 6.76876 18.5633 6.76945 18.5799C6.76945 18.5626 6.76876 18.5459 6.76876 18.5293Z" fill="#0B94CF"/>
<mask id="mask18_2784_4241" style="mask-type:luminance" maskUnits="userSpaceOnUse" x="6" y="18" width="1" height="1">
<path d="M6.76876 18.5293H6.76807C6.76807 18.5459 6.76876 18.5633 6.76945 18.5799C6.76945 18.5626 6.76876 18.5459 6.76876 18.5293Z" fill="white"/>
</mask>
<g mask="url(#mask18_2784_4241)">
<path d="M6.76945 18.5293H6.76807V18.5799H6.76945V18.5293Z" fill="#0B94CF"/>
</g>
<path fill-rule="evenodd" clip-rule="evenodd" d="M17.8737 18.3076C17.8744 18.3249 17.8744 18.3416 17.8744 18.3589C17.8744 18.3416 17.8737 18.3249 17.873 18.3076" fill="#0B94CF"/>
<mask id="mask19_2784_4241" style="mask-type:luminance" maskUnits="userSpaceOnUse" x="17" y="18" width="1" height="1">
<path d="M17.8737 18.3076C17.8744 18.3249 17.8744 18.3416 17.8744 18.3589C17.8744 18.3416 17.8737 18.3249 17.873 18.3076" fill="white"/>
</mask>
<g mask="url(#mask19_2784_4241)">
<path d="M17.8744 18.3076H17.873V18.3589H17.8744V18.3076Z" fill="#0B94CF"/>
</g>
<path fill-rule="evenodd" clip-rule="evenodd" d="M26.7292 18.5215H26.7285C26.7285 18.5381 26.7292 18.5554 26.7299 18.5721C26.7292 18.5548 26.7292 18.5381 26.7292 18.5215Z" fill="#0B94CF"/>
<mask id="mask20_2784_4241" style="mask-type:luminance" maskUnits="userSpaceOnUse" x="26" y="18" width="1" height="1">
<path d="M26.7292 18.5215H26.7285C26.7285 18.5381 26.7292 18.5554 26.7299 18.5721C26.7292 18.5548 26.7292 18.5381 26.7292 18.5215Z" fill="white"/>
</mask>
<g mask="url(#mask20_2784_4241)">
<path d="M26.7299 18.5215H26.7285V18.5721H26.7299V18.5215Z" fill="#0B94CF"/>
</g>
<path d="M27.7856 17.1484C27.7764 17.1555 27.7672 17.1626 27.7573 17.1697C27.7679 17.1619 27.7779 17.1548 27.7856 17.1484Z" fill="#0B94CF"/>
<path d="M27.7866 17.1471C27.805 17.1323 27.8149 17.123 27.8149 17.123C27.8057 17.1315 27.7958 17.1393 27.7866 17.1471Z" fill="#0B94CF"/>
<path fill-rule="evenodd" clip-rule="evenodd" d="M8.42676 18.6132C8.42676 18.6459 8.42676 18.6786 8.42872 18.712C8.45491 19.3444 8.72593 19.929 9.19203 20.3578C9.50494 20.6452 9.88005 20.8396 10.2846 20.9286C10.4823 20.9725 10.6879 20.9901 10.8954 20.9816C11.5278 20.9554 12.1124 20.6844 12.5411 20.2183C12.8292 19.9054 13.0779 19.5303 13.167 19.1257C13.112 18.9457 12.9797 18.7742 12.8835 18.6132H11.9507C11.9507 18.9038 11.844 19.1794 11.6463 19.3941C11.4374 19.6206 11.1533 19.7529 10.845 19.766C10.2126 19.7922 9.60772 19.5709 9.14162 19.1421C8.97076 18.985 8.82674 18.8069 8.71087 18.6132C8.61464 18.4521 8.53739 18.2806 8.4824 18.1006C8.44574 18.2675 8.42741 18.439 8.42741 18.6132" fill="#0B94CF"/>
<mask id="mask21_2784_4241" style="mask-type:luminance" maskUnits="userSpaceOnUse" x="8" y="18" width="6" height="3">
<path d="M8.42676 18.6132C8.42676 18.6459 8.42676 18.6786 8.42872 18.712C8.45491 19.3444 8.72593 19.929 9.19203 20.3578C9.50494 20.6452 9.88005 20.8396 10.2846 20.9286C10.4823 20.9725 10.6879 20.9901 10.8954 20.9816C11.5278 20.9554 12.1124 20.6844 12.5411 20.2183C12.8292 19.9054 13.0779 19.5303 13.167 19.1257C13.112 18.9457 12.9797 18.7742 12.8835 18.6132H11.9507C11.9507 18.9038 11.844 19.1794 11.6463 19.3941C11.4374 19.6206 11.1533 19.7529 10.845 19.766C10.2126 19.7922 9.60772 19.5709 9.14162 19.1421C8.97076 18.985 8.82674 18.8069 8.71087 18.6132C8.61464 18.4521 8.53739 18.2806 8.4824 18.1006C8.44574 18.2675 8.42741 18.439 8.42741 18.6132" fill="white"/>
</mask>
<g mask="url(#mask21_2784_4241)">
<path d="M13.167 18.1006H8.42676V20.9901H13.167V18.1006Z" fill="#0B94CF"/>
</g>
<path fill-rule="evenodd" clip-rule="evenodd" d="M8.42676 18.5282C8.42676 18.5609 8.42676 18.5937 8.42872 18.6271C8.45491 19.2594 8.72593 19.844 9.19203 20.2728C9.50494 20.5602 9.88005 20.7546 10.2846 20.8436C10.4823 20.8875 10.6879 20.9052 10.8954 20.8967C11.5278 20.8705 12.1124 20.5995 12.5411 20.1334C12.8292 19.8205 13.0779 19.4453 13.167 19.0408C13.112 18.8608 12.9797 18.6892 12.8835 18.5282H11.9507C11.9507 18.8189 11.844 19.0945 11.6463 19.3092C11.4374 19.5357 11.1533 19.6679 10.845 19.681C10.2126 19.7072 9.60772 19.4859 9.14162 19.0571C8.97076 18.9 8.82674 18.722 8.71087 18.5282C8.61464 18.3672 8.53739 18.1956 8.4824 18.0156C8.44574 18.1826 8.42741 18.3541 8.42741 18.5282" fill="#0B94CF"/>
<mask id="mask22_2784_4241" style="mask-type:luminance" maskUnits="userSpaceOnUse" x="8" y="18" width="6" height="3">
<path d="M8.42676 18.5282C8.42676 18.5609 8.42676 18.5937 8.42872 18.6271C8.45491 19.2594 8.72593 19.844 9.19203 20.2728C9.50494 20.5602 9.88005 20.7546 10.2846 20.8436C10.4823 20.8875 10.6879 20.9052 10.8954 20.8967C11.5278 20.8705 12.1124 20.5995 12.5411 20.1334C12.8292 19.8205 13.0779 19.4453 13.167 19.0408C13.112 18.8608 12.9797 18.6892 12.8835 18.5282H11.9507C11.9507 18.8189 11.844 19.0945 11.6463 19.3092C11.4374 19.5357 11.1533 19.6679 10.845 19.681C10.2126 19.7072 9.60772 19.4859 9.14162 19.0571C8.97076 18.9 8.82674 18.722 8.71087 18.5282C8.61464 18.3672 8.53739 18.1956 8.4824 18.0156C8.44574 18.1826 8.42741 18.3541 8.42741 18.5282" fill="white"/>
</mask>
<g mask="url(#mask22_2784_4241)">
<path d="M13.167 18.0156H8.42676V20.9052H13.167V18.0156Z" fill="#0B94CF"/>
</g>
<path fill-rule="evenodd" clip-rule="evenodd" d="M12.2341 18.2764C12.2341 18.293 12.2348 18.3103 12.2348 18.327C12.2348 18.3103 12.2341 18.293 12.2334 18.2764" fill="#0B94CF"/>
<mask id="mask23_2784_4241" style="mask-type:luminance" maskUnits="userSpaceOnUse" x="12" y="18" width="1" height="1">
<path d="M12.2341 18.2764C12.2341 18.293 12.2348 18.3103 12.2348 18.327C12.2348 18.3103 12.2341 18.293 12.2334 18.2764" fill="white"/>
</mask>
<g mask="url(#mask23_2784_4241)">
<path d="M12.2353 18.2764H12.2339V18.327H12.2353V18.2764Z" fill="#0B94CF"/>
</g>
<path d="M12.4385 21.3203C12.4463 21.3316 12.4533 21.3408 12.4597 21.3486C12.4526 21.3394 12.4456 21.3302 12.4385 21.3203Z" fill="#0B94CF"/>
<path d="M12.4565 21.3467C12.4714 21.3651 12.4806 21.375 12.4806 21.375C12.4721 21.3658 12.4643 21.3559 12.4565 21.3467Z" fill="#0B94CF"/>
<path fill-rule="evenodd" clip-rule="evenodd" d="M6.76876 18.5293H6.76807C6.76807 18.5459 6.76876 18.5633 6.76945 18.5799C6.76945 18.5626 6.76876 18.5459 6.76876 18.5293Z" fill="#0B94CF"/>
<mask id="mask24_2784_4241" style="mask-type:luminance" maskUnits="userSpaceOnUse" x="6" y="18" width="1" height="1">
<path d="M6.76876 18.5293H6.76807C6.76807 18.5459 6.76876 18.5633 6.76945 18.5799C6.76945 18.5626 6.76876 18.5459 6.76876 18.5293Z" fill="white"/>
</mask>
<g mask="url(#mask24_2784_4241)">
<path d="M6.76945 18.5293H6.76807V18.5799H6.76945V18.5293Z" fill="#0B94CF"/>
</g>
<path fill-rule="evenodd" clip-rule="evenodd" d="M7.73147 20.8852H7.73213C8.06533 20.8852 8.3357 20.6148 8.3357 20.2816C8.3357 20.2731 8.3357 20.2652 8.3357 20.2574C8.24994 20.2705 8.16288 20.279 8.0745 20.2829C8.02409 20.2849 7.97303 20.2855 7.92328 20.2842C7.88858 20.2835 7.85389 20.2816 7.81985 20.2796C7.80414 20.2783 7.78908 20.277 7.77337 20.2757C7.75504 20.2744 7.73671 20.2731 7.71838 20.2705C7.69743 20.2685 7.67714 20.2652 7.65619 20.2626C7.64375 20.2613 7.63131 20.2593 7.61887 20.2574C7.59465 20.2534 7.57109 20.2495 7.54686 20.2449C7.53835 20.2436 7.52984 20.2423 7.52133 20.2403C7.49449 20.2351 7.46831 20.2292 7.44147 20.2233L7.4251 20.2194C7.3963 20.2128 7.36815 20.205 7.34 20.1971L7.33149 20.1945C7.30138 20.186 7.27192 20.1768 7.2418 20.1677H7.23853C7.20776 20.1565 7.177 20.1461 7.14688 20.1349C6.86343 20.0296 6.60026 19.8692 6.37049 19.6577C5.71061 19.0515 5.60391 18.3989 5.56201 17.5518C5.56201 17.5734 5.56528 18.357 5.56528 18.5285C5.56528 18.5605 5.56398 18.5926 5.56528 18.6247C5.59147 19.2571 5.85201 19.8417 6.31746 20.2705C6.63038 20.5585 7.00548 20.7523 7.41005 20.8413C7.47551 20.8557 7.58811 20.8819 7.67059 20.8825C7.69088 20.8825 7.71118 20.8852 7.73147 20.8858" fill="#0B94CF"/>
<mask id="mask25_2784_4241" style="mask-type:luminance" maskUnits="userSpaceOnUse" x="5" y="17" width="4" height="4">
<path d="M7.73147 20.8852H7.73213C8.06533 20.8852 8.3357 20.6148 8.3357 20.2816C8.3357 20.2731 8.3357 20.2652 8.3357 20.2574C8.24994 20.2705 8.16288 20.279 8.0745 20.2829C8.02409 20.2849 7.97303 20.2855 7.92328 20.2842C7.88858 20.2835 7.85389 20.2816 7.81985 20.2796C7.80414 20.2783 7.78908 20.277 7.77337 20.2757C7.75504 20.2744 7.73671 20.2731 7.71838 20.2705C7.69743 20.2685 7.67714 20.2652 7.65619 20.2626C7.64375 20.2613 7.63131 20.2593 7.61887 20.2574C7.59465 20.2534 7.57109 20.2495 7.54686 20.2449C7.53835 20.2436 7.52984 20.2423 7.52133 20.2403C7.49449 20.2351 7.46831 20.2292 7.44147 20.2233L7.4251 20.2194C7.3963 20.2128 7.36815 20.205 7.34 20.1971L7.33149 20.1945C7.30138 20.186 7.27192 20.1768 7.2418 20.1677H7.23853C7.20776 20.1565 7.177 20.1461 7.14688 20.1349C6.86343 20.0296 6.60026 19.8692 6.37049 19.6577C5.71061 19.0515 5.60391 18.3989 5.56201 17.5518C5.56201 17.5734 5.56528 18.357 5.56528 18.5285C5.56528 18.5605 5.56398 18.5926 5.56528 18.6247C5.59147 19.2571 5.85201 19.8417 6.31746 20.2705C6.63038 20.5585 7.00548 20.7523 7.41005 20.8413C7.47551 20.8557 7.58811 20.8819 7.67059 20.8825C7.69088 20.8825 7.71118 20.8852 7.73147 20.8858" fill="white"/>
</mask>
<g mask="url(#mask25_2784_4241)">
<path d="M8.3357 17.5518H5.56201V20.8858H8.3357V17.5518Z" fill="#0B94CF"/>
</g>
<path fill-rule="evenodd" clip-rule="evenodd" d="M10.7481 17.375C11.0558 17.3626 11.3504 17.4713 11.5776 17.6801C11.8041 17.8889 11.9363 18.173 11.9494 18.4814C11.9494 18.4971 11.9501 18.5134 11.9507 18.5291V20.6312C11.9645 21.2465 11.7432 21.8324 11.3255 22.2867C11.0382 22.599 10.6801 22.8242 10.2847 22.946C10.4824 22.9892 10.6873 23.0075 10.8948 22.999C11.5272 22.9728 12.1118 22.7018 12.5405 22.2357C12.8286 21.9228 13.0224 21.5477 13.1114 21.1431C13.148 20.9768 13.1664 20.8047 13.1664 20.6305V19.0411L12.9078 18.5442C12.8076 18.3773 12.6905 18.1769 12.5497 18.0362C12.5274 18.0139 12.5045 17.9917 12.4816 17.9707C12.0404 17.5649 11.446 17.3711 10.8503 17.3711C10.8169 17.3711 10.7828 17.3744 10.7495 17.3757V17.3744L10.7481 17.375Z" fill="#0B94CF"/>
<mask id="mask26_2784_4241" style="mask-type:luminance" maskUnits="userSpaceOnUse" x="10" y="17" width="4" height="7">
<path d="M10.7481 17.375C11.0558 17.3626 11.3504 17.4713 11.5776 17.6801C11.8041 17.8889 11.9363 18.173 11.9494 18.4814C11.9494 18.4971 11.9501 18.5134 11.9507 18.5291V20.6312C11.9645 21.2465 11.7432 21.8324 11.3255 22.2867C11.0382 22.599 10.6801 22.8242 10.2847 22.946C10.4824 22.9892 10.6873 23.0075 10.8948 22.999C11.5272 22.9728 12.1118 22.7018 12.5405 22.2357C12.8286 21.9228 13.0224 21.5477 13.1114 21.1431C13.148 20.9768 13.1664 20.8047 13.1664 20.6305V19.0411L12.9078 18.5442C12.8076 18.3773 12.6905 18.1769 12.5497 18.0362C12.5274 18.0139 12.5045 17.9917 12.4816 17.9707C12.0404 17.5649 11.446 17.3711 10.8503 17.3711C10.8169 17.3711 10.7828 17.3744 10.7495 17.3757V17.3744L10.7481 17.375Z" fill="white"/>
</mask>
<g mask="url(#mask26_2784_4241)">
<path d="M13.167 17.3594H10.2847V23.0049H13.167V17.3594Z" fill="#0B94CF"/>
</g>
<path fill-rule="evenodd" clip-rule="evenodd" d="M10.3069 16.8021C10.2846 16.8243 10.2624 16.8472 10.2414 16.8708C9.82375 17.3251 9.61884 17.911 9.63194 18.5264H9.64438C9.64438 18.2357 9.75239 17.9601 9.95009 17.7454C10.1589 17.5189 10.443 17.3867 10.7514 17.3736C11.3837 17.3474 11.9886 17.5686 12.4547 17.9974C12.6256 18.1545 12.7696 18.3326 12.8855 18.5264C12.9817 18.6874 13.1689 19.1221 13.1689 19.1221C13.1689 19.1221 13.1689 18.7005 13.1689 18.5264C13.1689 18.4936 13.1689 18.4609 13.167 18.4282C13.1408 17.7958 12.8698 17.2112 12.4037 16.7824C12.0914 16.4944 11.7111 16.2993 11.3065 16.2109C10.9406 16.3242 10.5825 16.5258 10.3062 16.8027" fill="#0B94CF"/>
<mask id="mask27_2784_4241" style="mask-type:luminance" maskUnits="userSpaceOnUse" x="9" y="16" width="5" height="4">
<path d="M10.3069 16.8021C10.2846 16.8243 10.2624 16.8472 10.2414 16.8708C9.82375 17.3251 9.61884 17.911 9.63194 18.5264H9.64438C9.64438 18.2357 9.75239 17.9601 9.95009 17.7454C10.1589 17.5189 10.443 17.3867 10.7514 17.3736C11.3837 17.3474 11.9886 17.5686 12.4547 17.9974C12.6256 18.1545 12.7696 18.3326 12.8855 18.5264C12.9817 18.6874 13.1689 19.1221 13.1689 19.1221C13.1689 19.1221 13.1689 18.7005 13.1689 18.5264C13.1689 18.4936 13.1689 18.4609 13.167 18.4282C13.1408 17.7958 12.8698 17.2112 12.4037 16.7824C12.0914 16.4944 11.7111 16.2993 11.3065 16.2109C10.9406 16.3242 10.5825 16.5258 10.3062 16.8027" fill="white"/>
</mask>
<g mask="url(#mask27_2784_4241)">
<path d="M13.1689 16.2109H9.61816V19.1228H13.1689V16.2109Z" fill="#0B94CF"/>
</g>
<path fill-rule="evenodd" clip-rule="evenodd" d="M14.1562 20.8978C14.8371 20.8978 15.3889 20.3459 15.3889 19.6651V19.4471V17.3889C15.3889 16.7081 14.8371 16.1562 14.1562 16.1562V20.8978Z" fill="#0B94CF"/>
<mask id="mask28_2784_4241" style="mask-type:luminance" maskUnits="userSpaceOnUse" x="14" y="16" width="2" height="5">
<path d="M14.1562 20.8978C14.8371 20.8978 15.3889 20.3459 15.3889 19.6651V19.4471V17.3889C15.3889 16.7081 14.8371 16.1562 14.1562 16.1562V20.8978Z" fill="white"/>
</mask>
<g mask="url(#mask28_2784_4241)">
<path d="M15.3896 16.1562H14.1562V20.8978H15.3896V16.1562Z" fill="#0B94CF"/>
</g>
<path fill-rule="evenodd" clip-rule="evenodd" d="M19.4593 13.288C19.4593 13.4987 19.4416 13.7095 19.4069 13.919L19.0338 16.1343C18.9781 16.4669 19.3604 16.694 19.6256 16.4852L23.5913 13.3619C23.9481 13.0804 23.9992 12.596 23.7851 12.2451C22.6028 13.0706 21.4265 13.3357 20.0007 13.3174C19.8187 13.3154 19.638 13.305 19.4593 13.288Z" fill="#0B94CF"/>
<mask id="mask29_2784_4241" style="mask-type:luminance" maskUnits="userSpaceOnUse" x="19" y="12" width="5" height="5">
<path d="M19.4593 13.288C19.4593 13.4987 19.4416 13.7095 19.4069 13.919L19.0338 16.1343C18.9781 16.4669 19.3604 16.694 19.6256 16.4852L23.5913 13.3619C23.9481 13.0804 23.9992 12.596 23.7851 12.2451C22.6028 13.0706 21.4265 13.3357 20.0007 13.3174C19.8187 13.3154 19.638 13.305 19.4593 13.288Z" fill="white"/>
</mask>
<g mask="url(#mask29_2784_4241)">
<path d="M23.9983 12.2451H18.9766V16.6934H23.9983V12.2451Z" fill="#0B94CF"/>
</g>
<path fill-rule="evenodd" clip-rule="evenodd" d="M19.4572 13.1731C19.4625 13.4121 19.4448 13.6805 19.4048 13.9181L19.2759 14.7024C19.3086 14.7678 19.3485 14.83 19.3976 14.8876C19.5737 15.0958 19.8297 15.2077 20.1001 15.2162C21.0316 15.247 22.6826 13.8415 22.6826 13.8415L23.4786 13.2144C23.878 12.9001 23.9788 12.4334 23.694 12.1152C23.5317 12.2252 23.3634 12.3286 23.1867 12.4242C22.5399 12.7751 22.2604 12.8249 21.6083 13.0114C20.9897 13.1875 20.1904 13.2176 19.4572 13.1731Z" fill="#0B94CF"/>
<mask id="mask30_2784_4241" style="mask-type:luminance" maskUnits="userSpaceOnUse" x="19" y="12" width="5" height="4">
<path d="M19.4572 13.1731C19.4625 13.4121 19.4448 13.6805 19.4048 13.9181L19.2759 14.7024C19.3086 14.7678 19.3485 14.83 19.3976 14.8876C19.5737 15.0958 19.8297 15.2077 20.1001 15.2162C21.0316 15.247 22.6826 13.8415 22.6826 13.8415L23.4786 13.2144C23.878 12.9001 23.9788 12.4334 23.694 12.1152C23.5317 12.2252 23.3634 12.3286 23.1867 12.4242C22.5399 12.7751 22.2604 12.8249 21.6083 13.0114C20.9897 13.1875 20.1904 13.2176 19.4572 13.1731Z" fill="white"/>
</mask>
<g mask="url(#mask30_2784_4241)">
<path d="M23.9788 12.1152H19.2759V15.247H23.9788V12.1152Z" fill="#0B94CF"/>
</g>
<path fill-rule="evenodd" clip-rule="evenodd" d="M18.9377 11.1325L19.2558 12.0634C19.3782 12.4208 19.4457 12.7953 19.4575 13.1724V13.1756C19.4764 13.336 19.6696 14.4168 21.7323 13.7779C22.9525 13.4002 24.0968 12.7567 23.7191 12.1433C23.6537 12.0654 23.5731 11.9966 23.4763 11.9436L20.1579 10.1093C20.0211 10.034 19.8803 10 19.7442 10C19.2008 10 18.736 10.5414 18.9377 11.1325Z" fill="#0B94CF"/>
<mask id="mask31_2784_4241" style="mask-type:luminance" maskUnits="userSpaceOnUse" x="18" y="10" width="6" height="4">
<path d="M18.9377 11.1325L19.2558 12.0634C19.3782 12.4208 19.4457 12.7953 19.4575 13.1724V13.1756C19.4764 13.336 19.6696 14.4168 21.7323 13.7779C22.9525 13.4002 24.0968 12.7567 23.7191 12.1433C23.6537 12.0654 23.5731 11.9966 23.4763 11.9436L20.1579 10.1093C20.0211 10.034 19.8803 10 19.7442 10C19.2008 10 18.736 10.5414 18.9377 11.1325Z" fill="white"/>
</mask>
<g mask="url(#mask31_2784_4241)">
<path d="M24.0966 10H18.7358V14.4168H24.0966V10Z" fill="#0B94CF"/>
</g>
<path fill-rule="evenodd" clip-rule="evenodd" d="M18.9377 11.1325C20.6063 13.8276 24.1067 12.7416 23.4763 11.9436L20.1579 10.1093C20.0211 10.0334 19.8803 10 19.7442 10C19.2008 10 18.736 10.5414 18.9377 11.1325Z" fill="#0B94CF"/>
<mask id="mask32_2784_4241" style="mask-type:luminance" maskUnits="userSpaceOnUse" x="18" y="10" width="6" height="3">
<path d="M18.9377 11.1325C20.6063 13.8276 24.1067 12.7416 23.4763 11.9436L20.1579 10.1093C20.0211 10.0334 19.8803 10 19.7442 10C19.2008 10 18.736 10.5414 18.9377 11.1325Z" fill="white"/>
</mask>
<g mask="url(#mask32_2784_4241)">
<path d="M24.1071 10H18.7358V13.8276H24.1071V10Z" fill="#0B94CF"/>
</g>
<ellipse cx="17" cy="43.5" rx="6" ry="1.5" fill="black" fill-opacity="0.15"/>
<path d="M26.6874 33.3491C23.7138 36.6525 20.5127 39.6555 17.4117 42.7602C17.1005 43.0717 16.8731 43.0833 16.56 42.7739C12.8063 39.0649 8.84361 35.5653 5.4898 31.4557C3.1343 28.5693 1.28148 25.4181 0.460189 21.7041C-1.79076 11.5248 4.45347 2.01327 14.0031 0.272067C23.1897 -1.40292 32.0799 4.83307 33.6974 14.1072C34.7183 19.9607 33.103 25.1098 29.6487 29.7702C28.7346 31.0033 27.765 32.1904 26.6874 33.3491ZM24.5895 6.26891C21.733 4.17898 18.5415 3.3099 15.0732 3.87985C7.51402 5.12207 2.91626 12.3872 4.46327 19.6527C5.96 26.682 12.3895 30.8239 18.8231 29.8731C25.3755 28.9049 30.7013 22.7788 29.7362 15.0762C29.2846 11.4729 27.5258 8.54684 24.5895 6.26891Z" fill="#0B94CF"/>
</svg>
