<svg width="29" height="41" viewBox="0 0 29 41" fill="none" xmlns="http://www.w3.org/2000/svg">
<path d="M2.78594 5.90376C6.70675 0.934493 12.641 -1.06633 18.4864 0.548164C24.0869 2.09503 28.2657 6.99085 28.9141 12.8548C29.3376 16.6849 28.1388 20.1988 26.5708 23.5949C23.5933 30.0434 19.3199 35.5988 14.4824 41C13.1852 39.4704 11.8996 38.0275 10.6946 36.5199C6.68636 31.5053 3.11514 26.2239 1.02981 20.0761C-0.652317 15.1169 -0.412473 10.3739 2.78594 5.90376Z" fill="#0B94CF"/>
<circle cx="14.5" cy="14.5" r="11.5" fill="white"/>
<path fill-rule="evenodd" clip-rule="evenodd" d="M21.4492 13.1396L21.4602 16.3151L21.6883 16.3718C21.7725 16.5123 21.8744 16.6434 21.9934 16.7612C22.0121 16.78 22.0309 16.7987 22.0507 16.8169C22.4027 17.1407 22.8494 17.2801 23.3225 17.2983L23.3396 17.2856C23.1402 17.2608 22.937 17.1683 22.786 17.0295C22.5955 16.8538 22.4842 16.6147 22.4737 16.3558C22.4732 16.3421 22.4726 16.3289 22.4726 16.3156V14.1636C22.4726 13.5985 22.0149 13.1402 21.4498 13.1402" fill="#0B94CF"/>
<mask id="mask0_2729_1484" style="mask-type:luminance" maskUnits="userSpaceOnUse" x="21" y="13" width="3" height="5">
<path d="M21.4492 13.1396L21.4602 16.3151L21.6883 16.3718C21.7725 16.5123 21.8744 16.6434 21.9934 16.7612C22.0121 16.78 22.0309 16.7987 22.0507 16.8169C22.4027 17.1407 22.8494 17.2801 23.3225 17.2983L23.3396 17.2856C23.1402 17.2608 22.937 17.1683 22.786 17.0295C22.5955 16.8538 22.4842 16.6147 22.4737 16.3558C22.4732 16.3421 22.4726 16.3289 22.4726 16.3156V14.1636C22.4726 13.5985 22.0149 13.1402 21.4498 13.1402" fill="white"/>
</mask>
<g mask="url(#mask0_2729_1484)">
<path d="M23.3396 13.1396H21.4492V17.2977H23.3396V13.1396Z" fill="#0B94CF"/>
</g>
<path fill-rule="evenodd" clip-rule="evenodd" d="M21.4658 15.3402L22.7706 15.3424H22.7723C22.7773 15.3424 22.7817 15.3424 22.7866 15.3424C22.8307 15.3408 22.9486 15.3325 23.0802 15.2945C23.4928 15.1623 23.7918 14.7762 23.7918 14.3201L21.4619 14.3174L21.4663 15.3408L21.4658 15.3402Z" fill="#0B94CF"/>
<path fill-rule="evenodd" clip-rule="evenodd" d="M21.5329 16.2218C21.5417 16.2548 21.5511 16.2857 21.561 16.3143C21.5511 16.2906 21.5417 16.2592 21.5329 16.2218ZM23.7918 17.7905V17.7894C23.7918 17.7828 23.7918 17.7767 23.7912 17.7701C23.783 17.5547 23.6403 17.373 23.4442 17.308C23.4013 17.2936 23.3561 17.2848 23.3093 17.2826C22.8416 17.2617 22.3999 17.0788 22.0512 16.7577C21.9086 16.6261 21.7874 16.4768 21.6899 16.3148H21.6888C21.5357 16.1011 21.458 15.4727 21.458 15.4727C21.4619 15.7282 21.4602 15.6957 21.4608 16.3148C21.4608 16.3418 21.4597 16.3688 21.4608 16.3958C21.4828 16.9279 21.702 17.4198 22.0942 17.7806C22.3569 18.0229 22.6731 18.186 23.013 18.2609C23.068 18.273 23.1628 18.295 23.2322 18.2956C23.2492 18.2956 23.2663 18.2983 23.2839 18.2983C23.5643 18.2983 23.7918 18.0708 23.7918 17.7905Z" fill="#0B94CF"/>
<mask id="mask1_2729_1484" style="mask-type:luminance" maskUnits="userSpaceOnUse" x="21" y="15" width="3" height="4">
<path d="M21.5329 16.2218C21.5417 16.2548 21.5511 16.2857 21.561 16.3143C21.5511 16.2906 21.5417 16.2592 21.5329 16.2218ZM23.7918 17.7905V17.7894C23.7918 17.7828 23.7918 17.7767 23.7912 17.7701C23.783 17.5547 23.6403 17.373 23.4442 17.308C23.4013 17.2936 23.3561 17.2848 23.3093 17.2826C22.8416 17.2617 22.3999 17.0788 22.0512 16.7577C21.9086 16.6261 21.7874 16.4768 21.6899 16.3148H21.6888C21.5357 16.1011 21.458 15.4727 21.458 15.4727C21.4619 15.7282 21.4602 15.6957 21.4608 16.3148C21.4608 16.3418 21.4597 16.3688 21.4608 16.3958C21.4828 16.9279 21.702 17.4198 22.0942 17.7806C22.3569 18.0229 22.6731 18.186 23.013 18.2609C23.068 18.273 23.1628 18.295 23.2322 18.2956C23.2492 18.2956 23.2663 18.2983 23.2839 18.2983C23.5643 18.2983 23.7918 18.0708 23.7918 17.7905Z" fill="white"/>
</mask>
<g mask="url(#mask1_2729_1484)">
<path d="M23.7918 15.4727H21.458V18.2983H23.7918V15.4727Z" fill="#0B94CF"/>
</g>
<path fill-rule="evenodd" clip-rule="evenodd" d="M17.838 16.2421V16.2493C17.838 16.2724 17.8402 16.2895 17.8435 16.3126H17.8451C17.8451 16.2906 17.8468 16.2669 17.8484 16.2443C17.8655 15.9948 17.99 15.7656 18.1811 15.5932C18.3271 15.461 18.5121 15.3768 18.7077 15.3531C18.8448 15.336 18.9798 15.3481 19.1065 15.385C19.3158 15.4462 19.5042 15.5916 19.5537 15.6412C19.6028 15.6902 19.6876 15.6841 19.7614 15.6841C20.0484 15.6841 20.2808 15.4511 20.2808 15.1642C20.2808 15.0771 20.2593 14.9951 20.2219 14.9229C20.218 14.9157 20.2142 14.9086 20.2097 14.9014C20.1949 14.8755 20.1773 14.8513 20.158 14.8282C20.1095 14.7847 20.0588 14.7439 20.0071 14.7059C19.79 14.5462 19.5251 14.4299 19.2646 14.3688C19.2557 14.3666 19.2464 14.3649 19.2376 14.3633C18.9297 14.4586 18.6482 14.6332 18.4163 14.8662C18.3976 14.8849 18.3794 14.9042 18.3612 14.9235C18.0407 15.2721 17.8622 15.7078 17.8413 16.1755C17.8402 16.1975 17.838 16.2195 17.8374 16.2416L17.838 16.2421Z" fill="#0B94CF"/>
<mask id="mask2_2729_1484" style="mask-type:luminance" maskUnits="userSpaceOnUse" x="17" y="14" width="4" height="3">
<path d="M17.838 16.2421V16.2493C17.838 16.2724 17.8402 16.2895 17.8435 16.3126H17.8451C17.8451 16.2906 17.8468 16.2669 17.8484 16.2443C17.8655 15.9948 17.99 15.7656 18.1811 15.5932C18.3271 15.461 18.5121 15.3768 18.7077 15.3531C18.8448 15.336 18.9798 15.3481 19.1065 15.385C19.3158 15.4462 19.5042 15.5916 19.5537 15.6412C19.6028 15.6902 19.6876 15.6841 19.7614 15.6841C20.0484 15.6841 20.2808 15.4511 20.2808 15.1642C20.2808 15.0771 20.2593 14.9951 20.2219 14.9229C20.218 14.9157 20.2142 14.9086 20.2097 14.9014C20.1949 14.8755 20.1773 14.8513 20.158 14.8282C20.1095 14.7847 20.0588 14.7439 20.0071 14.7059C19.79 14.5462 19.5251 14.4299 19.2646 14.3688C19.2557 14.3666 19.2464 14.3649 19.2376 14.3633C18.9297 14.4586 18.6482 14.6332 18.4163 14.8662C18.3976 14.8849 18.3794 14.9042 18.3612 14.9235C18.0407 15.2721 17.8622 15.7078 17.8413 16.1755C17.8402 16.1975 17.838 16.2195 17.8374 16.2416L17.838 16.2421Z" fill="white"/>
</mask>
<g mask="url(#mask2_2729_1484)">
<path d="M17.8379 16.3121H20.2681L20.2813 14.3633H17.8511L17.8379 16.3121Z" fill="#0B94CF"/>
</g>
<path fill-rule="evenodd" clip-rule="evenodd" d="M18.9061 15.572C18.4263 15.87 18.2787 16.5012 18.5772 16.9809L20.602 15.7234H20.6026C20.6692 15.6695 20.6913 15.5769 20.6566 15.4993C20.6081 15.3908 20.5508 15.2877 20.4847 15.1908C20.3872 15.0476 20.2616 14.9182 20.1316 14.8047L18.9066 15.572H18.9061Z" fill="#0B94CF"/>
<mask id="mask3_2729_1484" style="mask-type:luminance" maskUnits="userSpaceOnUse" x="18" y="14" width="3" height="3">
<path d="M18.9061 15.572C18.4263 15.87 18.2787 16.5012 18.5772 16.9809L20.602 15.7234H20.6026C20.6692 15.6695 20.6913 15.5769 20.6566 15.4993C20.6081 15.3908 20.5508 15.2877 20.4847 15.1908C20.3872 15.0476 20.2616 14.9182 20.1316 14.8047L18.9066 15.572H18.9061Z" fill="white"/>
</mask>
<g mask="url(#mask3_2729_1484)">
<path d="M20.6913 14.8047H18.2793V16.9809H20.6913V14.8047Z" fill="#0B94CF"/>
</g>
<path fill-rule="evenodd" clip-rule="evenodd" d="M18.8219 14.3174H18.8164C18.79 14.3174 18.7636 14.3179 18.7371 14.319C18.205 14.3411 17.7132 14.5691 17.3524 14.9613C17.1106 15.224 16.947 15.5402 16.8721 15.88V15.8811C16.9674 16.189 17.1365 16.47 17.3695 16.7013C17.3882 16.72 17.4075 16.7388 17.4267 16.7569C17.8178 17.1166 18.3246 17.3028 18.855 17.2824C18.5978 17.2918 18.3521 17.2009 18.1626 17.0268C17.972 16.8511 17.8608 16.6121 17.8498 16.3526C17.8277 15.8205 18.0249 15.3127 18.3857 14.9211C18.6275 14.6583 18.9205 14.4689 19.2527 14.3664H19.2543C19.115 14.3361 18.9668 14.3185 18.8219 14.3185V14.3174Z" fill="#0B94CF"/>
<mask id="mask4_2729_1484" style="mask-type:luminance" maskUnits="userSpaceOnUse" x="16" y="14" width="4" height="4">
<path d="M18.8219 14.3174H18.8164C18.79 14.3174 18.7636 14.3179 18.7371 14.319C18.205 14.3411 17.7132 14.5691 17.3524 14.9613C17.1106 15.224 16.947 15.5402 16.8721 15.88V15.8811C16.9674 16.189 17.1365 16.47 17.3695 16.7013C17.3882 16.72 17.4075 16.7388 17.4267 16.7569C17.8178 17.1166 18.3246 17.3028 18.855 17.2824C18.5978 17.2918 18.3521 17.2009 18.1626 17.0268C17.972 16.8511 17.8608 16.6121 17.8498 16.3526C17.8277 15.8205 18.0249 15.3127 18.3857 14.9211C18.6275 14.6583 18.9205 14.4689 19.2527 14.3664H19.2543C19.115 14.3361 18.9668 14.3185 18.8219 14.3185V14.3174Z" fill="white"/>
</mask>
<g mask="url(#mask4_2729_1484)">
<path d="M19.2636 14.3203H16.8813V17.3052H19.2636V14.3203Z" fill="#0B94CF"/>
</g>
<path fill-rule="evenodd" clip-rule="evenodd" d="M13.9161 14.3174H13.9095C13.8836 14.3174 13.8572 14.3179 13.8313 14.319C13.2915 14.3416 12.793 14.573 12.4273 14.9701C12.1816 15.2367 11.969 15.5573 11.8936 15.9021C11.9409 16.0552 12.0533 16.2023 12.1354 16.3394H12.9291L12.9307 16.3422C12.9307 16.0943 13.0222 15.8564 13.1913 15.6729C13.3692 15.4796 13.6121 15.3672 13.8748 15.3557C14.4146 15.3331 14.9307 15.5226 15.3279 15.8883C15.4733 16.0221 15.5967 16.1742 15.6953 16.3394C15.7773 16.4771 15.9371 16.7768 15.9371 16.7768C15.9371 16.7768 15.9371 16.4881 15.9371 16.3394C15.9371 16.3113 15.9371 16.2838 15.9354 16.2557C15.9128 15.7159 15.6815 15.2174 15.2844 14.8517C15.0178 14.6066 14.6972 14.4402 14.3524 14.3648C14.2125 14.3339 14.0687 14.3179 13.9227 14.3174H13.9161Z" fill="#0B94CF"/>
<mask id="mask5_2729_1484" style="mask-type:luminance" maskUnits="userSpaceOnUse" x="11" y="14" width="5" height="3">
<path d="M13.9161 14.3174H13.9095C13.8836 14.3174 13.8572 14.3179 13.8313 14.319C13.2915 14.3416 12.793 14.573 12.4273 14.9701C12.1816 15.2367 11.969 15.5573 11.8936 15.9021C11.9409 16.0552 12.0533 16.2023 12.1354 16.3394H12.9291L12.9307 16.3422C12.9307 16.0943 13.0222 15.8564 13.1913 15.6729C13.3692 15.4796 13.6121 15.3672 13.8748 15.3557C14.4146 15.3331 14.9307 15.5226 15.3279 15.8883C15.4733 16.0221 15.5967 16.1742 15.6953 16.3394C15.7773 16.4771 15.9371 16.7768 15.9371 16.7768C15.9371 16.7768 15.9371 16.4881 15.9371 16.3394C15.9371 16.3113 15.9371 16.2838 15.9354 16.2557C15.9128 15.7159 15.6815 15.2174 15.2844 14.8517C15.0178 14.6066 14.6972 14.4402 14.3524 14.3648C14.2125 14.3339 14.0687 14.3179 13.9227 14.3174H13.9161Z" fill="white"/>
</mask>
<g mask="url(#mask5_2729_1484)">
<path d="M15.9366 14.3174H11.8926V16.7768H15.9366V14.3174Z" fill="#0B94CF"/>
</g>
<path fill-rule="evenodd" clip-rule="evenodd" d="M15.9368 18.313V16.7763L15.695 16.3389C15.6096 16.1963 15.5061 16.0635 15.3855 15.944C15.3662 15.9253 15.3469 15.9065 15.3271 15.8878C14.9509 15.5413 14.4683 15.3535 13.9599 15.3535C13.933 15.3535 13.906 15.3535 13.879 15.3552C14.1395 15.3458 14.389 15.4378 14.5807 15.6146C14.7741 15.7925 14.887 16.0354 14.898 16.2982C14.8985 16.3119 14.8991 16.3251 14.8991 16.3389V17.2758C14.8991 17.8487 15.3634 18.313 15.9363 18.313H15.9368Z" fill="#0B94CF"/>
<mask id="mask6_2729_1484" style="mask-type:luminance" maskUnits="userSpaceOnUse" x="13" y="15" width="3" height="4">
<path d="M15.9368 18.313V16.7763L15.695 16.3389C15.6096 16.1963 15.5061 16.0635 15.3855 15.944C15.3662 15.9253 15.3469 15.9065 15.3271 15.8878C14.9509 15.5413 14.4683 15.3535 13.9599 15.3535C13.933 15.3535 13.906 15.3535 13.879 15.3552C14.1395 15.3458 14.389 15.4378 14.5807 15.6146C14.7741 15.7925 14.887 16.0354 14.898 16.2982C14.8985 16.3119 14.8991 16.3251 14.8991 16.3389V17.2758C14.8991 17.8487 15.3634 18.313 15.9363 18.313H15.9368Z" fill="white"/>
</mask>
<g mask="url(#mask6_2729_1484)">
<path d="M15.9368 15.3457H13.874V18.3129H15.9368V15.3457Z" fill="#0B94CF"/>
</g>
<path fill-rule="evenodd" clip-rule="evenodd" d="M10.2773 17.9169V17.9092C10.2767 17.9323 10.2751 17.9626 10.2734 17.9852H10.2751L10.2778 17.9868C10.2778 17.9637 10.2778 17.94 10.2773 17.9169Z" fill="#0B94CF"/>
<path fill-rule="evenodd" clip-rule="evenodd" d="M9.71542 18.8091C9.56945 18.9413 9.38438 19.0256 9.18939 19.0498C9.05224 19.0669 8.91729 19.0547 8.7906 19.0178C8.5813 18.9567 8.39843 18.797 8.36207 18.7749C8.30038 18.738 8.2095 18.7182 8.13569 18.7182C7.84872 18.7182 7.61572 18.9506 7.61572 19.2382C7.61572 19.3252 7.6372 19.4073 7.67521 19.4794C7.67907 19.4866 7.68292 19.4937 7.68733 19.5009C7.7022 19.5268 7.71983 19.551 7.7391 19.5742C7.78758 19.6177 7.83825 19.6584 7.89003 19.6964C8.11421 19.8611 8.38631 19.9812 8.6551 20.0402C9.45544 19.7934 10.0035 19.0597 10.0415 18.2236C10.0426 18.2015 10.0437 18.179 10.0437 18.1564L10.0354 18.1553C10.0184 18.4048 9.90655 18.6372 9.71542 18.8096" fill="#0B94CF"/>
<mask id="mask7_2729_1484" style="mask-type:luminance" maskUnits="userSpaceOnUse" x="7" y="18" width="4" height="3">
<path d="M9.71542 18.8091C9.56945 18.9413 9.38438 19.0256 9.18939 19.0498C9.05224 19.0669 8.91729 19.0547 8.7906 19.0178C8.5813 18.9567 8.39843 18.797 8.36207 18.7749C8.30038 18.738 8.2095 18.7182 8.13569 18.7182C7.84872 18.7182 7.61572 18.9506 7.61572 19.2382C7.61572 19.3252 7.6372 19.4073 7.67521 19.4794C7.67907 19.4866 7.68292 19.4937 7.68733 19.5009C7.7022 19.5268 7.71983 19.551 7.7391 19.5742C7.78758 19.6177 7.83825 19.6584 7.89003 19.6964C8.11421 19.8611 8.38631 19.9812 8.6551 20.0402C9.45544 19.7934 10.0035 19.0597 10.0415 18.2236C10.0426 18.2015 10.0437 18.179 10.0437 18.1564L10.0354 18.1553C10.0184 18.4048 9.90655 18.6372 9.71542 18.8096" fill="white"/>
</mask>
<g mask="url(#mask7_2729_1484)">
<path d="M10.0437 18.1543H7.61572V20.0392H10.0437V18.1543Z" fill="#0B94CF"/>
</g>
<path fill-rule="evenodd" clip-rule="evenodd" d="M9.06895 14.3238H9.06234C9.03645 14.3238 9.01112 14.3243 8.98468 14.3254C8.45259 14.3475 7.96072 14.5755 7.59994 14.9677C7.35813 15.231 7.19454 15.5466 7.11963 15.887C7.1659 16.0379 7.23089 16.1828 7.31186 16.3183C7.39614 16.4587 7.49804 16.5898 7.61701 16.7083C7.63574 16.727 7.65502 16.7452 7.6743 16.7633C8.06647 17.1241 8.57542 17.3103 9.10751 17.2883C8.84863 17.2987 8.60076 17.2084 8.40963 17.0327C8.21905 16.857 8.10779 16.6179 8.09677 16.3585C8.09677 16.3453 8.09567 16.3315 8.09567 16.3183C8.0841 15.8005 8.27027 15.3075 8.62169 14.9253C8.86405 14.662 9.16479 14.4731 9.49804 14.3701H9.49748C9.35978 14.3398 9.21822 14.3238 9.07446 14.3232H9.06785L9.06895 14.3238Z" fill="#0B94CF"/>
<mask id="mask8_2729_1484" style="mask-type:luminance" maskUnits="userSpaceOnUse" x="7" y="14" width="3" height="4">
<path d="M9.06895 14.3238H9.06234C9.03645 14.3238 9.01112 14.3243 8.98468 14.3254C8.45259 14.3475 7.96072 14.5755 7.59994 14.9677C7.35813 15.231 7.19454 15.5466 7.11963 15.887C7.1659 16.0379 7.23089 16.1828 7.31186 16.3183C7.39614 16.4587 7.49804 16.5898 7.61701 16.7083C7.63574 16.727 7.65502 16.7452 7.6743 16.7633C8.06647 17.1241 8.57542 17.3103 9.10751 17.2883C8.84863 17.2987 8.60076 17.2084 8.40963 17.0327C8.21905 16.857 8.10779 16.6179 8.09677 16.3585C8.09677 16.3453 8.09567 16.3315 8.09567 16.3183C8.0841 15.8005 8.27027 15.3075 8.62169 14.9253C8.86405 14.662 9.16479 14.4731 9.49804 14.3701H9.49748C9.35978 14.3398 9.21822 14.3238 9.07446 14.3232H9.06785L9.06895 14.3238Z" fill="white"/>
</mask>
<g mask="url(#mask8_2729_1484)">
<path d="M9.49907 14.3232H7.12012V17.3097H9.49907V14.3232Z" fill="#0B94CF"/>
</g>
<path fill-rule="evenodd" clip-rule="evenodd" d="M4.66211 15.4756C4.66872 16.1658 4.80918 16.7788 5.34291 17.2701C5.5357 17.4475 5.75767 17.5824 5.99618 17.6717C6.20328 17.7488 6.42306 17.7918 6.64889 17.7967C6.6913 17.7978 6.73371 17.7973 6.77613 17.7956C6.85049 17.7923 6.92374 17.7851 6.9959 17.7741C6.98709 17.5588 6.84443 17.377 6.64889 17.312C6.60593 17.2977 6.56076 17.2889 6.51394 17.2867C6.0463 17.2657 5.60455 17.0829 5.25588 16.7617C5.11267 16.6301 4.99205 16.4808 4.89455 16.3189H4.89345C4.73922 16.103 4.66266 15.4761 4.66266 15.4761" fill="#0B94CF"/>
<mask id="mask9_2729_1484" style="mask-type:luminance" maskUnits="userSpaceOnUse" x="4" y="15" width="3" height="3">
<path d="M4.66211 15.4756C4.66872 16.1658 4.80918 16.7788 5.34291 17.2701C5.5357 17.4475 5.75767 17.5824 5.99618 17.6717C6.20328 17.7488 6.42306 17.7918 6.64889 17.7967C6.6913 17.7978 6.73371 17.7973 6.77613 17.7956C6.85049 17.7923 6.92374 17.7851 6.9959 17.7741C6.98709 17.5588 6.84443 17.377 6.64889 17.312C6.60593 17.2977 6.56076 17.2889 6.51394 17.2867C6.0463 17.2657 5.60455 17.0829 5.25588 16.7617C5.11267 16.6301 4.99205 16.4808 4.89455 16.3189H4.89345C4.73922 16.103 4.66266 15.4761 4.66266 15.4761" fill="white"/>
</mask>
<g mask="url(#mask9_2729_1484)">
<path d="M6.9959 15.4756H4.66211V17.7973H6.9959V15.4756Z" fill="#0B94CF"/>
</g>
<path fill-rule="evenodd" clip-rule="evenodd" d="M4.65479 13.1426C4.65479 13.1426 5.1428 13.5215 5.1428 14.1159V16.318C5.1406 16.4497 5.14941 16.5774 5.172 16.7074C5.19073 16.7262 5.23644 16.7449 5.25627 16.7631C5.60659 17.0853 6.0522 17.2704 6.5281 17.288L6.53195 17.2869C6.33311 17.2621 6.14253 17.1707 5.99216 17.0324C5.80158 16.8567 5.69031 16.6177 5.6793 16.3588C5.6793 16.345 5.67819 16.3318 5.67819 16.3186V14.166C5.67819 13.6009 5.21992 13.1426 4.65534 13.1426H4.65479Z" fill="#0B94CF"/>
<mask id="mask10_2729_1484" style="mask-type:luminance" maskUnits="userSpaceOnUse" x="4" y="13" width="3" height="5">
<path d="M4.65479 13.1426C4.65479 13.1426 5.1428 13.5215 5.1428 14.1159V16.318C5.1406 16.4497 5.14941 16.5774 5.172 16.7074C5.19073 16.7262 5.23644 16.7449 5.25627 16.7631C5.60659 17.0853 6.0522 17.2704 6.5281 17.288L6.53195 17.2869C6.33311 17.2621 6.14253 17.1707 5.99216 17.0324C5.80158 16.8567 5.69031 16.6177 5.6793 16.3588C5.6793 16.345 5.67819 16.3318 5.67819 16.3186V14.166C5.67819 13.6009 5.21992 13.1426 4.65534 13.1426H4.65479Z" fill="white"/>
</mask>
<g mask="url(#mask10_2729_1484)">
<path d="M6.5314 13.1426H4.65479V17.288H6.5314V13.1426Z" fill="#0B94CF"/>
</g>
<path fill-rule="evenodd" clip-rule="evenodd" d="M4.65479 13.1426L4.6658 16.318H4.89329C4.97756 16.4585 5.07946 16.5896 5.19844 16.7074C5.18356 16.6215 5.1742 16.5339 5.17035 16.4458C5.16869 16.4028 5.16814 16.3604 5.16924 16.318V14.1159C5.16924 13.5221 4.65479 13.1426 4.65479 13.1426Z" fill="#0B94CF"/>
<mask id="mask11_2729_1484" style="mask-type:luminance" maskUnits="userSpaceOnUse" x="4" y="13" width="2" height="4">
<path d="M4.65479 13.1426L4.6658 16.318H4.89329C4.97756 16.4585 5.07946 16.5896 5.19844 16.7074C5.18356 16.6215 5.1742 16.5339 5.17035 16.4458C5.16869 16.4028 5.16814 16.3604 5.16924 16.318V14.1159C5.16924 13.5221 4.65479 13.1426 4.65479 13.1426Z" fill="white"/>
</mask>
<g mask="url(#mask11_2729_1484)">
<path d="M5.19844 13.1426H4.65479V16.7074H5.19844V13.1426Z" fill="#0B94CF"/>
</g>
<path fill-rule="evenodd" clip-rule="evenodd" d="M16.8314 16.3982C16.8495 16.8389 17.0087 17.2515 17.2852 17.5847C17.8046 17.9504 18.2728 17.9163 18.5907 17.7879C18.8815 17.6701 19.0891 17.4867 19.0891 17.4867L19.3904 17.084C19.3232 17.1402 19.2874 17.1628 19.245 17.1832C19.1266 17.2404 18.9944 17.2795 18.865 17.2851C18.3329 17.3071 17.8234 17.1204 17.4317 16.7601C17.1685 16.5178 16.9795 16.217 16.8771 15.8838C16.8407 16.0507 16.8248 16.2231 16.8325 16.3977" fill="#0B94CF"/>
<mask id="mask12_2729_1484" style="mask-type:luminance" maskUnits="userSpaceOnUse" x="16" y="15" width="4" height="3">
<path d="M16.8314 16.3982C16.8495 16.8389 17.0087 17.2515 17.2852 17.5847C17.8046 17.9504 18.2728 17.9163 18.5907 17.7879C18.8815 17.6701 19.0891 17.4867 19.0891 17.4867L19.3904 17.084C19.3232 17.1402 19.2874 17.1628 19.245 17.1832C19.1266 17.2404 18.9944 17.2795 18.865 17.2851C18.3329 17.3071 17.8234 17.1204 17.4317 16.7601C17.1685 16.5178 16.9795 16.217 16.8771 15.8838C16.8407 16.0507 16.8248 16.2231 16.8325 16.3977" fill="white"/>
</mask>
<g mask="url(#mask12_2729_1484)">
<path d="M19.3845 15.8838H16.8237V17.9504H19.3845V15.8838Z" fill="#0B94CF"/>
</g>
<path fill-rule="evenodd" clip-rule="evenodd" d="M15.0196 16.1309C15.0201 16.1446 15.0201 16.1578 15.0201 16.1716C15.0201 16.1578 15.0196 16.1446 15.019 16.1309" fill="#0B94CF"/>
<mask id="mask13_2729_1484" style="mask-type:luminance" maskUnits="userSpaceOnUse" x="15" y="16" width="1" height="1">
<path d="M15.0196 16.1309C15.0201 16.1446 15.0201 16.1578 15.0201 16.1716C15.0201 16.1578 15.0196 16.1446 15.019 16.1309" fill="white"/>
</mask>
<g mask="url(#mask13_2729_1484)">
<path d="M15.0206 16.1309H15.0195V16.1716H15.0206V16.1309Z" fill="#0B94CF"/>
</g>
<path fill-rule="evenodd" clip-rule="evenodd" d="M22.4732 16.3145H22.4727C22.4727 16.3277 22.4732 16.3414 22.4738 16.3547C22.4732 16.3409 22.4732 16.3277 22.4732 16.3145Z" fill="#0B94CF"/>
<mask id="mask14_2729_1484" style="mask-type:luminance" maskUnits="userSpaceOnUse" x="22" y="16" width="1" height="1">
<path d="M22.4732 16.3145H22.4727C22.4727 16.3277 22.4732 16.3414 22.4738 16.3547C22.4732 16.3409 22.4732 16.3277 22.4732 16.3145Z" fill="white"/>
</mask>
<g mask="url(#mask14_2729_1484)">
<path d="M22.4738 16.3145H22.4727V16.3547H22.4738V16.3145Z" fill="#0B94CF"/>
</g>
<path d="M23.3607 15.1572C23.3534 15.1628 23.3462 15.1684 23.3384 15.174C23.3467 15.1678 23.3546 15.1622 23.3607 15.1572Z" fill="#0B94CF"/>
<path d="M23.3613 15.1567C23.3758 15.1449 23.3836 15.1377 23.3836 15.1377C23.3764 15.1444 23.3686 15.1505 23.3613 15.1567Z" fill="#0B94CF"/>
<path fill-rule="evenodd" clip-rule="evenodd" d="M19.3897 17.0832C19.3479 17.1262 19.0482 17.4693 19.0482 17.4693C19.0482 17.4693 18.8736 17.6555 18.5828 17.7734C18.2655 17.9017 17.8095 17.9491 17.29 17.5833C17.3479 17.6527 17.4107 17.7194 17.4784 17.7816C17.7417 18.024 18.0573 18.187 18.3977 18.2619C18.5641 18.2988 18.7365 18.3137 18.9111 18.3065C19.3501 18.2884 19.7615 18.1292 20.0948 17.8543L20.1058 17.8433C20.222 17.748 20.2798 17.6092 20.2798 17.4467C20.2798 17.2413 20.1609 17.0645 19.9885 16.9796C19.9196 16.946 19.842 16.9268 19.7604 16.9268C19.615 16.9268 19.4834 16.9862 19.3892 17.0826" fill="#0B94CF"/>
<mask id="mask15_2729_1484" style="mask-type:luminance" maskUnits="userSpaceOnUse" x="17" y="16" width="4" height="3">
<path d="M19.3897 17.0832C19.3479 17.1262 19.0482 17.4693 19.0482 17.4693C19.0482 17.4693 18.8736 17.6555 18.5828 17.7734C18.2655 17.9017 17.8095 17.9491 17.29 17.5833C17.3479 17.6527 17.4107 17.7194 17.4784 17.7816C17.7417 18.024 18.0573 18.187 18.3977 18.2619C18.5641 18.2988 18.7365 18.3137 18.9111 18.3065C19.3501 18.2884 19.7615 18.1292 20.0948 17.8543L20.1058 17.8433C20.222 17.748 20.2798 17.6092 20.2798 17.4467C20.2798 17.2413 20.1609 17.0645 19.9885 16.9796C19.9196 16.946 19.842 16.9268 19.7604 16.9268C19.615 16.9268 19.4834 16.9862 19.3892 17.0826" fill="white"/>
</mask>
<g mask="url(#mask15_2729_1484)">
<path d="M20.2814 16.9277H17.291V18.3147H20.2814V16.9277Z" fill="#0B94CF"/>
</g>
<path fill-rule="evenodd" clip-rule="evenodd" d="M7.18555 16.0391C7.18555 16.0539 7.18555 16.0683 7.18665 16.0831C7.20868 16.6152 7.43672 17.1071 7.8289 17.4679C8.09218 17.7102 8.4078 17.8733 8.7482 17.9482C8.9151 17.9845 9.0875 18 9.26211 17.9928C9.79419 17.9708 10.2861 17.7427 10.6468 17.3505C10.811 17.1715 10.9597 16.9683 11.0622 16.7496C11.0093 16.6516 10.9421 16.5563 10.8876 16.4654H10.1026C10.1026 16.71 10.0129 16.9418 9.84652 17.1225C9.67081 17.3131 9.43176 17.4244 9.17233 17.4354C8.64024 17.4574 8.13129 17.2712 7.73911 16.9104C7.59535 16.7783 7.47417 16.6284 7.37668 16.4654C7.29626 16.3315 7.23237 16.1883 7.18555 16.0391Z" fill="#0B94CF"/>
<mask id="mask16_2729_1484" style="mask-type:luminance" maskUnits="userSpaceOnUse" x="7" y="16" width="5" height="2">
<path d="M7.18555 16.0391C7.18555 16.0539 7.18555 16.0683 7.18665 16.0831C7.20868 16.6152 7.43672 17.1071 7.8289 17.4679C8.09218 17.7102 8.4078 17.8733 8.7482 17.9482C8.9151 17.9845 9.0875 18 9.26211 17.9928C9.79419 17.9708 10.2861 17.7427 10.6468 17.3505C10.811 17.1715 10.9597 16.9683 11.0622 16.7496C11.0093 16.6516 10.9421 16.5563 10.8876 16.4654H10.1026C10.1026 16.71 10.0129 16.9418 9.84652 17.1225C9.67081 17.3131 9.43176 17.4244 9.17233 17.4354C8.64024 17.4574 8.13129 17.2712 7.73911 16.9104C7.59535 16.7783 7.47417 16.6284 7.37668 16.4654C7.29626 16.3315 7.23237 16.1883 7.18555 16.0391Z" fill="white"/>
</mask>
<g mask="url(#mask16_2729_1484)">
<path d="M11.0616 16.0391H7.18555V18H11.0616V16.0391Z" fill="#0B94CF"/>
</g>
<path fill-rule="evenodd" clip-rule="evenodd" d="M10.2755 16.1074C10.2755 16.1206 10.276 16.1344 10.276 16.1476C10.276 16.1344 10.2755 16.1206 10.2749 16.1074" fill="#0B94CF"/>
<mask id="mask17_2729_1484" style="mask-type:luminance" maskUnits="userSpaceOnUse" x="10" y="16" width="1" height="1">
<path d="M10.2755 16.1074C10.2755 16.1206 10.276 16.1344 10.276 16.1476C10.276 16.1344 10.2755 16.1206 10.2749 16.1074" fill="white"/>
</mask>
<g mask="url(#mask17_2729_1484)">
<path d="M10.2765 16.1074H10.2754V16.1476H10.2765V16.1074Z" fill="#0B94CF"/>
</g>
<path d="M10.4473 18.666C10.4534 18.6749 10.459 18.6822 10.464 18.6883C10.4584 18.6811 10.4528 18.6738 10.4473 18.666Z" fill="#0B94CF"/>
<path d="M10.4634 18.6885C10.4751 18.703 10.4823 18.7108 10.4823 18.7108C10.4756 18.7035 10.4695 18.6957 10.4634 18.6885Z" fill="#0B94CF"/>
<path fill-rule="evenodd" clip-rule="evenodd" d="M5.6778 16.3193H5.67725C5.67725 16.3326 5.6778 16.3463 5.67835 16.3595C5.67835 16.3458 5.6778 16.3326 5.6778 16.3193Z" fill="#0B94CF"/>
<mask id="mask18_2729_1484" style="mask-type:luminance" maskUnits="userSpaceOnUse" x="5" y="16" width="1" height="1">
<path d="M5.6778 16.3193H5.67725C5.67725 16.3326 5.6778 16.3463 5.67835 16.3595C5.67835 16.3458 5.6778 16.3326 5.6778 16.3193Z" fill="white"/>
</mask>
<g mask="url(#mask18_2729_1484)">
<path d="M5.67835 16.3193H5.67725V16.3595H5.67835V16.3193Z" fill="#0B94CF"/>
</g>
<path fill-rule="evenodd" clip-rule="evenodd" d="M15.0196 16.1309C15.0201 16.1446 15.0201 16.1578 15.0201 16.1716C15.0201 16.1578 15.0196 16.1446 15.019 16.1309" fill="#0B94CF"/>
<mask id="mask19_2729_1484" style="mask-type:luminance" maskUnits="userSpaceOnUse" x="15" y="16" width="1" height="1">
<path d="M15.0196 16.1309C15.0201 16.1446 15.0201 16.1578 15.0201 16.1716C15.0201 16.1578 15.0196 16.1446 15.019 16.1309" fill="white"/>
</mask>
<g mask="url(#mask19_2729_1484)">
<path d="M15.0206 16.1309H15.0195V16.1716H15.0206V16.1309Z" fill="#0B94CF"/>
</g>
<path fill-rule="evenodd" clip-rule="evenodd" d="M22.4732 16.3145H22.4727C22.4727 16.3277 22.4732 16.3414 22.4738 16.3547C22.4732 16.3409 22.4732 16.3277 22.4732 16.3145Z" fill="#0B94CF"/>
<mask id="mask20_2729_1484" style="mask-type:luminance" maskUnits="userSpaceOnUse" x="22" y="16" width="1" height="1">
<path d="M22.4732 16.3145H22.4727C22.4727 16.3277 22.4732 16.3414 22.4738 16.3547C22.4732 16.3409 22.4732 16.3277 22.4732 16.3145Z" fill="white"/>
</mask>
<g mask="url(#mask20_2729_1484)">
<path d="M22.4738 16.3145H22.4727V16.3547H22.4738V16.3145Z" fill="#0B94CF"/>
</g>
<path d="M23.3607 15.1572C23.3534 15.1628 23.3462 15.1684 23.3384 15.174C23.3467 15.1678 23.3546 15.1622 23.3607 15.1572Z" fill="#0B94CF"/>
<path d="M23.3613 15.1567C23.3758 15.1449 23.3836 15.1377 23.3836 15.1377C23.3764 15.1444 23.3686 15.1505 23.3613 15.1567Z" fill="#0B94CF"/>
<path fill-rule="evenodd" clip-rule="evenodd" d="M7.07373 16.3873C7.07373 16.4149 7.07373 16.4424 7.07538 16.4705C7.09742 17.0026 7.32545 17.4945 7.71763 17.8553C7.98092 18.0971 8.29653 18.2607 8.63694 18.3356C8.80328 18.3725 8.97624 18.3873 9.15084 18.3802C9.68293 18.3581 10.1748 18.1301 10.5356 17.7379C10.7779 17.4746 10.9873 17.159 11.0622 16.8186C11.0159 16.6672 10.9046 16.5228 10.8237 16.3873H10.0388C10.0388 16.6319 9.94897 16.8638 9.78262 17.0445C9.60691 17.235 9.36786 17.3463 9.10843 17.3573C8.57635 17.3794 8.0674 17.1932 7.67522 16.8324C7.53146 16.7002 7.41028 16.5504 7.31278 16.3873C7.23181 16.2518 7.16682 16.1075 7.12055 15.9561C7.0897 16.0965 7.07428 16.2408 7.07428 16.3873" fill="#0B94CF"/>
<mask id="mask21_2729_1484" style="mask-type:luminance" maskUnits="userSpaceOnUse" x="7" y="15" width="5" height="4">
<path d="M7.07373 16.3873C7.07373 16.4149 7.07373 16.4424 7.07538 16.4705C7.09742 17.0026 7.32545 17.4945 7.71763 17.8553C7.98092 18.0971 8.29653 18.2607 8.63694 18.3356C8.80328 18.3725 8.97624 18.3873 9.15084 18.3802C9.68293 18.3581 10.1748 18.1301 10.5356 17.7379C10.7779 17.4746 10.9873 17.159 11.0622 16.8186C11.0159 16.6672 10.9046 16.5228 10.8237 16.3873H10.0388C10.0388 16.6319 9.94897 16.8638 9.78262 17.0445C9.60691 17.235 9.36786 17.3463 9.10843 17.3573C8.57635 17.3794 8.0674 17.1932 7.67522 16.8324C7.53146 16.7002 7.41028 16.5504 7.31278 16.3873C7.23181 16.2518 7.16682 16.1075 7.12055 15.9561C7.0897 16.0965 7.07428 16.2408 7.07428 16.3873" fill="white"/>
</mask>
<g mask="url(#mask21_2729_1484)">
<path d="M11.0617 15.9561H7.07324V18.3873H11.0617V15.9561Z" fill="#0B94CF"/>
</g>
<path fill-rule="evenodd" clip-rule="evenodd" d="M7.07373 16.317C7.07373 16.3446 7.07373 16.3721 7.07538 16.4002C7.09742 16.9323 7.32545 17.4242 7.71763 17.7849C7.98092 18.0267 8.29653 18.1903 8.63694 18.2652C8.80328 18.3022 8.97624 18.317 9.15084 18.3099C9.68293 18.2878 10.1748 18.0598 10.5356 17.6676C10.7779 17.4043 10.9873 17.0887 11.0622 16.7483C11.0159 16.5968 10.9046 16.4525 10.8237 16.317H10.0388C10.0388 16.5616 9.94897 16.7935 9.78262 16.9741C9.60691 17.1647 9.36786 17.276 9.10843 17.287C8.57635 17.309 8.0674 17.1229 7.67522 16.7621C7.53146 16.6299 7.41028 16.4801 7.31278 16.317C7.23181 16.1815 7.16682 16.0372 7.12055 15.8857C7.0897 16.0262 7.07428 16.1705 7.07428 16.317" fill="#0B94CF"/>
<mask id="mask22_2729_1484" style="mask-type:luminance" maskUnits="userSpaceOnUse" x="7" y="15" width="5" height="4">
<path d="M7.07373 16.317C7.07373 16.3446 7.07373 16.3721 7.07538 16.4002C7.09742 16.9323 7.32545 17.4242 7.71763 17.7849C7.98092 18.0267 8.29653 18.1903 8.63694 18.2652C8.80328 18.3022 8.97624 18.317 9.15084 18.3099C9.68293 18.2878 10.1748 18.0598 10.5356 17.6676C10.7779 17.4043 10.9873 17.0887 11.0622 16.7483C11.0159 16.5968 10.9046 16.4525 10.8237 16.317H10.0388C10.0388 16.5616 9.94897 16.7935 9.78262 16.9741C9.60691 17.1647 9.36786 17.276 9.10843 17.287C8.57635 17.309 8.0674 17.1229 7.67522 16.7621C7.53146 16.6299 7.41028 16.4801 7.31278 16.317C7.23181 16.1815 7.16682 16.0372 7.12055 15.8857C7.0897 16.0262 7.07428 16.1705 7.07428 16.317" fill="white"/>
</mask>
<g mask="url(#mask22_2729_1484)">
<path d="M11.0617 15.8857H7.07324V18.317H11.0617V15.8857Z" fill="#0B94CF"/>
</g>
<path fill-rule="evenodd" clip-rule="evenodd" d="M10.2755 16.1074C10.2755 16.1206 10.276 16.1344 10.276 16.1476C10.276 16.1344 10.2755 16.1206 10.2749 16.1074" fill="#0B94CF"/>
<mask id="mask23_2729_1484" style="mask-type:luminance" maskUnits="userSpaceOnUse" x="10" y="16" width="1" height="1">
<path d="M10.2755 16.1074C10.2755 16.1206 10.276 16.1344 10.276 16.1476C10.276 16.1344 10.2755 16.1206 10.2749 16.1074" fill="white"/>
</mask>
<g mask="url(#mask23_2729_1484)">
<path d="M10.2765 16.1074H10.2754V16.1476H10.2765V16.1074Z" fill="#0B94CF"/>
</g>
<path d="M10.4473 18.666C10.4534 18.6749 10.459 18.6822 10.464 18.6883C10.4584 18.6811 10.4528 18.6738 10.4473 18.666Z" fill="#0B94CF"/>
<path d="M10.4634 18.6885C10.4751 18.703 10.4823 18.7108 10.4823 18.7108C10.4756 18.7035 10.4695 18.6957 10.4634 18.6885Z" fill="#0B94CF"/>
<path fill-rule="evenodd" clip-rule="evenodd" d="M5.6778 16.3193H5.67725C5.67725 16.3326 5.6778 16.3463 5.67835 16.3595C5.67835 16.3458 5.6778 16.3326 5.6778 16.3193Z" fill="#0B94CF"/>
<mask id="mask24_2729_1484" style="mask-type:luminance" maskUnits="userSpaceOnUse" x="5" y="16" width="1" height="1">
<path d="M5.6778 16.3193H5.67725C5.67725 16.3326 5.6778 16.3463 5.67835 16.3595C5.67835 16.3458 5.6778 16.3326 5.6778 16.3193Z" fill="white"/>
</mask>
<g mask="url(#mask24_2729_1484)">
<path d="M5.67835 16.3193H5.67725V16.3595H5.67835V16.3193Z" fill="#0B94CF"/>
</g>
<path fill-rule="evenodd" clip-rule="evenodd" d="M6.48799 18.3018H6.48854C6.7689 18.3018 6.99639 18.0743 6.99639 17.794C6.99639 17.7868 6.99639 17.7802 6.99639 17.7736C6.92423 17.7846 6.85097 17.7918 6.77661 17.7951C6.7342 17.7967 6.69124 17.7973 6.64938 17.7962C6.62018 17.7956 6.59099 17.794 6.56235 17.7923C6.54913 17.7912 6.53646 17.7901 6.52324 17.789C6.50782 17.7879 6.4924 17.7868 6.47697 17.7846C6.45935 17.7829 6.44227 17.7802 6.42465 17.778C6.41418 17.7769 6.40371 17.7752 6.39325 17.7736C6.37287 17.7703 6.35304 17.767 6.33266 17.7631C6.3255 17.762 6.31834 17.7609 6.31118 17.7593C6.28859 17.7548 6.26656 17.7499 6.24398 17.7449L6.23021 17.7416C6.20597 17.7361 6.18229 17.7295 6.1586 17.7229L6.15144 17.7207C6.12611 17.7135 6.10132 17.7058 6.07598 17.6981H6.07323C6.04734 17.6888 6.02145 17.6799 5.99611 17.6706C5.75761 17.5819 5.53619 17.4469 5.34285 17.269C4.78763 16.759 4.69785 16.2098 4.6626 15.4971C4.6626 15.5152 4.66535 16.1746 4.66535 16.3189C4.66535 16.3459 4.66425 16.3729 4.66535 16.3999C4.68738 16.9319 4.90661 17.4238 5.29823 17.7846C5.56152 18.027 5.87714 18.19 6.21754 18.2649C6.27262 18.277 6.36736 18.2991 6.43676 18.2996C6.45384 18.2996 6.47091 18.3018 6.48799 18.3024" fill="#0B94CF"/>
<mask id="mask25_2729_1484" style="mask-type:luminance" maskUnits="userSpaceOnUse" x="4" y="15" width="3" height="4">
<path d="M6.48799 18.3018H6.48854C6.7689 18.3018 6.99639 18.0743 6.99639 17.794C6.99639 17.7868 6.99639 17.7802 6.99639 17.7736C6.92423 17.7846 6.85097 17.7918 6.77661 17.7951C6.7342 17.7967 6.69124 17.7973 6.64938 17.7962C6.62018 17.7956 6.59099 17.794 6.56235 17.7923C6.54913 17.7912 6.53646 17.7901 6.52324 17.789C6.50782 17.7879 6.4924 17.7868 6.47697 17.7846C6.45935 17.7829 6.44227 17.7802 6.42465 17.778C6.41418 17.7769 6.40371 17.7752 6.39325 17.7736C6.37287 17.7703 6.35304 17.767 6.33266 17.7631C6.3255 17.762 6.31834 17.7609 6.31118 17.7593C6.28859 17.7548 6.26656 17.7499 6.24398 17.7449L6.23021 17.7416C6.20597 17.7361 6.18229 17.7295 6.1586 17.7229L6.15144 17.7207C6.12611 17.7135 6.10132 17.7058 6.07598 17.6981H6.07323C6.04734 17.6888 6.02145 17.6799 5.99611 17.6706C5.75761 17.5819 5.53619 17.4469 5.34285 17.269C4.78763 16.759 4.69785 16.2098 4.6626 15.4971C4.6626 15.5152 4.66535 16.1746 4.66535 16.3189C4.66535 16.3459 4.66425 16.3729 4.66535 16.3999C4.68738 16.9319 4.90661 17.4238 5.29823 17.7846C5.56152 18.027 5.87714 18.19 6.21754 18.2649C6.27262 18.277 6.36736 18.2991 6.43676 18.2996C6.45384 18.2996 6.47091 18.3018 6.48799 18.3024" fill="white"/>
</mask>
<g mask="url(#mask25_2729_1484)">
<path d="M6.99639 15.4971H4.6626V18.3024H6.99639V15.4971Z" fill="#0B94CF"/>
</g>
<path fill-rule="evenodd" clip-rule="evenodd" d="M9.02718 15.3471C9.28606 15.3366 9.53393 15.428 9.72506 15.6037C9.91564 15.7794 10.0269 16.0185 10.0379 16.2779C10.0379 16.2911 10.0385 16.3049 10.039 16.3181V18.0868C10.0506 18.6046 9.86442 19.0975 9.513 19.4798C9.27119 19.7425 8.9699 19.932 8.63721 20.0345C8.80355 20.0708 8.97596 20.0862 9.15056 20.0791C9.68265 20.057 10.1745 19.829 10.5353 19.4368C10.7777 19.1735 10.9407 18.8579 11.0156 18.5175C11.0465 18.3776 11.0619 18.2328 11.0619 18.0862V16.7489L10.8443 16.3308C10.76 16.1903 10.6614 16.0218 10.543 15.9034C10.5243 15.8846 10.505 15.8659 10.4857 15.8483C10.1145 15.5068 9.61435 15.3438 9.11311 15.3438C9.08502 15.3438 9.05638 15.3465 9.02828 15.3476V15.3465L9.02718 15.3471Z" fill="#0B94CF"/>
<mask id="mask26_2729_1484" style="mask-type:luminance" maskUnits="userSpaceOnUse" x="8" y="15" width="4" height="6">
<path d="M9.02718 15.3471C9.28606 15.3366 9.53393 15.428 9.72506 15.6037C9.91564 15.7794 10.0269 16.0185 10.0379 16.2779C10.0379 16.2911 10.0385 16.3049 10.039 16.3181V18.0868C10.0506 18.6046 9.86442 19.0975 9.513 19.4798C9.27119 19.7425 8.9699 19.932 8.63721 20.0345C8.80355 20.0708 8.97596 20.0862 9.15056 20.0791C9.68265 20.057 10.1745 19.829 10.5353 19.4368C10.7777 19.1735 10.9407 18.8579 11.0156 18.5175C11.0465 18.3776 11.0619 18.2328 11.0619 18.0862V16.7489L10.8443 16.3308C10.76 16.1903 10.6614 16.0218 10.543 15.9034C10.5243 15.8846 10.505 15.8659 10.4857 15.8483C10.1145 15.5068 9.61435 15.3438 9.11311 15.3438C9.08502 15.3438 9.05638 15.3465 9.02828 15.3476V15.3465L9.02718 15.3471Z" fill="white"/>
</mask>
<g mask="url(#mask26_2729_1484)">
<path d="M11.0619 15.3359H8.63672V20.0861H11.0619V15.3359Z" fill="#0B94CF"/>
</g>
<path fill-rule="evenodd" clip-rule="evenodd" d="M8.65383 14.8675C8.63511 14.8862 8.61638 14.9055 8.59875 14.9253C8.24733 15.3076 8.07493 15.8006 8.08595 16.3183H8.09641C8.09641 16.0738 8.1873 15.8419 8.35364 15.6612C8.52935 15.4706 8.7684 15.3594 9.02783 15.3484C9.55992 15.3263 10.0689 15.5125 10.461 15.8733C10.6048 16.0055 10.726 16.1553 10.8235 16.3183C10.9045 16.4538 11.062 16.8196 11.062 16.8196C11.062 16.8196 11.062 16.4649 11.062 16.3183C11.062 16.2908 11.062 16.2633 11.0603 16.2357C11.0383 15.7036 10.8103 15.2118 10.4181 14.851C10.1553 14.6086 9.83532 14.4445 9.49492 14.3701C9.18702 14.4654 8.88572 14.6351 8.65328 14.8681" fill="#0B94CF"/>
<mask id="mask27_2729_1484" style="mask-type:luminance" maskUnits="userSpaceOnUse" x="8" y="14" width="4" height="3">
<path d="M8.65383 14.8675C8.63511 14.8862 8.61638 14.9055 8.59875 14.9253C8.24733 15.3076 8.07493 15.8006 8.08595 16.3183H8.09641C8.09641 16.0738 8.1873 15.8419 8.35364 15.6612C8.52935 15.4706 8.7684 15.3594 9.02783 15.3484C9.55992 15.3263 10.0689 15.5125 10.461 15.8733C10.6048 16.0055 10.726 16.1553 10.8235 16.3183C10.9045 16.4538 11.062 16.8196 11.062 16.8196C11.062 16.8196 11.062 16.4649 11.062 16.3183C11.062 16.2908 11.062 16.2633 11.0603 16.2357C11.0383 15.7036 10.8103 15.2118 10.4181 14.851C10.1553 14.6086 9.83532 14.4445 9.49492 14.3701C9.18702 14.4654 8.88572 14.6351 8.65328 14.8681" fill="white"/>
</mask>
<g mask="url(#mask27_2729_1484)">
<path d="M11.0623 14.3691H8.07471V16.8192H11.0623V14.3691Z" fill="#0B94CF"/>
</g>
<path fill-rule="evenodd" clip-rule="evenodd" d="M11.8926 18.3128C12.4654 18.3128 12.9298 17.8484 12.9298 17.2756V17.0922V15.3604C12.9298 14.7876 12.4654 14.3232 11.8926 14.3232V18.3128Z" fill="#0B94CF"/>
<mask id="mask28_2729_1484" style="mask-type:luminance" maskUnits="userSpaceOnUse" x="11" y="14" width="2" height="5">
<path d="M11.8926 18.3128C12.4654 18.3128 12.9298 17.8484 12.9298 17.2756V17.0922V15.3604C12.9298 14.7876 12.4654 14.3232 11.8926 14.3232V18.3128Z" fill="white"/>
</mask>
<g mask="url(#mask28_2729_1484)">
<path d="M12.9303 14.3232H11.8926V18.3128H12.9303V14.3232Z" fill="#0B94CF"/>
</g>
<path fill-rule="evenodd" clip-rule="evenodd" d="M16.3543 11.9097C16.3543 12.087 16.3394 12.2644 16.3103 12.4407L15.9963 14.3046C15.9495 14.5844 16.2711 14.7755 16.4942 14.5998L19.831 11.9719C20.1312 11.7351 20.1742 11.3275 19.9941 11.0322C18.9993 11.7268 18.0095 11.9499 16.8098 11.9345C16.6567 11.9328 16.5047 11.924 16.3543 11.9097Z" fill="#0B94CF"/>
<mask id="mask29_2729_1484" style="mask-type:luminance" maskUnits="userSpaceOnUse" x="15" y="11" width="6" height="4">
<path d="M16.3543 11.9097C16.3543 12.087 16.3394 12.2644 16.3103 12.4407L15.9963 14.3046C15.9495 14.5844 16.2711 14.7755 16.4942 14.5998L19.831 11.9719C20.1312 11.7351 20.1742 11.3275 19.9941 11.0322C18.9993 11.7268 18.0095 11.9499 16.8098 11.9345C16.6567 11.9328 16.5047 11.924 16.3543 11.9097Z" fill="white"/>
</mask>
<g mask="url(#mask29_2729_1484)">
<path d="M20.175 11.0312H15.9497V14.774H20.175V11.0312Z" fill="#0B94CF"/>
</g>
<path fill-rule="evenodd" clip-rule="evenodd" d="M16.3528 11.813C16.3572 12.014 16.3423 12.2398 16.3087 12.4398L16.2002 13.0997C16.2277 13.1547 16.2613 13.2071 16.3026 13.2555C16.4508 13.4307 16.6662 13.5249 16.8937 13.532C17.6775 13.5579 19.0666 12.3753 19.0666 12.3753L19.7364 11.8477C20.0724 11.5833 20.1572 11.1905 19.9176 10.9229C19.781 11.0154 19.6395 11.1024 19.4907 11.1828C18.9465 11.4781 18.7113 11.5199 18.1627 11.6769C17.6422 11.8251 16.9697 11.8504 16.3528 11.813Z" fill="#0B94CF"/>
<mask id="mask30_2729_1484" style="mask-type:luminance" maskUnits="userSpaceOnUse" x="16" y="10" width="5" height="4">
<path d="M16.3528 11.813C16.3572 12.014 16.3423 12.2398 16.3087 12.4398L16.2002 13.0997C16.2277 13.1547 16.2613 13.2071 16.3026 13.2555C16.4508 13.4307 16.6662 13.5249 16.8937 13.532C17.6775 13.5579 19.0666 12.3753 19.0666 12.3753L19.7364 11.8477C20.0724 11.5833 20.1572 11.1905 19.9176 10.9229C19.781 11.0154 19.6395 11.1024 19.4907 11.1828C18.9465 11.4781 18.7113 11.5199 18.1627 11.6769C17.6422 11.8251 16.9697 11.8504 16.3528 11.813Z" fill="white"/>
</mask>
<g mask="url(#mask30_2729_1484)">
<path d="M20.1577 10.9229H16.2007V13.5579H20.1577V10.9229Z" fill="#0B94CF"/>
</g>
<path fill-rule="evenodd" clip-rule="evenodd" d="M15.9154 10.0965L16.1831 10.8797C16.2861 11.1805 16.3428 11.4955 16.3528 11.8128V11.8155C16.3687 11.9505 16.5312 12.8599 18.2668 12.3223C19.2935 12.0045 20.2564 11.463 19.9385 10.9469C19.8835 10.8814 19.8157 10.8235 19.7342 10.7789L16.9421 9.23554C16.827 9.1722 16.7086 9.14355 16.594 9.14355C16.1368 9.14355 15.7458 9.59908 15.9154 10.0965Z" fill="#0B94CF"/>
<mask id="mask31_2729_1484" style="mask-type:luminance" maskUnits="userSpaceOnUse" x="15" y="9" width="6" height="4">
<path d="M15.9154 10.0965L16.1831 10.8797C16.2861 11.1805 16.3428 11.4955 16.3528 11.8128V11.8155C16.3687 11.9505 16.5312 12.8599 18.2668 12.3223C19.2935 12.0045 20.2564 11.463 19.9385 10.9469C19.8835 10.8814 19.8157 10.8235 19.7342 10.7789L16.9421 9.23554C16.827 9.1722 16.7086 9.14355 16.594 9.14355C16.1368 9.14355 15.7458 9.59908 15.9154 10.0965Z" fill="white"/>
</mask>
<g mask="url(#mask31_2729_1484)">
<path d="M20.2567 9.14355H15.7461V12.8599H20.2567V9.14355Z" fill="#0B94CF"/>
</g>
<path fill-rule="evenodd" clip-rule="evenodd" d="M15.9154 10.0965C17.3194 12.3642 20.2646 11.4504 19.7342 10.7789L16.9421 9.23554C16.827 9.17165 16.7086 9.14355 16.594 9.14355C16.1368 9.14355 15.7458 9.59908 15.9154 10.0965Z" fill="#0B94CF"/>
<mask id="mask32_2729_1484" style="mask-type:luminance" maskUnits="userSpaceOnUse" x="15" y="9" width="5" height="3">
<path d="M15.9154 10.0965C17.3194 12.3642 20.2646 11.4504 19.7342 10.7789L16.9421 9.23554C16.827 9.17165 16.7086 9.14355 16.594 9.14355C16.1368 9.14355 15.7458 9.59908 15.9154 10.0965Z" fill="white"/>
</mask>
<g mask="url(#mask32_2729_1484)">
<path d="M20.2655 9.14355H15.7461V12.3642H20.2655V9.14355Z" fill="#0B94CF"/>
</g>
</svg>
