<svg width="81" height="80" viewBox="0 0 81 80" fill="none" xmlns="http://www.w3.org/2000/svg">
<path d="M17.3466 18.7751C17.8526 18.2274 18.4563 17.77 19.1579 17.403C19.8595 17.036 20.6046 16.818 21.3934 16.7491C26.0898 16.3745 30.4565 16.2391 34.4935 16.343C38.5305 16.4468 42.2008 16.8102 45.5045 17.4331C48.8083 18.0559 51.7446 18.9195 54.3136 20.0238C56.8827 21.1281 59.0474 22.4933 60.8079 24.1196C66.6763 29.5406 69.6077 35.747 69.6021 42.7387C69.5965 49.7305 67.2988 55.7106 62.7091 60.6792C58.1193 65.6477 52.3398 68.4114 45.3704 68.9703C38.401 69.5292 31.9821 67.0981 26.1138 61.6772C24.3533 60.0509 22.8209 58.0009 21.5168 55.5274C20.2127 53.0538 19.1195 50.195 18.2371 46.9509C17.3547 43.7068 16.7021 40.0768 16.2791 36.0607C15.8561 32.0446 15.6455 27.6809 15.6472 22.9695C15.6535 22.1778 15.8118 21.4177 16.1222 20.6893C16.4325 19.9609 16.8407 19.3228 17.3466 18.7751ZM39.2356 38.9953C38.043 40.2863 37.4818 41.8162 37.5518 43.5849C37.6219 45.3535 38.3025 46.8341 39.5935 48.0268C40.8846 49.2194 42.4144 49.7806 44.1831 49.7105C45.9518 49.6404 47.4324 48.9599 48.625 47.6688C49.8176 46.3778 50.3789 44.848 50.3088 43.0793C50.2387 41.3106 49.5581 39.83 48.2671 38.6374C46.976 37.4448 45.4462 36.8835 43.6775 36.9536C41.9089 37.0237 40.4282 37.7043 39.2356 38.9953Z" fill="#EF0000"/>
<circle cx="43.8823" cy="43.1172" r="20" fill="white"/>
<path d="M38.2772 35.3946C37.7566 34.874 36.9111 34.874 36.3905 35.3946C35.8698 35.9153 35.8698 36.7608 36.3905 37.2814L42.1132 43L36.3946 48.7228C35.874 49.2434 35.874 50.0889 36.3946 50.6095C36.9153 51.1302 37.7608 51.1302 38.2814 50.6095L44 44.8868L49.7228 50.6054C50.2434 51.126 51.0889 51.126 51.6095 50.6054C52.1302 50.0847 52.1302 49.2392 51.6095 48.7186L45.8868 43L51.6054 37.2772C52.126 36.7566 52.126 35.9111 51.6054 35.3905C51.0847 34.8698 50.2392 34.8698 49.7186 35.3905L44 41.1132L38.2772 35.3946Z" fill="#EF0000"/>
</svg>
