<svg width="81" height="80" viewBox="0 0 81 80" fill="none" xmlns="http://www.w3.org/2000/svg">
<path d="M17.3471 18.779C17.8531 18.2313 18.4568 17.7739 19.1584 17.4069C19.86 17.0399 20.6051 16.8219 21.3939 16.753C26.0903 16.3784 30.457 16.243 34.494 16.3469C38.531 16.4507 42.2013 16.8141 45.505 17.437C48.8088 18.0598 51.7451 18.9234 54.3141 20.0277C56.8831 21.132 59.0479 22.4973 60.8084 24.1235C66.6768 29.5445 69.6082 35.7509 69.6026 42.7426C69.597 49.7344 67.2993 55.7145 62.7096 60.6831C58.1198 65.6516 52.3402 68.4153 45.3709 68.9742C38.4015 69.5331 31.9826 67.102 26.1143 61.6811C24.3537 60.0548 22.8214 58.0048 21.5173 55.5313C20.2132 53.0577 19.12 50.1989 18.2376 46.9548C17.3552 43.7108 16.7025 40.0807 16.2796 36.0646C15.8566 32.0485 15.6459 27.6848 15.6477 22.9734C15.654 22.1817 15.8123 21.4216 16.1227 20.6932C16.433 19.9648 16.8412 19.3267 17.3471 18.779ZM39.2361 38.9992C38.0435 40.2902 37.4822 41.8201 37.5523 43.5888C37.6224 45.3574 38.303 46.8381 39.594 48.0307C40.8851 49.2233 42.4149 49.7845 44.1836 49.7144C45.9522 49.6444 47.4329 48.9638 48.6255 47.6727C49.8181 46.3817 50.3794 44.8519 50.3093 43.0832C50.2392 41.3145 49.5586 39.8339 48.2676 38.6413C46.9765 37.4487 45.4467 36.8874 43.678 36.9575C41.9094 37.0276 40.4287 37.7082 39.2361 38.9992Z" fill="#0B94CF"/>
<circle cx="43.8828" cy="43.1211" r="20" fill="white"/>
<path d="M53.966 39.7469C53.966 40.849 53.7788 41.8992 53.4045 42.8974C53.0302 43.8957 52.5222 44.8021 51.8806 45.6167C51.6972 45.8403 51.4681 45.9601 51.1931 45.9761C50.9181 45.992 50.6736 45.8882 50.4597 45.6646C50.2611 45.457 50.1695 45.2094 50.1847 44.9219C50.2 44.6344 50.2917 44.3709 50.4597 44.1313C50.9181 43.5243 51.2733 42.8455 51.5254 42.0948C51.7774 41.3441 51.9035 40.5615 51.9035 39.7469C51.9035 38.9323 51.7774 38.1577 51.5254 37.4229C51.2733 36.6882 50.9181 36.0174 50.4597 35.4104C50.2764 35.1709 50.1809 34.9073 50.1733 34.6198C50.1656 34.3323 50.2611 34.0768 50.4597 33.8531C50.6583 33.6295 50.899 33.5217 51.1816 33.5297C51.4642 33.5377 51.6972 33.6535 51.8806 33.8771C52.5222 34.6917 53.0302 35.5981 53.4045 36.5964C53.7788 37.5946 53.966 38.6448 53.966 39.7469ZM49.7952 39.7469C49.7952 40.258 49.7188 40.7492 49.566 41.2203C49.4132 41.6915 49.1993 42.1268 48.9243 42.5261C48.7563 42.7656 48.5309 42.8894 48.2483 42.8974C47.9656 42.9054 47.7174 42.7976 47.5035 42.574C47.3049 42.3663 47.2017 42.1148 47.1941 41.8193C47.1865 41.5238 47.2514 41.2403 47.3889 40.9688C47.4806 40.7931 47.5531 40.6014 47.6066 40.3938C47.6601 40.1861 47.6868 39.9705 47.6868 39.7469C47.6868 39.5233 47.6601 39.3077 47.6066 39.1C47.5531 38.8924 47.4806 38.6927 47.3889 38.5011C47.2514 38.2295 47.1865 37.95 47.1941 37.6625C47.2017 37.375 47.3049 37.1275 47.5035 36.9198C47.7174 36.6962 47.9656 36.5884 48.2483 36.5964C48.5309 36.6044 48.7563 36.7281 48.9243 36.9677C49.1993 37.367 49.4132 37.8023 49.566 38.2735C49.7188 38.7446 49.7952 39.2358 49.7952 39.7469ZM41.1327 43.5802C40.1243 43.5802 39.2611 43.2049 38.5431 42.4542C37.825 41.7035 37.466 40.8011 37.466 39.7469C37.466 38.6927 37.825 37.7903 38.5431 37.0396C39.2611 36.2889 40.1243 35.9136 41.1327 35.9136C42.141 35.9136 43.0042 36.2889 43.7222 37.0396C44.4403 37.7903 44.7993 38.6927 44.7993 39.7469C44.7993 40.8011 44.4403 41.7035 43.7222 42.4542C43.0042 43.2049 42.141 43.5802 41.1327 43.5802ZM33.7993 49.3302V48.5636C33.7993 48.0365 33.9292 47.5413 34.1889 47.0781C34.4486 46.615 34.8076 46.2636 35.266 46.024C36.0451 45.6087 36.9236 45.2573 37.9014 44.9698C38.8792 44.6823 39.9563 44.5386 41.1327 44.5386C42.309 44.5386 43.3861 44.6823 44.3639 44.9698C45.3417 45.2573 46.2202 45.6087 46.9993 46.024C47.4577 46.2636 47.8167 46.615 48.0764 47.0781C48.3361 47.5413 48.466 48.0365 48.466 48.5636V49.3302C48.466 49.8573 48.2865 50.3085 47.9274 50.6839C47.5684 51.0592 47.1368 51.2469 46.6327 51.2469H35.6326C35.1285 51.2469 34.6969 51.0592 34.3379 50.6839C33.9788 50.3085 33.7993 49.8573 33.7993 49.3302Z" fill="#0B94CF"/>
</svg>
