<svg width="46" height="46" viewBox="0 0 46 46" fill="none" xmlns="http://www.w3.org/2000/svg">
<rect x="4.31885" y="2.11914" width="14.1126" height="14.1126" transform="rotate(4.8738 4.31885 2.11914)" fill="#0B94CF"/>
<circle cx="23" cy="23" r="20" fill="white"/>
<circle cx="23" cy="23" r="21.5" stroke="#0B94CF" stroke-width="3"/>
<path d="M34.9168 19.7493C34.9168 20.9951 34.6956 22.1823 34.2533 23.3108C33.8109 24.4392 33.2106 25.4639 32.4522 26.3847C32.2356 26.6375 31.9647 26.7729 31.6397 26.791C31.3147 26.809 31.0259 26.6917 30.7731 26.4389C30.5384 26.2042 30.43 25.9243 30.4481 25.5993C30.4661 25.2743 30.5745 24.9764 30.7731 24.7055C31.3147 24.0194 31.7345 23.2521 32.0325 22.4035C32.3304 21.5549 32.4793 20.6701 32.4793 19.7493C32.4793 18.8285 32.3304 17.9528 32.0325 17.1222C31.7345 16.2917 31.3147 15.5333 30.7731 14.8472C30.5564 14.5764 30.4436 14.2785 30.4345 13.9535C30.4255 13.6285 30.5384 13.3396 30.7731 13.0868C31.0078 12.834 31.2922 12.7121 31.6262 12.7212C31.9602 12.7302 32.2356 12.8611 32.4522 13.1139C33.2106 14.0347 33.8109 15.0594 34.2533 16.1878C34.6956 17.3163 34.9168 18.5035 34.9168 19.7493ZM29.9877 19.7493C29.9877 20.3271 29.8974 20.8823 29.7168 21.4149C29.5363 21.9476 29.2835 22.4396 28.9585 22.891C28.7599 23.1618 28.4936 23.3017 28.1595 23.3108C27.8255 23.3198 27.5321 23.1979 27.2793 22.9451C27.0446 22.7104 26.9227 22.426 26.9137 22.092C26.9047 21.758 26.9814 21.4375 27.1439 21.1305C27.2522 20.9319 27.338 20.7153 27.4012 20.4805C27.4644 20.2458 27.496 20.0021 27.496 19.7493C27.496 19.4965 27.4644 19.2528 27.4012 19.018C27.338 18.7833 27.2522 18.5576 27.1439 18.341C26.9814 18.034 26.9047 17.718 26.9137 17.393C26.9227 17.068 27.0446 16.7882 27.2793 16.5535C27.5321 16.3007 27.8255 16.1788 28.1595 16.1878C28.4936 16.1969 28.7599 16.3368 28.9585 16.6076C29.2835 17.059 29.5363 17.551 29.7168 18.0837C29.8974 18.6163 29.9877 19.1715 29.9877 19.7493ZM19.7502 24.0826C18.5585 24.0826 17.5384 23.6583 16.6897 22.8097C15.8411 21.9611 15.4168 20.941 15.4168 19.7493C15.4168 18.5576 15.8411 17.5375 16.6897 16.6889C17.5384 15.8403 18.5585 15.416 19.7502 15.416C20.9418 15.416 21.962 15.8403 22.8106 16.6889C23.6592 17.5375 24.0835 18.5576 24.0835 19.7493C24.0835 20.941 23.6592 21.9611 22.8106 22.8097C21.962 23.6583 20.9418 24.0826 19.7502 24.0826ZM11.0835 30.5826V29.716C11.0835 29.1201 11.237 28.5604 11.5439 28.0368C11.8509 27.5132 12.2752 27.116 12.8168 26.8451C13.7377 26.3757 14.7759 25.9785 15.9314 25.6535C17.087 25.3285 18.3599 25.166 19.7502 25.166C21.1404 25.166 22.4134 25.3285 23.5689 25.6535C24.7245 25.9785 25.7627 26.3757 26.6835 26.8451C27.2252 27.116 27.6495 27.5132 27.9564 28.0368C28.2634 28.5604 28.4168 29.1201 28.4168 29.716V30.5826C28.4168 31.1785 28.2047 31.6885 27.7804 32.1128C27.3561 32.5371 26.846 32.7493 26.2502 32.7493H13.2502C12.6543 32.7493 12.1443 32.5371 11.72 32.1128C11.2956 31.6885 11.0835 31.1785 11.0835 30.5826Z" fill="#0B94CF"/>
</svg>
